<?xml version="1.0" encoding="UTF-8" standalone="no"?>
<!-- Created with Inkscape (http://www.inkscape.org/) -->

<svg
   xmlns:dc="http://purl.org/dc/elements/1.1/"
   xmlns:cc="http://creativecommons.org/ns#"
   xmlns:rdf="http://www.w3.org/1999/02/22-rdf-syntax-ns#"
   xmlns:svg="http://www.w3.org/2000/svg"
   xmlns="http://www.w3.org/2000/svg"
   xmlns:sodipodi="http://sodipodi.sourceforge.net/DTD/sodipodi-0.dtd"
   xmlns:inkscape="http://www.inkscape.org/namespaces/inkscape"
   width="186.56703mm"
   height="242.11113mm"
   viewBox="0 0 186.56703 242.11113"
   version="1.1"
   id="svg1749"
   inkscape:version="0.92.3 (unknown)"
   sodipodi:docname="tshirt_art.svg">
  <defs
     id="defs1743" />
  <sodipodi:namedview
     id="base"
     pagecolor="#ffffff"
     bordercolor="#666666"
     borderopacity="1.0"
     inkscape:pageopacity="0.0"
     inkscape:pageshadow="2"
     inkscape:zoom="0.35"
     inkscape:cx="-153.23822"
     inkscape:cy="453.24715"
     inkscape:document-units="mm"
     inkscape:current-layer="layer1"
     showgrid="false"
     inkscape:pagecheckerboard="true"
     fit-margin-top="0"
     fit-margin-left="0"
     fit-margin-right="0"
     fit-margin-bottom="0"
     inkscape:window-width="1325"
     inkscape:window-height="713"
     inkscape:window-x="41"
     inkscape:window-y="27"
     inkscape:window-maximized="1" />
  <metadata
     id="metadata1746">
    <rdf:RDF>
      <cc:Work
         rdf:about="">
        <dc:format>image/svg+xml</dc:format>
        <dc:type
           rdf:resource="http://purl.org/dc/dcmitype/StillImage" />
        <dc:title></dc:title>
      </cc:Work>
    </rdf:RDF>
  </metadata>
  <g
     inkscape:label="Layer 1"
     inkscape:groupmode="layer"
     id="layer1"
     transform="translate(-15.219874,-26.643842)">
    <g
       transform="matrix(2.0108431,0,0,2.0108431,-88.541371,-136.06511)"
       id="g1693"
       inkscape:export-filename="/home/brunamoreira/Drawings/export/tshirt_art.png"
       inkscape:export-xdpi="96"
       inkscape:export-ydpi="96">
      <g
         style="fill:#ffffff;fill-opacity:1"
         id="g1246"
         transform="matrix(1.6519569,0,0,1.6519569,271.44834,18.718433)">
        <path
           id="path1208"
           style="fill:#ffffff;fill-opacity:1;stroke-width:0.26458332"
           d="m -99.067745,56.384554 c 0.992013,0 1.483627,1.011944 1.646412,3.386873 0.119446,1.74272 0.06224,2.207892 -0.351401,2.853574 -0.979884,1.529569 -1.962319,1.852847 -2.542476,0.837157 -0.21166,-0.37056 -0.34003,-1.548413 -0.34003,-3.120223 0,-2.87423 0.43443,-3.957381 1.587495,-3.957381 z m -12.681385,-5.012612 c -2.38096,0.38409 -7.32077,0.200461 -9.32656,-0.34675 -2.69804,-0.73605 -5.90989,-3.157217 -6.98562,-5.265827 -0.76813,-1.505659 -0.66209,-2.813939 0.34003,-4.205428 0.35068,-0.584972 0.93434,-0.949305 1.46555,-1.379765 2.86262,-2.590639 10.84245,-2.22453 16.84548,0.77308 3.43368,1.714611 6.62876,4.27776 8.35453,6.701399 l 0.54622,0.766879 -1.45883,0.45992 c -3.13897,1.137104 -6.70643,2.005331 -9.7808,2.496492 z m 9.80352,-2.233453 c 0.68865,-0.234648 1.34787,-0.426847 1.46503,-0.426847 0.511657,0 2.343402,4.602512 2.711453,6.813021 0.136213,0.8181 -0.15495,1.161502 -0.504878,0.595313 -0.274823,-0.44467 -1.610095,-0.294638 -2.315105,0.259932 -0.36654,0.288321 -0.85234,0.988705 -1.07952,1.556496 -0.29874,0.746598 -0.64478,1.113115 -1.25108,1.324467 -0.78537,0.273788 -0.82717,0.352115 -0.66094,1.238165 0.20961,1.117362 -0.22644,2.654575 -0.99013,3.492294 -1.79556,1.969651 -3.81248,-1.392928 -3.13675,-5.229138 0.3232,-1.834891 0.86895,-2.642216 1.78645,-2.642216 0.6705,0 1.41773,0.882546 1.45004,1.712558 0.0119,0.30604 0.0804,0.388585 0.15917,0.192235 0.24806,-0.61899 -0.47918,-1.903365 -1.17668,-2.078426 -1.5823,-0.39714 -3.06279,1.045874 -3.38842,3.302124 -0.21338,1.478381 -1.77346,4.407011 -2.65514,4.984708 -1.04109,0.682162 -1.83873,0.284345 -2.33887,-1.166337 -0.63884,-1.852969 -0.7884,-4.23468 -0.34416,-5.476149 0.68613,-1.917502 1.68582,-1.939476 2.71197,-0.05995 0.69108,1.265851 1.04934,1.250908 0.52245,-0.0217 -0.83698,-2.021559 -2.71266,-2.560873 -3.91914,-1.127061 -1.18894,1.412978 -1.27843,4.984154 -0.1788,7.139614 0.89627,1.756841 2.73418,2.360282 4.04575,1.328603 v 5.16e-4 c 0.37067,-0.291571 0.97445,-1.133023 1.34152,-1.869655 l 0.66714,-1.339453 0.27182,0.984954 c 0.6321,2.28926 2.62852,3.160599 4.20388,1.835031 0.89331,-0.751671 1.52793,-2.639817 1.28881,-3.835427 -0.12207,-0.610338 -0.0432,-0.852815 0.34571,-1.060915 0.27726,-0.148392 0.55439,-0.270269 0.61599,-0.270269 0.0616,0 0.18689,0.717438 0.27853,1.594217 0.37233,3.56221 2.147387,4.743432 3.954796,2.631882 l 0.912087,-1.065567 0.158131,0.789099 c 0.08679,0.433959 0.459095,0.986729 0.827855,1.228349 0.62266,0.407977 0.717968,0.408403 1.334804,0.0041 0.365313,-0.239361 0.93086,-0.847135 1.256771,-1.350307 0.726144,-1.121097 0.899155,-1.141954 1.120344,-0.134874 0.200544,0.91307 1.618536,2.219712 2.176611,2.005563 0.209801,-0.0805 0.486579,-0.146245 0.614949,-0.146245 0.325242,0 1.575782,-1.887469 1.574581,-2.376599 -5.29e-4,-0.22088 -0.221771,-0.04433 -0.491443,0.392224 -0.26966,0.436559 -0.731197,1.00812 -1.025776,1.26969 -0.4777,0.424151 -0.57898,0.432334 -0.935344,0.07596 -0.219763,-0.21976 -0.545351,-1.009269 -0.723988,-1.753899 -0.321011,-1.33813 -0.315563,-1.363591 0.485244,-2.192631 2.205233,-2.282978 2.54563,-6.152298 0.496093,-5.637897 -1.416118,0.35543 -2.566974,2.674461 -2.565736,5.169709 7.94e-4,1.612741 -0.752136,3.411831 -1.667081,3.98322 -0.853408,0.532971 -1.06253,-0.04043 -1.281575,-3.515548 -0.113467,-1.8001 -0.399349,-4.212973 -0.63562,-5.362464 -0.429548,-2.089798 -1.809072,-5.794197 -2.261878,-6.074047 -0.577762,-0.357068 -0.119411,-0.617358 1.546159,-0.878499 8.364879,-1.3115 15.439372,0.123259 19.924882,4.040579 0.517649,0.452091 0.361622,0.257459 -0.34675,-0.43253 -1.500918,-1.461989 -4.279868,-2.875899 -7.241418,-3.684529 -2.700779,-0.73742 -9.777534,-0.84418 -12.616283,-0.190169 l -1.800923,0.414962 -0.376722,-0.729155 c -0.5068,-0.980051 -3.41692,-3.907404 -4.88807,-4.917014 -4.35315,-2.987439 -10.37075,-4.864933 -14.90296,-4.800224 v 3.8e-5 c -0.8393,0.01199 -1.62764,0.09032 -2.34508,0.240813 -2.40991,0.61121 -4.03911,1.431065 -5.74125,3.012736 -2.2919,1.986291 -1.5477,5.64651 1.63659,8.05067 3.81115,2.877453 8.45898,3.717214 14.62908,2.642733 0.59457,-0.103537 1.09951,-0.217397 1.37743,-0.305019 2.84666,-0.746683 5.44596,-1.326998 7.89539,-2.155815 z m 11.637527,5.957263 c 0.05116,2.46e-4 0.105764,0.0046 0.164332,0.01292 0.53199,0.0755 0.596453,0.224788 0.561721,1.300179 -0.0398,1.233979 -0.791334,3.051913 -1.506884,3.645773 -0.324024,0.268909 -0.424471,0.230923 -0.56534,-0.212908 -0.215368,-0.678571 0.07902,-2.783284 0.55087,-3.939294 0.244814,-0.599778 0.437155,-0.808386 0.795301,-0.806669 z"
           inkscape:connector-curvature="0"
           sodipodi:nodetypes="scscsscccccccccccsccccccccsccccccccccsccccccccscscccccccscccccscccccccccccccccccccccccccccccc" />
        <path
           id="path1210"
           style="fill:#ffffff;fill-opacity:1;stroke-width:0.26458332"
           d="m -87.040212,90.715983 c 0.207198,-0.01972 0.426942,0.06986 0.644922,0.287837 0.3386,0.338598 0.357182,0.562325 0.106452,1.281576 -0.308729,0.885618 -1.264555,2.084625 -1.661914,2.084625 -0.12015,0 -0.218591,-0.468153 -0.218591,-1.040762 0,-1.510996 0.507537,-2.554113 1.129131,-2.613276 z m -33.672878,-0.164849 c 2.80113,-0.0127 4.37197,0.109162 5.82083,0.451652 2.9393,0.694819 2.9369,0.691364 1.72961,2.444295 -1.84124,2.673411 -5.42342,5.321572 -8.81806,6.518981 -1.72082,0.606998 -5.2483,0.859888 -6.74016,0.483178 -4.14665,-1.047068 -5.3396,-3.901468 -2.66547,-6.377907 1.17945,-1.09225 2.92888,-2.087657 4.96404,-2.824633 1.67356,-0.606031 2.28095,-0.679987 5.70921,-0.695566 z m 8.56278,-12.84366 c 1.39484,0.0145 2.54972,1.86681 2.54972,4.090188 0,2.50349 -1.04393,4.105693 -2.67478,4.105693 -0.55196,0 -0.80473,-0.210981 -1.16685,-0.974101 -0.37879,-0.798229 -0.43121,-1.378439 -0.29042,-3.210139 0.20157,-2.622275 0.75286,-4.020283 1.58233,-4.011641 z m -0.16278,-0.530718 c -0.40445,0.004 -0.8044,0.132361 -1.17615,0.392743 -1.15614,0.809799 -1.84774,4.906062 -1.20303,7.125663 0.46438,1.598739 2.48645,2.291865 3.92896,1.346686 0.6422,-0.42078 0.6473,-0.417433 0.48576,0.313677 -0.37076,1.678019 -0.98512,3.686755 -1.33377,4.360974 -0.36052,0.697158 -0.40196,0.708543 -1.36323,0.373102 -3.0938,-1.079595 -9.5197,-1.444106 -12.50104,-0.709517 -2.98337,0.735081 -6.29374,2.852422 -7.18251,4.594553 -0.64457,1.263449 -0.54912,2.801146 0.2403,3.870563 0.58333,0.790252 3.4848,2.32956 4.6762,2.48099 1.89218,0.24049 3.73673,0.16088 5.52111,-0.23823 4.24053,-0.94847 8.38287,-4.19987 11.19518,-8.787578 0.0288,-0.047 2.05769,0.514011 4.50877,1.246952 6.24873,1.86854 8.560768,2.224045 13.636373,2.097545 4.151985,-0.103489 4.152757,-0.103359 4.490167,0.5271 0.51607,0.96428 1.713259,1.85668 2.932121,2.184879 1.342569,0.361511 3.507623,-0.155651 5.755203,-1.374592 1.63059,-0.88433 1.437267,-0.849006 -1.058333,0.192752 -3.2658,1.36327 -5.640959,1.003284 -6.730339,-1.019575 l -0.486791,-0.903822 1.11156,-1.037145 c 1.896358,-1.768909 1.745091,-4.077788 -0.267169,-4.077788 -1.115298,0 -1.827011,1.251027 -1.82831,3.213759 l -0.001,1.493964 -2.228805,0.331764 c -4.255124,0.633061 -7.647937,0.162663 -15.715837,-2.179195 -3.05568,-0.886971 -3.76267,-1.180891 -3.65249,-1.517222 0.0751,-0.22937 0.48593,-1.369533 0.91261,-2.533695 0.83305,-2.272929 1.99109,-8.502711 1.85156,-9.960115 -0.0714,-0.746249 -0.20066,-0.901136 -0.81235,-0.971515 -0.66416,-0.0764 -0.72773,-0.007 -0.72864,0.79375 l -10e-4,0.877464 -0.5054,-0.82889 c -0.66961,-1.098142 -1.57981,-1.688888 -2.46961,-1.680001 z m 21.768699,-6.090068 c 0.420413,0 0.292571,2.09005 -0.271301,4.442106 -0.493485,2.05845 -1.160947,3.759978 -1.474846,3.759978 -0.07625,0 -0.06635,-0.744146 0.0217,-1.653646 0.431647,-4.45861 0.98203,-6.548438 1.724443,-6.548438 z m -0.115755,-0.23306 c -1.570561,-0.05481 -2.554787,2.563629 -2.771923,7.400065 l -0.161232,3.595129 -1.112075,1.440222 c -2.668707,3.456541 -3.186899,3.39385 -2.735236,-0.33228 0.165147,-1.362429 0.361958,-2.724329 0.437184,-3.026171 0.18103,-0.72639 -0.333264,-1.112727 -1.620573,-1.217496 -1.054158,-0.0858 -1.055095,-0.08662 -1.134814,-1.321367 -0.09434,-1.461079 -0.551155,-1.983165 -1.358055,-1.551326 -0.72834,0.3898 -0.68989,1.262343 0.108,2.436543 0.64451,0.948486 0.64808,0.984591 0.23978,2.376601 -0.48064,1.63866 -1.69061,3.872823 -2.48926,4.595585 -0.90989,0.823439 -1.09062,0.129601 -0.89916,-3.456638 0.14795,-2.771423 0.11332,-3.232238 -0.26666,-3.547587 -0.80813,-0.670689 -1.01292,0.04784 -1.04489,3.661275 -0.026,2.942519 0.0365,3.512812 0.4284,3.906221 1.0942,1.098521 2.89508,-0.646353 4.31808,-4.183724 0.66534,-1.653918 1.024606,-2.228746 1.431953,-2.292365 0.525479,-0.0821 0.541044,0.01817 0.47439,2.997234 -0.06622,2.959505 -0.04374,3.102136 0.556038,3.590478 0.343546,0.279709 0.802672,0.508495 1.020609,0.508495 0.433218,0 2.477373,-2.080226 3.184819,-3.241146 0.53408,-0.87643 0.858345,-0.932654 0.858345,-0.149344 0,1.200369 1.041223,2.797574 2.196248,3.369302 1.317588,0.6522 1.286661,0.649779 2.397787,0.18552 1.640199,-0.685321 2.927918,-3.224464 2.316138,-4.567163 -0.313452,-0.68797 -1.51021,-1.10254 -1.940451,-0.672312 -0.20138,0.20138 -0.118954,0.240059 0.285255,0.134358 1.28116,-0.335028 1.766213,1.226021 0.929143,2.990001 -0.955623,2.013828 -3.029723,2.614544 -4.05505,1.174605 -0.701098,-0.984592 -1.33532,-2.769294 -1.33532,-3.757393 0,-0.4196 0.465355,-1.862831 1.034045,-3.207557 1.206531,-2.85296 1.69264,-4.882481 1.568381,-6.546371 -0.0757,-1.014339 -0.180134,-1.203487 -0.705901,-1.277959 -0.05188,-0.0073 -0.103333,-0.01166 -0.153995,-0.01344 z m -13.848254,3.531568 c -0.20697,0.02427 -0.40015,0.196384 -0.48834,0.547769 -0.19601,0.780971 0.0424,1.180807 0.70332,1.180807 0.38961,0 0.51366,-0.183973 0.51366,-0.762744 0,-0.636175 -0.38368,-1.006279 -0.72864,-0.965832 z"
           inkscape:connector-curvature="0" />
        <g
           style="fill:#ffffff;fill-opacity:1"
           id="g1242"
           transform="translate(14.255934,0.2501041)">
          <path
             inkscape:connector-curvature="0"
             id="path1212"
             d="m -126.91577,67.828501 c -0.0997,0.02422 -0.17828,0.982371 -0.17828,2.23294 0,1.333939 0.0893,2.425046 0.19843,2.424657 0.10915,-2.59e-4 0.19844,-1.001686 0.19844,-2.225188 0,-1.223499 -0.0893,-2.314606 -0.19844,-2.424657 -0.007,-0.0069 -0.0135,-0.0094 -0.0201,-0.0078 z"
             style="fill:#ffffff;fill-opacity:1;stroke-width:0.26458332" />
          <path
             inkscape:connector-curvature="0"
             id="path1214"
             d="m -115.63945,68.298239 c -0.24934,0.0074 -0.60342,0.04131 -0.97927,0.09767 -1.12077,0.168072 -1.21492,0.241647 -1.21492,0.946198 0,0.423439 -0.14736,0.772866 -0.33073,0.784447 -0.26458,0.0167 -0.26458,0.04726 0,0.153996 0.18558,0.0749 0.33073,0.588494 0.33073,1.169955 v 1.036111 l 1.12448,-0.0186 c 0.61846,-0.0102 1.36261,-0.124635 1.65365,-0.254765 0.34848,-0.155811 0.0549,-0.183486 -0.8599,-0.0801 l -1.38906,0.157099 v -1.092441 c 0,-1.014359 0.052,-1.092298 0.7276,-1.096057 0.40018,-0.002 0.89981,-0.113187 1.11053,-0.246497 0.2493,-0.15771 -0.005,-0.190473 -0.7276,-0.09354 -1.00212,0.134411 -1.11053,0.09413 -1.11053,-0.411861 0,-0.450549 0.20987,-0.594649 1.06712,-0.731737 0.58696,-0.0939 1.01463,-0.223023 0.95033,-0.287322 -0.0161,-0.01607 -0.0654,-0.02629 -0.14108,-0.03101 -0.0568,-0.0035 -0.12824,-0.004 -0.21135,-0.0016 z"
             style="fill:#ffffff;fill-opacity:1;stroke-width:0.26458332" />
          <path
             inkscape:connector-curvature="0"
             id="path1216"
             d="m -119.00152,68.539568 c -0.14212,0.0054 -0.45399,0.197017 -1.1064,0.639755 -0.53609,0.363799 -1.07006,0.661458 -1.18649,0.661458 -0.11643,0 -0.25814,-0.446487 -0.31522,-0.992187 -0.0571,-0.545701 -0.12385,0.0496 -0.14831,1.322916 -0.0268,1.396662 0.0605,2.315104 0.22014,2.315104 0.14552,0 0.26458,-0.425161 0.26458,-0.94516 v -0.945679 l 1.52135,0.856279 c 1.82084,1.024969 1.7175,0.811496 -0.18913,-0.390676 l -1.36891,-0.862997 1.20871,-0.641302 c 0.66488,-0.352711 1.20923,-0.730869 1.20923,-0.840258 0,-0.116713 -0.0243,-0.180518 -0.10955,-0.177253 z"
             style="fill:#ffffff;fill-opacity:1;stroke-width:0.26458332" />
          <path
             inkscape:connector-curvature="0"
             id="path1218"
             d="m -122.98009,68.971063 c -0.032,0.0069 -0.0541,0.466222 -0.0548,1.266589 -10e-4,1.164172 0.045,1.673574 0.1018,1.131716 0.0568,-0.541851 0.0577,-1.494359 0.002,-2.116667 h -5.2e-4 c -0.0175,-0.194474 -0.034,-0.284776 -0.0486,-0.281638 z"
             style="fill:#ffffff;fill-opacity:1;stroke-width:0.26458332" />
          <path
             inkscape:connector-curvature="0"
             id="path1220"
             d="m -125.77114,72.25665 c -0.11989,0 -0.23977,0.01808 -0.33073,0.05478 -0.1819,0.0734 -0.0331,0.133326 0.33073,0.133326 0.3638,0 0.51263,-0.05998 0.33073,-0.133326 -0.091,-0.0367 -0.21084,-0.05478 -0.33073,-0.05478 z"
             style="fill:#ffffff;fill-opacity:1;stroke-width:0.26458332" />
          <rect
             transform="rotate(1.5102341)"
             y="71.170418"
             x="-125.46387"
             height="4.8364749"
             width="0.57076824"
             id="rect1222"
             style="opacity:1;vector-effect:none;fill:#ffffff;fill-opacity:1;fill-rule:evenodd;stroke:none;stroke-width:3.62479162;stroke-linecap:round;stroke-linejoin:round;stroke-miterlimit:4;stroke-dasharray:none;stroke-dashoffset:0;stroke-opacity:1" />
          <rect
             style="opacity:1;vector-effect:none;fill:#ffffff;fill-opacity:1;fill-rule:evenodd;stroke:none;stroke-width:2.80219054;stroke-linecap:round;stroke-linejoin:round;stroke-miterlimit:4;stroke-dasharray:none;stroke-dashoffset:0;stroke-opacity:1"
             id="rect1224"
             width="0.57064074"
             height="2.8910472"
             x="77.682137"
             y="123.42297"
             transform="matrix(-0.01574791,0.99987599,-0.99902754,-0.04409051,0,0)" />
          <rect
             style="opacity:1;vector-effect:none;fill:#ffffff;fill-opacity:1;fill-rule:evenodd;stroke:none;stroke-width:3.62479162;stroke-linecap:round;stroke-linejoin:round;stroke-miterlimit:4;stroke-dasharray:none;stroke-dashoffset:0;stroke-opacity:1"
             id="rect1226"
             width="0.57076824"
             height="4.8364749"
             x="-121.56"
             y="71.067497"
             transform="rotate(1.5102341)" />
          <rect
             transform="matrix(0.99943623,0.03357417,-0.02068718,0.999786,0,0)"
             y="71.928017"
             x="-120.43604"
             height="4.8358297"
             width="0.4480494"
             id="rect1228"
             style="opacity:1;vector-effect:none;fill:#ffffff;fill-opacity:1;fill-rule:evenodd;stroke:none;stroke-width:3.21134615;stroke-linecap:round;stroke-linejoin:round;stroke-miterlimit:4;stroke-dasharray:none;stroke-dashoffset:0;stroke-opacity:1" />
          <rect
             style="opacity:1;vector-effect:none;fill:#ffffff;fill-opacity:1;fill-rule:evenodd;stroke:none;stroke-width:2.84427714;stroke-linecap:round;stroke-linejoin:round;stroke-miterlimit:4;stroke-dasharray:none;stroke-dashoffset:0;stroke-opacity:1"
             id="rect1230"
             width="0.46878639"
             height="3.6256971"
             x="-26.646435"
             y="150.25343"
             transform="matrix(0.0912287,0.99582997,-0.77644506,0.63018495,0,0)" />
          <rect
             transform="matrix(-0.07449804,-0.99722116,-0.8698646,-0.49329055,0,0)"
             y="149.03896"
             x="-146.15117"
             height="3.6256971"
             width="0.46878639"
             id="rect1232"
             style="opacity:1;vector-effect:none;fill:#ffffff;fill-opacity:1;fill-rule:evenodd;stroke:none;stroke-width:2.84427714;stroke-linecap:round;stroke-linejoin:round;stroke-miterlimit:4;stroke-dasharray:none;stroke-dashoffset:0;stroke-opacity:1" />
          <rect
             y="68.626762"
             x="-117.95729"
             height="4.0854721"
             width="0.51068407"
             id="rect1234"
             style="opacity:1;vector-effect:none;fill:#ffffff;fill-opacity:1;fill-rule:evenodd;stroke:none;stroke-width:4.06983948;stroke-linecap:round;stroke-linejoin:round;stroke-miterlimit:4;stroke-dasharray:none;stroke-dashoffset:0;stroke-opacity:1" />
          <rect
             transform="matrix(0.31825761,0.94800427,-0.94378056,0.33057261,0,0)"
             style="opacity:1;vector-effect:none;fill:#ffffff;fill-opacity:1;fill-rule:evenodd;stroke:none;stroke-width:3.2242651;stroke-linecap:round;stroke-linejoin:round;stroke-miterlimit:4;stroke-dasharray:none;stroke-dashoffset:0;stroke-opacity:1"
             id="rect1236"
             width="0.40798387"
             height="3.2096562"
             x="26.191816"
             y="130.75223" />
          <rect
             y="126.81035"
             x="43.921158"
             height="3.2096562"
             width="0.40798387"
             id="rect1238"
             style="opacity:1;vector-effect:none;fill:#ffffff;fill-opacity:1;fill-rule:evenodd;stroke:none;stroke-width:3.2242651;stroke-linecap:round;stroke-linejoin:round;stroke-miterlimit:4;stroke-dasharray:none;stroke-dashoffset:0;stroke-opacity:1"
             transform="matrix(0.19644308,0.98051523,-0.97787466,0.20919166,0,0)" />
          <rect
             transform="matrix(0.19644308,0.98051523,-0.97787466,0.20919166,0,0)"
             style="opacity:1;vector-effect:none;fill:#ffffff;fill-opacity:1;fill-rule:evenodd;stroke:none;stroke-width:3.2242651;stroke-linecap:round;stroke-linejoin:round;stroke-miterlimit:4;stroke-dasharray:none;stroke-dashoffset:0;stroke-opacity:1"
             id="rect1240"
             width="0.40798387"
             height="3.2096562"
             x="46.204021"
             y="126.59311" />
        </g>
        <path
           style="fill:#ffffff;fill-opacity:1;stroke-width:0.31709215"
           d="m -95.663773,68.337198 c -0.556704,0.152721 -0.695348,0.796536 -0.985693,1.22258 -0.22146,0.397388 -0.62094,0.740052 -1.09926,0.71036 -0.19603,0.07137 -0.11465,0.295759 0.042,0.358034 0.23882,0.15523 0.40498,0.432035 0.31687,0.721388 -0.054,0.72747 -0.50549,1.395676 -0.4307,2.13162 0.0694,0.23184 0.39163,0.254377 0.47162,0.01896 0.44856,-0.691006 0.35225,-1.58165 0.74695,-2.292342 0.240046,-0.400439 0.872563,-0.372919 1.198761,-0.09009 0.302771,0.32329 0.34941,0.801235 0.490594,1.204963 0.154291,0.529111 0.241522,1.099315 0.489206,1.588439 0.159395,-0.0049 0.0375,-0.256214 0.06777,-0.351257 -0.03765,-0.894179 -0.323516,-1.807382 -0.152391,-2.693415 0.177772,-0.2457 0.565652,-0.02208 0.729181,-0.253212 -0.02672,-0.286652 -0.418573,-0.259174 -0.598917,-0.420047 -0.507772,-0.323857 -0.683516,-0.931275 -0.842038,-1.474194 -0.08046,-0.181475 -0.217715,-0.394217 -0.443934,-0.38181 z m -0.0237,0.981654 c 0.379975,0.176996 0.31664,0.867649 -0.123875,0.905736 -0.168949,0.03961 -0.507555,0.07388 -0.505501,-0.175258 0.08727,-0.301197 0.276127,-0.725552 0.629376,-0.730478 z"
           id="path1244"
           inkscape:connector-curvature="0" />
      </g>
      <g
         transform="translate(10.474147,0.40285181)"
         id="g704">
        <path
           style="fill:#000000;stroke-width:0.26458332"
           d="m 130.81955,181.43067 c 0.0127,-0.30822 0.0754,-0.37092 0.15985,-0.15985 0.0764,0.191 0.067,0.4192 -0.0209,0.50712 -0.0879,0.0879 -0.15045,-0.0684 -0.13897,-0.34727 z"
           id="path72"
           inkscape:connector-curvature="0" />
        <text
           xml:space="preserve"
           style="font-style:normal;font-weight:normal;font-size:2.33307028px;line-height:1.25;font-family:sans-serif;letter-spacing:0px;word-spacing:0px;fill:#f6f6f6;fill-opacity:1;stroke:none;stroke-width:0.05832675"
           x="127.0453"
           y="198.95381"
           id="text995"><tspan
             sodipodi:role="line"
             id="tspan993"
             x="127.0453"
             y="198.95381"
             style="font-style:normal;font-variant:normal;font-weight:normal;font-stretch:normal;font-family:Lato;-inkscape-font-specification:Lato;fill:#f6f6f6;fill-opacity:1;stroke-width:0.05832675">2018</tspan></text>
        <g
           id="g1007"
           transform="matrix(0.25919195,0,0,0.25919195,30.152288,201.88704)"
           style="fill:#f6f6f6;fill-opacity:1">
          <path
             inkscape:connector-curvature="0"
             style="font-style:normal;font-variant:normal;font-weight:normal;font-stretch:normal;font-size:medium;line-height:1.25;font-family:Lato;-inkscape-font-specification:Lato;letter-spacing:0px;word-spacing:0px;fill:#f6f6f6;fill-opacity:1;stroke:none;stroke-width:0.32730964"
             d="m 351.05377,-16.758884 c -0.11058,-0.336245 -0.44587,-5.668 -0.74508,-11.848325 -0.56206,-11.609631 -0.48649,-12.337662 1.24625,-12.005931 0.77655,0.148711 0.88979,0.880356 1.2038,7.778283 0.19063,4.187801 0.29454,9.585931 0.23089,11.995839 -0.0992,3.754541 -0.23159,4.403828 -0.92525,4.536571 -0.44524,0.08517 -0.90001,-0.12025 -1.01061,-0.456437 z"
             id="path997" />
          <path
             inkscape:connector-curvature="0"
             style="font-style:normal;font-variant:normal;font-weight:normal;font-stretch:normal;font-size:medium;line-height:1.25;font-family:Lato;-inkscape-font-specification:Lato;letter-spacing:0px;word-spacing:0px;fill:#f6f6f6;fill-opacity:1;stroke:none;stroke-width:0.32730964"
             d="m 360.62594,-16.677394 c -2.77618,-0.987066 -6.35417,-3.31775 -6.77438,-4.412797 -0.71992,-1.876078 1.3003,-2.139956 3.327,-0.434596 1.9009,1.599493 5.09443,2.977809 6.92761,2.989923 2.48025,0.01568 1.65547,-1.358546 -2.00129,-3.336193 -4.07935,-2.206192 -5.30576,-3.554877 -5.30576,-5.834715 0,-2.423119 1.55601,-3.812294 4.59749,-4.104533 2.98139,-0.28648 5.2018,0.565664 5.00816,1.922048 -0.12612,0.883351 -0.39492,0.961337 -2.90969,0.844131 -3.46307,-0.161443 -4.18987,0.249521 -3.60545,2.038322 0.33549,1.02688 1.1992,1.703132 3.85543,3.01867 3.95311,1.957819 5.0606,3.108176 5.0606,5.256492 0,2.939406 -3.33371,3.776235 -8.17972,2.053248 z"
             id="path999" />
          <path
             inkscape:connector-curvature="0"
             style="font-style:normal;font-variant:normal;font-weight:normal;font-stretch:normal;font-size:medium;line-height:1.25;font-family:Lato;-inkscape-font-specification:Lato;letter-spacing:0px;word-spacing:0px;fill:#f6f6f6;fill-opacity:1;stroke:none;stroke-width:0.32730964"
             d="m 339.53312,-18.151239 c -1.15619,-11.202471 -1.29153,-13.402375 -0.85159,-13.84231 0.85529,-0.855288 2.17345,-0.180941 2.67637,1.369206 l 0.49051,1.511927 0.89486,-1.005533 c 1.06848,-1.200659 4.17566,-2.697939 5.62819,-2.712107 0.79791,-0.0066 1.03903,0.252738 1.03903,1.122706 0,0.892519 -0.42542,1.321058 -2.00516,2.019854 -3.45166,1.526829 -5.57897,5.911183 -5.30421,10.931876 0.14793,2.703336 0.12163,2.7742 -1.08168,2.913323 -1.17341,0.135607 -1.24558,0.02352 -1.48632,-2.308942 z"
             id="path1001" />
          <path
             inkscape:connector-curvature="0"
             id="path1003"
             style="font-style:normal;font-variant:normal;font-weight:normal;font-stretch:normal;font-size:medium;line-height:1.25;font-family:Lato;-inkscape-font-specification:Lato;letter-spacing:0px;word-spacing:0px;fill:#f6f6f6;fill-opacity:1;stroke:none;stroke-width:0.32730964"
             d="m 336.07558,-16.378 c -0.37777,-0.455184 -0.50447,-2.817637 -0.41565,-7.750352 0.12579,-6.985732 0.14402,-7.097904 1.17811,-7.244643 l 1.05034,-0.149049 -0.12677,7.730556 c -0.12608,7.689059 -0.41242,8.948098 -1.68603,7.413488 z m -1.0127,-17.655387 c -0.7721,-0.93032 -0.0578,-2.208494 1.35127,-2.418077 1.21709,-0.181024 1.70792,0.884078 1.00911,2.189805 -0.61253,1.144548 -1.52658,1.232931 -2.36038,0.228272 z" />
          <path
             inkscape:connector-curvature="0"
             id="path1005"
             style="font-style:normal;font-variant:normal;font-weight:normal;font-stretch:normal;font-size:medium;line-height:1.25;font-family:Lato;-inkscape-font-specification:Lato;letter-spacing:0px;word-spacing:0px;fill:#f6f6f6;fill-opacity:1;stroke:none;stroke-width:0.32730964"
             d="m 323.65302,-4.4663213 c -1.42547,-0.998445 -1.36465,-2.513672 0.1009,-2.513672 0.61997,0 1.25565,0.207808 1.41262,0.461801 0.55804,0.902925 3.71084,0.518771 4.73754,-0.577233 1.57123,-1.67733 1.95841,-3.3493957 1.95841,-8.4577277 0,-5.009355 -0.37512,-5.833469 -1.58782,-3.488369 -0.9534,1.843666 -3.33879,3.749318 -4.6932,3.749318 -1.50583,0 -2.03119,-1.479109 -2.03119,-5.718614 0,-6.378538 2.10918,-10.263966 5.83629,-10.751216 0.98078,-0.128279 2.32195,-0.02533 2.98039,0.228834 1.18936,0.458938 1.19981,0.508052 1.60625,7.543343 0.75064,12.993523 0.28292,16.0852537 -2.84945,18.8355157 -1.35002,1.185315 -1.98362,1.406895 -4.02338,1.406895 -1.44382,0 -2.83528,-0.290171 -3.44735,-0.718875 z m 4.52057,-15.5592297 c 0.82631,-1.3547 1.694,-3.863743 2.55517,-7.388626 0.27476,-1.124595 0.18062,-1.269914 -0.8227,-1.269914 -2.20592,0 -3.99057,3.42828 -4.02658,7.734978 -0.0243,2.904988 0.86674,3.263711 2.29411,0.923562 z" />
        </g>
        <g
           transform="matrix(0.25919195,0,0,0.25919195,52.05934,195.25036)"
           id="g1021"
           style="fill:#f6f6f6;fill-opacity:1">
          <path
             style="fill:#f6f6f6;fill-opacity:1;stroke-width:0.18022703"
             inkscape:connector-curvature="0"
             d="m 242.93632,-39.066299 h 4.30238 v 19.914366 c -2.20706,0.419028 -3.82748,0.586639 -5.5874,0.586639 -5.25235,-1.8e-4 -7.99018,-2.374491 -7.99018,-6.928468 0,-4.386185 2.90562,-7.235574 7.40337,-7.235574 0.69838,0 1.22914,0.05569 1.87183,0.223301 z m 0,10.024227 c -0.50283,-0.167431 -0.92186,-0.223301 -1.45263,-0.223301 -2.17912,0 -3.43639,1.341069 -3.43639,3.687625 0,2.291046 1.2014,3.54813 3.40846,3.54813 0.47472,0 0.86599,-0.02794 1.48056,-0.111561 z"
             id="path1009" />
          <path
             style="fill:#f6f6f6;fill-opacity:1;stroke-width:0.18022703"
             inkscape:connector-curvature="0"
             d="m 254.083,-32.42223 v 9.973404 c 0,3.436389 -0.25141,5.084565 -1.00566,6.50944 -0.69856,1.369184 -1.6206,2.234995 -3.5202,3.184972 l -3.99509,-1.899773 c 1.89977,-0.893926 2.82164,-1.675931 3.40827,-2.877685 0.61476,-1.229149 0.81049,-2.654024 0.81049,-6.397519 v -8.492839 z m -4.30219,-6.62118 h 4.30219 v 4.41412 h -4.30219 z"
             id="path1011" />
          <path
             style="fill:#f6f6f6;fill-opacity:1;stroke-width:0.18022703"
             inkscape:connector-curvature="0"
             d="m 256.6817,-31.444498 c 1.89995,-0.893746 3.71574,-1.284838 5.69932,-1.284838 2.20706,0 3.65969,0.586458 4.30238,1.731981 0.36297,0.64251 0.47472,1.480565 0.47472,3.268778 v 8.744075 c -1.92789,0.279352 -4.35825,0.475078 -6.14611,0.475078 -3.60382,0 -5.22442,-1.257624 -5.22442,-4.051143 0,-3.017361 2.15119,-4.41412 7.43148,-4.861264 v -0.949796 c 0,-0.782185 -0.39109,-1.061357 -1.48074,-1.061357 -1.59231,0 -3.38034,0.446963 -5.05681,1.313134 v -3.324648 z m 6.73292,6.844662 c -2.84975,0.279352 -3.77161,0.726495 -3.77161,1.843903 0,0.838056 0.53095,1.229148 1.70423,1.229148 0.64268,0 1.22914,-0.05569 2.06738,-0.195366 z"
             id="path1013" />
          <path
             style="fill:#f6f6f6;fill-opacity:1;stroke-width:0.18022703"
             inkscape:connector-curvature="0"
             d="m 269.25361,-31.751785 c 2.54211,-0.670445 4.63743,-0.977551 6.76068,-0.977551 2.20706,0 3.79955,0.502653 4.74971,1.480565 0.89392,0.921681 1.17309,1.927348 1.17309,4.078898 v 8.436788 h -4.30238 v -8.269177 c 0,-1.648176 -0.5587,-2.263111 -2.09514,-2.263111 -0.58663,0 -1.1174,0.05587 -1.98375,0.307287 v 10.225001 h -4.30221 z"
             id="path1015" />
          <path
             style="fill:#f6f6f6;fill-opacity:1;stroke-width:0.18022703"
             inkscape:connector-curvature="0"
             d="m 283.6096,-16.386169 c 1.50886,0.782185 3.01736,1.145162 4.60967,1.145162 2.82145,0 4.02284,-1.145162 4.02284,-3.883171 0,-0.02793 0,-0.05587 0,-0.08381 -0.83805,0.418848 -1.67629,0.586639 -2.79351,0.586639 -3.77162,0 -6.17458,-2.486412 -6.17458,-6.425454 0,-4.889379 3.54831,-7.654782 9.83391,-7.654782 1.84408,0 3.54831,0.195366 5.61569,0.614394 l -1.47318,3.103329 c -1.14552,-0.223482 -0.0917,-0.02992 -0.95736,-0.113724 v 0.447144 l 0.0557,1.815607 0.0277,2.346916 c 0.0279,0.586459 0.0279,1.173278 0.056,1.759917 0,0.530769 0,0.782366 0,1.173458 0,3.687806 -0.30728,5.419788 -1.22914,6.844482 -1.34107,2.0955 -3.65988,3.129102 -6.95641,3.129102 -1.67629,0 -3.12874,-0.251417 -4.6376,-0.838236 v -3.966977 z m 8.54889,-12.851269 c -0.0559,0 -0.11156,0 -0.1395,0 h -0.30746 c -0.83788,-0.02793 -1.81561,0.195366 -2.48642,0.614394 -1.03342,0.586819 -1.56455,1.648537 -1.56455,3.157037 0,2.15137 1.0619,3.380519 2.96149,3.380519 0.58664,0 1.06172,-0.111921 1.62025,-0.279352 v -0.307468 -1.173097 c 0,-0.502834 -0.0278,-1.061898 -0.0278,-1.648357 l -0.0277,-1.983398 -0.0281,-1.424875 v -0.335403 z"
             id="path1017" />
          <path
             style="fill:#f6f6f6;fill-opacity:1;stroke-width:0.18022703"
             inkscape:connector-curvature="0"
             d="m 305.40265,-32.785387 c 4.3022,0 6.92847,2.710074 6.92847,7.096079 0,4.498106 -2.73765,7.31974 -7.09608,7.31974 -4.30256,0 -6.95658,-2.710073 -6.95658,-7.068143 1.8e-4,-4.526222 2.73819,-7.347676 7.12419,-7.347676 z m -0.0842,10.951315 c 1.64853,0 2.62645,-1.369004 2.62645,-3.743676 0,-2.346556 -0.94998,-3.743495 -2.59798,-3.743495 -1.7044,0 -2.6825,1.369184 -2.6825,3.743495 1.8e-4,2.374852 0.9781,3.743676 2.65403,3.743676 z"
             id="path1019" />
        </g>
        <text
           xml:space="preserve"
           style="font-style:normal;font-weight:normal;font-size:4.40913868px;line-height:1.25;font-family:sans-serif;letter-spacing:0px;word-spacing:0px;fill:#f6f6f6;fill-opacity:1;stroke:none;stroke-width:0.11022842"
           x="126.68993"
           y="196.43805"
           id="text1025"><tspan
             sodipodi:role="line"
             id="tspan1023"
             x="126.68993"
             y="196.43805"
             style="font-style:normal;font-variant:normal;font-weight:normal;font-stretch:normal;font-family:Lato;-inkscape-font-specification:Lato;fill:#f6f6f6;fill-opacity:1;stroke-width:0.11022842">DF</tspan></text>
      </g>
    </g>
  </g>
</svg>
