<?xml version="1.0" encoding="UTF-8" standalone="no"?>
<!-- Generator: Adobe Illustrator 18.0.0, SVG Export Plug-In . SVG Version: 6.00 Build 0)  -->

<svg
   xmlns:dc="http://purl.org/dc/elements/1.1/"
   xmlns:cc="http://creativecommons.org/ns#"
   xmlns:rdf="http://www.w3.org/1999/02/22-rdf-syntax-ns#"
   xmlns:svg="http://www.w3.org/2000/svg"
   xmlns="http://www.w3.org/2000/svg"
   xmlns:sodipodi="http://sodipodi.sourceforge.net/DTD/sodipodi-0.dtd"
   xmlns:inkscape="http://www.inkscape.org/namespaces/inkscape"
   version="1.1"
   id="Layer_1"
   x="0px"
   y="0px"
   viewBox="0 0 841.9 1190.6"
   enable-background="new 0 0 841.9 1190.6"
   xml:space="preserve"
   sodipodi:docname="bugs-skills-poney.svg"
   inkscape:version="0.92.3 (unknown)"><metadata
   id="metadata47"><rdf:RDF><cc:Work
       rdf:about=""><dc:format>image/svg+xml</dc:format><dc:type
         rdf:resource="http://purl.org/dc/dcmitype/StillImage" /><dc:title></dc:title></cc:Work></rdf:RDF></metadata><defs
   id="defs45" /><sodipodi:namedview
   pagecolor="#ffffff"
   bordercolor="#666666"
   borderopacity="1"
   objecttolerance="10"
   gridtolerance="10"
   guidetolerance="10"
   inkscape:pageopacity="0"
   inkscape:pageshadow="2"
   inkscape:window-width="1325"
   inkscape:window-height="713"
   id="namedview43"
   showgrid="false"
   inkscape:snap-page="true"
   inkscape:zoom="0.44674306"
   inkscape:cx="429.35001"
   inkscape:cy="595.29999"
   inkscape:window-x="41"
   inkscape:window-y="27"
   inkscape:window-maximized="1"
   inkscape:current-layer="Layer_1" />
<rect
   x="0"
   y="-3.9858609e-14"
   stroke-miterlimit="10"
   width="858.70001"
   height="1190.6"
   id="rect2"
   style="fill:#f69420;stroke:#000000;stroke-width:0.24114385;stroke-miterlimit:10" />
<text
   transform="translate(60.6418,305.0161)"
   id="text8"><tspan
     x="0"
     y="0"
     font-size="120"
     id="tspan4"
     style="font-style:normal;font-variant:normal;font-weight:normal;font-stretch:normal;font-size:120px;font-family:Lato;-inkscape-font-specification:Lato;fill:#ffffff"><tspan
   style="font-style:normal;font-variant:normal;font-weight:bold;font-stretch:normal;font-family:Lato;-inkscape-font-specification:'Lato Bold'"
   id="tspan146">Bugs</tspan></tspan><tspan
     x="0"
     y="0"
     font-size="120"
     style="font-style:normal;font-variant:normal;font-weight:normal;font-stretch:normal;font-size:120px;font-family:Lato;-inkscape-font-specification:Lato;fill:#ffffff"
     id="tspan152" /></text>
<text
   id="text148"
   x="64.001801"
   y="430.3678"><tspan
     x="64.001801"
     y="430.3678"
     font-size="120"
     style="font-style:normal;font-variant:normal;font-weight:normal;font-stretch:normal;font-size:120px;font-family:Lato;-inkscape-font-specification:Lato;fill:#ffffff"
     id="tspan150">Vêm e vão</tspan></text>

<text
   id="text14"
   transform="translate(66.3811,705.2696)"><tspan
     x="0"
     y="0"
     font-size="120"
     id="tspan10"
     style="font-style:normal;font-variant:normal;font-weight:bold;font-stretch:normal;font-size:120px;font-family:Lato;-inkscape-font-specification:'Lato Bold';fill:#ffffff">Habilidades</tspan></text>

<g
   id="g40">
	<rect
   x="-16.7"
   y="1091.2"
   width="875.4"
   height="109"
   id="rect16"
   fill="#FFFFFF"
   opacity="0.14" />
	<g
   id="g36">
		<g
   id="g32">
			<g
   id="g30">
				<path
   fill="#FFFFFF"
   d="M48.8,1112.7h8.5v39.5c-4.4,0.8-7.6,1.2-11.1,1.2c-10.4,0-15.8-4.7-15.8-13.7c0-8.7,5.8-14.4,14.7-14.4      c1.4,0,2.4,0.1,3.7,0.4L48.8,1112.7L48.8,1112.7z M48.8,1132.5c-1-0.3-1.8-0.4-2.9-0.4c-4.3,0-6.8,2.7-6.8,7.3      c0,4.5,2.4,7,6.8,7c0.9,0,1.7-0.1,2.9-0.2L48.8,1132.5z"
   id="path18" />
				<path
   fill="#FFFFFF"
   d="M70.9,1125.8v19.8c0,6.8-0.5,10.1-2,12.9c-1.4,2.7-3.2,4.4-7,6.3l-7.9-3.8c3.8-1.8,5.6-3.3,6.8-5.7      c1.2-2.4,1.6-5.3,1.6-12.7v-16.8H70.9z M62.4,1112.7h8.5v8.8h-8.5V1112.7z"
   id="path20" />
				<path
   fill="#FFFFFF"
   d="M76.1,1127.8c3.8-1.8,7.4-2.5,11.3-2.5c4.4,0,7.3,1.2,8.5,3.4c0.7,1.3,0.9,2.9,0.9,6.5v17.3      c-3.8,0.6-8.6,0.9-12.2,0.9c-7.1,0-10.4-2.5-10.4-8c0-6,4.3-8.8,14.7-9.6v-1.9c0-1.6-0.8-2.1-2.9-2.1c-3.2,0-6.7,0.9-10,2.6      L76.1,1127.8L76.1,1127.8z M89.5,1141.4c-5.7,0.6-7.5,1.4-7.5,3.7c0,1.7,1.1,2.4,3.4,2.4c1.3,0,2.4-0.1,4.1-0.4V1141.4      L89.5,1141.4z"
   id="path22" />
				<path
   fill="#FFFFFF"
   d="M101,1127.2c5-1.3,9.2-1.9,13.4-1.9c4.4,0,7.5,1,9.4,2.9c1.8,1.8,2.3,3.8,2.3,8.1v16.7h-8.5v-16.4      c0-3.3-1.1-4.5-4.2-4.5c-1.2,0-2.2,0.1-3.9,0.6v20.3H101L101,1127.2L101,1127.2z"
   id="path24" />
				<path
   fill="#FFFFFF"
   d="M129.5,1157.6c3,1.6,6,2.3,9.1,2.3c5.6,0,8-2.3,8-7.7c0-0.1,0-0.1,0-0.2c-1.7,0.8-3.3,1.2-5.5,1.2      c-7.5,0-12.2-4.9-12.2-12.7c0-9.7,7-15.2,19.5-15.2c3.7,0,7,0.4,11.1,1.2l-2.9,6.2c-2.3-0.4-0.2-0.1-1.9-0.2v0.9l0.1,3.6      l0.1,4.7c0.1,1.2,0.1,2.3,0.1,3.5c0,1.1,0,1.6,0,2.3c0,7.3-0.6,10.8-2.4,13.6c-2.7,4.2-7.3,6.2-13.8,6.2c-3.3,0-6.2-0.5-9.2-1.7      L129.5,1157.6L129.5,1157.6z M146.5,1132.2c-0.1,0-0.2,0-0.3,0h-0.6c-1.7-0.1-3.6,0.4-4.9,1.2c-2,1.2-3.1,3.3-3.1,6.3      c0,4.3,2.1,6.7,5.9,6.7c1.2,0,2.1-0.2,3.2-0.6v-0.6v-2.3c0-1-0.1-2.1-0.1-3.3l-0.1-3.9l-0.1-2.8L146.5,1132.2L146.5,1132.2z"
   id="path26" />
				<path
   fill="#FFFFFF"
   d="M172.7,1125.1c8.5,0,13.7,5.4,13.7,14.1c0,8.9-5.4,14.5-14.1,14.5c-8.5,0-13.8-5.4-13.8-14      C158.6,1130.7,164,1125.1,172.7,1125.1z M172.6,1146.8c3.3,0,5.2-2.7,5.2-7.4c0-4.7-1.9-7.4-5.2-7.4c-3.4,0-5.3,2.7-5.3,7.4      C167.3,1144.1,169.2,1146.8,172.6,1146.8z"
   id="path28" />
			</g>
		</g>
		<text
   transform="matrix(1 0 0 1 196.3303 1152.4237)"
   fill="#FFFFFF"
   font-family="'JustTheWayYouAre'"
   font-size="52.1911"
   id="text34">girls</text>

	</g>
	<text
   font-size="28"
   id="text38"
   style="font-size:28px;font-family:Lato-Regular;fill:#ffffff"
   x="475.45752"
   y="1150.0228">DF, 11 de agosto de 2018</text>

</g>
<text
   y="835.5224"
   x="64.001801"
   id="text160"><tspan
     id="tspan158"
     style="font-style:normal;font-variant:normal;font-weight:normal;font-stretch:normal;font-size:120px;font-family:Lato;-inkscape-font-specification:Lato;fill:#ffffff"
     font-size="120"
     y="835.5224"
     x="64.001801">Permanecem</tspan></text>
</svg>