<?xml version="1.0" encoding="UTF-8" standalone="no"?>
<!-- Created with Inkscape (http://www.inkscape.org/) -->

<svg
   xmlns:dc="http://purl.org/dc/elements/1.1/"
   xmlns:cc="http://creativecommons.org/ns#"
   xmlns:rdf="http://www.w3.org/1999/02/22-rdf-syntax-ns#"
   xmlns:svg="http://www.w3.org/2000/svg"
   xmlns="http://www.w3.org/2000/svg"
   xmlns:sodipodi="http://sodipodi.sourceforge.net/DTD/sodipodi-0.dtd"
   xmlns:inkscape="http://www.inkscape.org/namespaces/inkscape"
   width="210mm"
   height="297mm"
   viewBox="0 0 210 297"
   version="1.1"
   id="svg351"
   inkscape:version="0.92.3 (unknown)"
   sodipodi:docname="djangogirls_inscricao.svg">
  <defs
     id="defs345" />
  <sodipodi:namedview
     id="base"
     pagecolor="#ffffff"
     bordercolor="#666666"
     borderopacity="1.0"
     inkscape:pageopacity="0.0"
     inkscape:pageshadow="2"
     inkscape:zoom="0.45742749"
     inkscape:cx="-1017.1428"
     inkscape:cy="900.00001"
     inkscape:document-units="mm"
     inkscape:current-layer="layer1"
     showgrid="false"
     inkscape:window-width="1325"
     inkscape:window-height="713"
     inkscape:window-x="41"
     inkscape:window-y="27"
     inkscape:window-maximized="1" />
  <metadata
     id="metadata348">
    <rdf:RDF>
      <cc:Work
         rdf:about="">
        <dc:format>image/svg+xml</dc:format>
        <dc:type
           rdf:resource="http://purl.org/dc/dcmitype/StillImage" />
        <dc:title></dc:title>
      </cc:Work>
    </rdf:RDF>
  </metadata>
  <g
     inkscape:label="Layer 1"
     inkscape:groupmode="layer"
     id="layer1">
    <rect
       inkscape:export-ydpi="180"
       inkscape:export-xdpi="180"
       ry="0.048757415"
       rx="0.048757415"
       y="6.9393692"
       x="-478.22241"
       height="187.47618"
       width="187.47618"
       id="rect1970"
       style="fill:#fff8f0;fill-opacity:1;fill-rule:evenodd;stroke:none;stroke-width:1.82268512;stroke-linecap:square;stroke-linejoin:round;stroke-miterlimit:4;stroke-dasharray:none;stroke-opacity:1"
       inkscape:export-filename="/home/brunamoreira/Drawings/export/inscricao.png" />
    <g
       id="g1980"
       transform="translate(-481.34416,-24.79695)">
      <path
         id="path1972"
         style="fill:#f3951b;fill-opacity:1;stroke-width:0.46178973"
         d="m 132.60915,51.185777 c -0.36695,-0.366941 -1.16092,0.466059 -0.87901,0.922208 0.19175,0.310269 0.42975,0.263037 0.67511,-0.134047 0.20843,-0.337252 0.30018,-0.691939 0.2039,-0.788227 z m -1.65401,1.494977 c -0.7721,-0.93032 -0.0578,-2.208494 1.35127,-2.418077 1.21709,-0.181024 1.70792,0.884078 1.00911,2.189805 -0.61253,1.144548 -1.52658,1.232931 -2.36038,0.228272 z m 16.88812,5.371321 c -0.216,-7.0538 -0.51271,-11.104995 -0.81333,-11.104995 -0.31178,0 -0.3744,1.693891 -0.18354,4.964253 0.15934,2.730318 0.42716,7.825754 0.59515,11.323167 0.168,3.497396 0.40363,6.260737 0.52362,6.140742 0.11999,-0.119904 0.0651,-5.215414 -0.1219,-11.323167 z m -0.89723,11.903182 c -0.11058,-0.336245 -0.44587,-5.668 -0.74508,-11.848325 -0.56206,-11.609631 -0.48649,-12.337662 1.24625,-12.005931 0.77655,0.148711 0.88979,0.880356 1.2038,7.778283 0.19063,4.187801 0.29454,9.585931 0.23089,11.995839 -0.0992,3.754541 -0.23159,4.403828 -0.92525,4.536571 -0.44524,0.08517 -0.90001,-0.12025 -1.01061,-0.456437 z m 15.93509,-0.396721 c 1.13399,-0.60689 1.18343,-2.813148 0.0851,-3.79712 -0.44448,-0.398206 -2.22075,-1.396503 -3.94727,-2.218495 -3.42412,-1.630189 -4.4804,-2.73253 -4.4804,-4.675801 0,-1.642393 1.39343,-2.397201 4.35187,-2.35737 1.75321,0.02352 2.08418,-0.07559 1.44561,-0.432847 -1.17345,-0.656704 -4.74234,-0.156211 -5.81622,0.815614 -1.24307,1.124967 -1.15372,3.239575 0.19382,4.587121 0.60427,0.604257 2.36638,1.738598 3.91582,2.520752 4.74885,2.397217 5.55625,5.116594 1.51662,5.108094 -2.12153,-0.005 -6.55063,-1.677033 -7.19292,-2.716282 -0.44542,-0.720712 -2.10892,-1.549834 -2.10892,-1.05114 0,0.720374 3.81734,2.982785 6.46506,3.831595 2.96671,0.951097 4.33825,1.046074 5.57184,0.385879 z m -6.36292,0.478213 c -2.77618,-0.987066 -6.35417,-3.31775 -6.77438,-4.412797 -0.71992,-1.876078 1.3003,-2.139956 3.327,-0.434596 1.9009,1.599493 5.09443,2.977809 6.92761,2.989923 2.48025,0.01568 1.65547,-1.358546 -2.00129,-3.336193 -4.07935,-2.206192 -5.30576,-3.554877 -5.30576,-5.834715 0,-2.423119 1.55601,-3.812294 4.59749,-4.104533 2.98139,-0.28648 5.2018,0.565664 5.00816,1.922048 -0.12612,0.883351 -0.39492,0.961337 -2.90969,0.844131 -3.46307,-0.161443 -4.18987,0.249521 -3.60545,2.038322 0.33549,1.02688 1.1992,1.703132 3.85543,3.01867 3.95311,1.957819 5.0606,3.108176 5.0606,5.256492 0,2.939406 -3.33371,3.776235 -8.17972,2.053248 z m -18.13185,-9.402885 c 1.03271,-2.18053 4.01891,-4.91277 5.36942,-4.91277 0.34287,0 0.6234,-0.221812 0.6234,-0.492919 0,-1.172265 -4.24531,0.949942 -5.62013,2.809485 -1.35014,1.826156 -2.22842,1.777842 -2.23737,-0.123049 -0.007,-1.583896 -0.66849,-3.057238 -1.1539,-2.571837 -0.25698,0.257004 0.15257,5.170138 1.0324,12.384877 l 0.30973,2.53983 0.30661,-3.694304 c 0.19585,-2.359673 0.69073,-4.505356 1.36984,-5.939296 z m -2.96097,7.92904 c -1.15619,-11.202471 -1.29153,-13.402375 -0.85159,-13.84231 0.85529,-0.855288 2.17345,-0.180941 2.67637,1.369206 l 0.49051,1.511927 0.89486,-1.005533 c 1.06848,-1.200659 4.17566,-2.697939 5.62819,-2.712107 0.79791,-0.0066 1.03903,0.252738 1.03903,1.122706 0,0.892519 -0.42542,1.321058 -2.00516,2.019854 -3.45166,1.526829 -5.57897,5.911183 -5.30421,10.931876 0.14793,2.703336 0.12163,2.7742 -1.08168,2.913323 -1.17341,0.135607 -1.24558,0.02352 -1.48632,-2.308942 z m -2.70911,-9.010925 c -0.0868,-1.979999 -0.1583,-0.482909 -0.15895,3.326852 -6.5e-4,3.809761 0.0704,5.429759 0.15776,3.599988 0.0874,-1.829786 0.088,-4.946866 8.2e-4,-6.92684 z m -0.74843,10.784164 c -0.37777,-0.455184 -0.50447,-2.817637 -0.41565,-7.750352 0.12579,-6.985732 0.14402,-7.097904 1.17811,-7.244643 l 1.05034,-0.149049 -0.12677,7.730556 c -0.12608,7.689059 -0.41242,8.948098 -1.68603,7.413488 z m -7.90199,-3.647551 c 0.82631,-1.3547 1.694,-3.863743 2.55517,-7.388626 0.27476,-1.124595 0.18062,-1.269914 -0.8227,-1.269914 -2.20592,0 -3.99057,3.42828 -4.02658,7.734978 -0.0243,2.904988 0.86674,3.263711 2.29411,0.923562 z m 5.04065,1.269931 c -0.21839,-2.539846 -0.40408,-6.204164 -0.41263,-8.142913 -0.0143,-3.258892 -0.094,-3.54604 -1.05458,-3.803457 -4.4901,-1.2033 -7.27318,2.671599 -7.27318,10.126485 0,4.66882 1.28924,5.481332 3.93037,2.476978 l 0.91841,-1.044729 -1.4815,1.074517 c -2.08959,1.51554 -2.90635,0.754189 -2.90292,-2.706034 0.005,-5.273919 1.98027,-8.832905 4.90176,-8.832905 1.01569,0 1.68974,0.260669 1.86673,0.721909 0.30363,0.791255 -0.98102,6.081834 -2.01125,8.282985 -0.60357,1.289562 -0.59758,1.321504 0.0867,0.461801 0.4043,-0.507969 0.8525,-1.391147 0.996,-1.962613 0.3789,-1.508989 1.38394,-1.272795 1.71931,0.404065 0.15875,0.793698 0.31464,3.754921 0.34642,6.580504 0.0453,4.023699 0.13472,4.686914 0.41262,3.059366 0.19517,-1.142947 0.17616,-4.156113 -0.0422,-6.695959 z m -2.62897,12.646782 1.5081,-1.437777 -1.58368,1.246802 c -1.27975,1.007538 -1.9444,1.209909 -3.46341,1.05454 -1.03386,-0.10577 -2.29536,-0.348458 -2.80333,-0.539384 -0.9103,-0.342153 -0.9107,-0.336641 -0.0272,0.38323 0.50732,0.413365 1.75689,0.730391 2.8789,0.730391 1.58808,0 2.28256,-0.286058 3.49061,-1.437802 z m -6.93225,1.642517 c -1.42547,-0.998445 -1.36465,-2.513672 0.1009,-2.513672 0.61997,0 1.25565,0.207808 1.41262,0.461801 0.55804,0.902925 3.71084,0.518771 4.73754,-0.577233 1.57123,-1.67733 1.95841,-3.349396 1.95841,-8.457728 0,-5.009355 -0.37512,-5.833469 -1.58782,-3.488369 -0.9534,1.843666 -3.33879,3.749318 -4.6932,3.749318 -1.50583,0 -2.03119,-1.479109 -2.03119,-5.718614 0,-6.378538 2.10918,-10.263966 5.83629,-10.751216 0.98078,-0.128279 2.32195,-0.02533 2.98039,0.228834 1.18936,0.458938 1.19981,0.508052 1.60625,7.543343 0.75064,12.993523 0.28292,16.085254 -2.84945,18.835516 -1.35002,1.185315 -1.98362,1.406895 -4.02338,1.406895 -1.44382,0 -2.83528,-0.290171 -3.44735,-0.718875 z"
         inkscape:connector-curvature="0" />
      <path
         id="path1974"
         style="fill:#f3951b;fill-opacity:1;stroke-width:0.54091525"
         d="m 51.08946,51.588916 c 0,-1.803061 -0.09016,-1.89322 -1.893205,-1.89322 -1.80305,0 -1.893202,0.09016 -1.893202,1.89322 0,1.803042 0.09016,1.893202 1.893202,1.893202 1.803052,0 1.893205,-0.09018 1.893205,-1.893202 z m -4.63934,2.2504 c -0.165536,-0.43139 -0.223914,-1.722739 -0.129718,-2.86967 l 0.17128,-2.085313 h 2.704575 2.704577 v 2.704583 2.704562 l -2.574866,0.165193 c -1.864842,0.119591 -2.65786,-0.05113 -2.875847,-0.619278 z m 25.618727,11.137242 0.154148,-5.544376 h 2.134431 c 2.519469,0 2.625282,0.252811 2.830186,6.761454 l 0.13624,4.327306 1.757975,0.169484 1.757975,0.169485 v -5.738468 c 0,-5.371479 -0.08492,-5.823379 -1.327703,-7.066167 -1.110645,-1.110652 -1.851235,-1.32771 -4.530166,-1.32771 -1.761355,0 -3.963123,0.152106 -4.892821,0.338061 l -1.690361,0.338089 v 6.728097 6.728098 l 1.757975,-0.169485 1.757975,-0.169484 z m -4.391321,6.536063 c -0.198328,-0.198307 -0.36061,-3.591734 -0.36061,-7.540888 0,-5.160539 0.190191,-7.297935 0.676144,-7.598542 0.371881,-0.230039 2.917826,-0.516417 5.657661,-0.636385 4.960932,-0.217261 4.988378,-0.211288 6.643585,1.443927 l 1.662076,1.662067 -0.152615,6.379986 -0.152594,6.379994 -2.066183,0.170094 c -3.232076,0.26612 -3.613427,-0.386755 -3.613427,-6.186424 0,-5.050024 -0.0059,-5.072477 -1.35229,-5.072477 -1.345504,0 -1.352287,0.02513 -1.352287,5.030519 0,3.191399 -0.237304,5.267816 -0.649098,5.679605 -0.686816,0.686819 -4.32933,0.899518 -4.94036,0.288485 z m -6.94331,-5.242193 c 0.15707,-0.815642 -0.03474,-0.923112 -1.075622,-0.602759 -1.625754,0.500373 -1.721827,0.601058 -1.270511,1.331295 0.556481,0.900398 2.126303,0.412929 2.346133,-0.728536 z m -3.018545,2.011649 c -0.371879,-0.157016 -0.676144,-0.879666 -0.676144,-1.605998 0,-1.367879 1.63501,-2.375661 3.854272,-2.375661 0.916392,0 1.053933,0.306125 0.911389,2.028438 -0.151285,1.82784 -0.328353,2.038818 -1.790627,2.13354 -0.892509,0.05789 -1.927011,-0.02329 -2.29889,-0.180319 z m 6.266391,2.156418 c 1.240417,-0.332135 1.259696,-0.443655 1.081829,-6.257736 -0.210032,-6.865511 -0.592199,-7.453154 -4.847045,-7.453154 -3.479003,0 -5.340981,0.769799 -5.340981,2.208149 0,0.83097 0.239878,1.061047 0.858659,0.823586 2.338071,-0.897199 4.891031,-0.949904 5.583714,-0.115299 1.128985,1.360349 0.28171,2.442632 -2.226172,2.843644 -2.627734,0.420207 -5.29803,2.688387 -5.29803,4.50026 0,0.631417 0.597465,1.745491 1.3277,2.475718 1.106615,1.106611 1.849715,1.326462 4.462551,1.320316 1.724167,-0.0039 3.703166,-0.159462 4.397775,-0.345523 z m -9.68872,-0.146383 c -3.434036,-3.434023 -1.145111,-7.904503 4.574615,-8.934612 1.489534,-0.268247 1.931017,-0.545878 1.520666,-0.956217 -0.410348,-0.410349 -1.327033,-0.3317 -3.157468,0.270885 -1.418585,0.467027 -2.772269,0.729831 -3.008183,0.584027 -0.235916,-0.145765 -0.428936,-1.20056 -0.428936,-2.34391 0,-1.845392 0.191294,-2.145525 1.703462,-2.672661 2.823595,-0.984314 7.719562,-0.750419 9.190147,0.439045 1.193267,0.965137 1.288812,1.461345 1.457427,7.569004 l 0.180439,6.53616 -1.432717,0.544708 c -0.787992,0.299592 -3.139476,0.544718 -5.225517,0.544718 -3.470825,0 -3.927028,-0.134117 -5.373939,-1.581147 z M 38.648409,63.759527 c 0,-2.672081 -0.15973,-3.245487 -0.90401,-3.245487 -2.670909,0 -3.890617,4.100699 -1.680209,5.648927 2.150849,1.506521 2.584219,1.10347 2.584219,-2.40344 z m -3.505606,3.034548 c -2.802748,-2.80273 -1.014813,-7.361873 2.887077,-7.361873 h 1.745866 l -0.157992,4.192105 c -0.155231,4.118967 -0.183751,4.195064 -1.635156,4.362247 -1.012679,0.11674 -1.90565,-0.25831 -2.839804,-1.192479 z m 6.683481,3.659276 1.690361,-0.33806 V 59.905521 49.695716 H 41.623444 39.73024 v 3.448971 3.448974 l -2.979195,0.24706 c -2.136299,0.177255 -3.356173,0.601202 -4.311623,1.498827 -3.816188,3.585103 -2.61921,10.504355 2.050924,11.855541 2.100017,0.607573 5.067079,0.712047 7.335938,0.258262 z m -7.866034,0.85843 c -5.154972,-1.588957 -6.648667,-9.018006 -2.683181,-13.345118 1.468825,-1.60278 2.217568,-1.963302 4.541001,-2.186556 l 2.78217,-0.267328 0.159321,-3.314222 0.15932,-3.314203 2.839805,-0.163552 2.839804,-0.163553 v 11.085109 c 0,7.851131 -0.18379,11.198695 -0.629953,11.474451 -1.019373,0.630016 -8.146381,0.768774 -10.008273,0.194828 z m 14.675176,4.146524 c 1.880177,-1.88018 2.447638,-4.68261 2.451016,-12.104467 l 0.0031,-6.626213 h -1.893204 -1.893201 l -8.25e-4,6.896682 c -9.08e-4,7.493623 -0.712527,10.08816 -3.086994,11.25516 -1.194076,0.58687 -1.193952,0.587401 0.270458,1.167031 2.224188,0.880381 2.756649,0.804903 4.14975,-0.588193 z m -4.713094,1.514717 c -1.748866,-0.948765 -1.917053,-2.127248 -0.418082,-2.929464 2.004011,-1.072522 2.438628,-2.76085 2.716973,-10.554481 l 0.270457,-7.572832 h 2.704575 2.704577 l 0.165494,7.302373 c 0.187943,8.293084 -0.280641,10.579774 -2.654419,12.95355 -1.817183,1.817189 -3.234927,2.024021 -5.48957,0.800854 z M 108.28232,65.316686 c 0.97845,-2.048165 -0.0367,-4.802646 -1.77004,-4.802646 -0.69709,0 -1.43671,0.273862 -1.6436,0.608617 -0.49641,0.803202 -0.48311,4.492045 0.0191,5.30469 0.6557,1.060952 2.6723,0.401117 3.39451,-1.110661 z m -4.22095,1.913254 c -0.39115,-0.471289 -0.71119,-2.032971 -0.71119,-3.470413 0,-3.203886 0.85075,-4.327325 3.27693,-4.327325 1.61838,0 1.9583,0.248248 2.66902,1.949229 0.89661,2.145893 0.61228,4.605286 -0.68203,5.899601 -1.05945,1.059453 -3.65524,1.030321 -4.55273,-0.05113 z m 6.00556,2.740959 c 2.35339,-1.216992 3.39569,-3.638389 3.10016,-7.202093 -0.20732,-2.499979 -0.52183,-3.223063 -1.96138,-4.509298 -1.43942,-1.286139 -2.189,-1.531883 -4.67244,-1.531883 -2.46383,0 -3.23527,0.24848 -4.61797,1.487518 -3.783657,3.390547 -2.817195,10.563846 1.64293,12.194278 1.61318,0.589711 4.95584,0.364496 6.5087,-0.438522 z M 91.54986,63.581557 c 0.127941,-2.419368 -0.0066,-3.067517 -0.637503,-3.067517 -2.279232,0 -3.530098,4.756339 -1.553145,5.905748 1.587092,0.922745 2.021523,0.359876 2.190648,-2.838231 z m -2.76155,3.904267 c -1.523977,-0.886557 -2.125187,-3.055569 -1.430445,-5.160655 0.66255,-2.007541 1.885024,-2.892967 3.994221,-2.892967 1.364701,0 1.387838,0.06669 1.387838,3.998999 0,3.147556 -0.182171,4.068889 -0.855601,4.327325 -1.188744,0.456163 -1.959887,0.388234 -3.096013,-0.272702 z m 4.349779,9.47644 c 2.596527,-1.66749 3.105701,-3.266548 3.310217,-10.395627 0.1649,-5.748356 0.341815,-6.857296 1.236785,-7.752282 0.574402,-0.574391 0.899425,-1.278899 0.722263,-1.565548 -0.17717,-0.286649 -2.178194,-0.521182 -4.446736,-0.521182 -7.052097,0 -10.416245,2.485615 -10.416245,7.696066 0,4.073887 3.135217,6.783133 7.113495,6.14697 1.906115,-0.304801 2.082056,-0.22828 2.082056,0.905385 0,0.681079 -0.396894,1.804982 -0.881998,2.497572 -0.807684,1.153122 -1.197185,1.241416 -4.622499,1.047875 -3.730805,-0.210814 -3.740082,-0.207809 -3.580543,1.157442 0.119515,1.022772 0.570177,1.46087 1.782693,1.732983 2.202894,0.49437 6.224159,-0.0019 7.700512,-0.949654 z M 85.16712,79.050116 C 83.081918,78.666744 82.462544,77.87428 82.462544,75.589659 v -2.1012 l 3.86664,0.359363 c 3.386552,0.314737 3.957423,0.23521 4.597778,-0.640532 1.080475,-1.47763 0.922324,-1.680026 -1.125865,-1.440912 -2.274236,0.265502 -5.878099,-1.606906 -6.741929,-3.50282 -0.328147,-0.720185 -0.595717,-2.575891 -0.594602,-4.12379 0.0043,-5.807827 3.618366,-8.499801 11.392742,-8.485699 5.106659,0.01025 6.212942,0.41491 5.768339,2.11504 -0.267245,1.021981 -0.09046,0.967091 1.564003,-0.485545 1.66589,-1.462668 2.24005,-1.637778 5.37039,-1.637778 3.2264,0 3.66332,0.144953 5.49552,1.824129 1.82928,1.676411 2.0085,2.107578 2.21334,5.324571 0.40463,6.35446 -2.37666,9.287258 -8.48086,8.942876 -3.15107,-0.177864 -3.60259,-0.361324 -5.21399,-2.119679 -2.040636,-2.226726 -2.772405,-5.324891 -1.95604,-8.281554 0.46964,-1.700884 0.436848,-1.89027 -0.23131,-1.335751 -0.583248,0.484057 -0.77929,2.020261 -0.781551,6.124275 -0.0016,3.012984 -0.24353,6.343933 -0.537485,7.4021 -1.198151,4.312973 -6.102736,6.589311 -11.900544,5.523363 z"
         inkscape:connector-curvature="0" />
      <text
         xml:space="preserve"
         style="font-style:normal;font-weight:normal;font-size:13.09238625px;line-height:1.25;font-family:sans-serif;letter-spacing:0px;word-spacing:0px;fill:#f7941e;fill-opacity:1;stroke:none;stroke-width:0.32730964"
         x="145.13573"
         y="82.37748"
         id="text1978"><tspan
           sodipodi:role="line"
           id="tspan1976"
           x="145.13573"
           y="82.37748"
           style="font-style:normal;font-variant:normal;font-weight:normal;font-stretch:normal;font-family:Lato;-inkscape-font-specification:Lato;fill:#f7941e;fill-opacity:1;stroke-width:0.32730964">DF</tspan></text>
    </g>
    <g
       id="g599">
      <text
         xml:space="preserve"
         style="font-style:normal;font-weight:normal;font-size:10.58333302px;line-height:1.25;font-family:sans-serif;letter-spacing:0px;word-spacing:0px;fill:#6b396c;fill-opacity:1;stroke:none;stroke-width:0.26458332"
         x="-435.60266"
         y="147.09367"
         id="text1984"><tspan
           sodipodi:role="line"
           id="tspan1982"
           x="-435.60266"
           y="147.09367"
           style="font-style:normal;font-variant:normal;font-weight:normal;font-stretch:normal;font-family:Lato;-inkscape-font-specification:Lato;fill:#6b396c;fill-opacity:1;stroke-width:0.26458332">Inscrições* abertas</tspan></text>
      <text
         id="text1988"
         y="159.86761"
         x="-439.15799"
         style="font-style:normal;font-weight:normal;font-size:10.58333302px;line-height:1.25;font-family:sans-serif;letter-spacing:0px;word-spacing:0px;fill:#6b396c;fill-opacity:1;stroke:none;stroke-width:0.26458332"
         xml:space="preserve"><tspan
           style="font-style:normal;font-variant:normal;font-weight:normal;font-stretch:normal;font-family:Lato;-inkscape-font-specification:Lato;fill:#6b396c;fill-opacity:1;stroke-width:0.26458332"
           y="159.86761"
           x="-439.15799"
           id="tspan1986"
           sodipodi:role="line">até o dia 13 de Julho</tspan></text>
      <text
         id="text1992"
         y="170.065"
         x="-423.5372"
         style="font-style:normal;font-weight:normal;font-size:8.29671383px;line-height:1.25;font-family:sans-serif;letter-spacing:0px;word-spacing:0px;fill:#6b396c;fill-opacity:1;stroke:none;stroke-width:0.20741785"
         xml:space="preserve"><tspan
           style="font-style:normal;font-variant:normal;font-weight:normal;font-stretch:normal;font-family:Lato;-inkscape-font-specification:Lato;fill:#6b396c;fill-opacity:1;stroke-width:0.20741785"
           y="170.065"
           x="-423.5372"
           id="tspan1990"
           sodipodi:role="line">* apenas mulheres</tspan></text>
    </g>
    <g
       transform="matrix(0.7877543,0,0,0.7877543,-706.02411,-2.43891)"
       id="g2008">
      <path
         style="fill:#fafd4a;fill-opacity:1;stroke:none;stroke-width:0.26458332px;stroke-linecap:butt;stroke-linejoin:miter;stroke-opacity:1"
         d="m 393.97993,124.87362 c 0.91623,0.45811 2.7487,0.76352 3.35952,1.67976 0.61082,0.91623 2.59599,1.37434 1.98517,2.29058 -0.61082,0.91623 -3.97034,1.83246 -3.81765,2.44328 0.15272,0.61083 0.45813,1.52706 1.83248,1.22165 1.37435,-0.30542 2.13786,-1.37435 2.59599,0 0.45812,1.37435 -3.35952,6.10821 -3.35952,6.10821 0,0 -2.59601,2.59599 -3.81764,1.83247 -1.22164,-0.76353 -1.98517,-1.37435 -2.74871,-1.37435 -0.76351,0 -1.37435,2.29058 -0.4581,2.9014 0.91623,0.61082 -2.29057,0.30541 -2.90142,0.76353 -0.61081,0.45811 -1.67975,0 -1.83247,1.06894 -0.15269,1.06894 -2.44328,0.45811 -2.90138,-0.45812 -0.45812,-0.91623 -1.83245,-1.22165 -1.83245,-1.22165 0,0 -0.76354,-0.45811 -1.52707,0.45812 -0.76354,0.91623 -1.98517,0.61082 -1.98517,0.61082 0,0 -0.76354,-0.91623 -1.37435,-2.13787 -0.61082,-1.22165 -1.67976,-1.52706 -1.67976,-1.52706 l 0.15271,-2.9014 c 0,0 1.22164,-3.20681 2.13786,-2.59599 0.91626,0.61082 -0.4581,-0.76353 -0.4581,-0.76353 0,0 0,-1.52705 -0.76353,-1.67976 -0.76353,-0.1527 2.74868,-5.8028 2.29058,-7.02444 -0.45812,-1.22164 8.55149,-1.22165 10.38397,-1.67977 3.14499,1.79263 0.71436,-1.51711 6.71904,1.98518 z"
         id="path1994"
         inkscape:connector-curvature="0"
         sodipodi:nodetypes="ccccccccscccccccccccccccc" />
      <path
         inkscape:connector-curvature="0"
         style="fill:#000000;stroke-width:0.26458332"
         d="m 395.40007,163.96435 c -2.7445,-0.85815 -5.11286,-3.24891 -5.11286,-5.1612 0,-0.34921 0.32767,-0.56304 1.19904,-0.78245 2.00365,-0.50453 7.3984,-0.64385 10.57492,-0.27309 3.7914,0.44251 7.02017,0.44556 8.99583,0.008 1.74592,-0.38625 10.70422,-0.25921 12.17084,0.17259 1.12898,0.3324 1.19574,1.43741 0.17834,2.95228 -3.26159,4.85639 -11.50518,4.45056 -14.09351,-0.69382 -0.77478,-1.5399 -0.91988,-1.65466 -2.09212,-1.65466 -1.179,0 -1.36051,0.14101 -1.97535,1.53462 -1.42662,3.23355 -6.07846,5.07501 -9.84513,3.89724 z"
         id="path1996" />
      <path
         inkscape:connector-curvature="0"
         id="path1998"
         style="fill:#000000;stroke-width:0.26458332"
         d="m 393.85909,152.30667 c 0,-0.70474 -0.0886,-0.79375 -0.79013,-0.79375 -0.55187,0 -0.81791,0.14429 -0.88227,0.47848 -0.16528,0.85821 0.16974,1.28186 0.94329,1.19289 0.61509,-0.0708 0.72911,-0.20799 0.72911,-0.87762 z m -0.28617,3.05095 c -0.78619,-0.31805 -1.96207,-1.79829 -1.96684,-2.47594 -0.009,-1.29632 -0.41392,-1.34766 -1.56329,-0.19829 l -1.10064,1.10063 -2.2543,-1.36166 c -1.23987,-0.74892 -2.19382,-1.42216 -2.11988,-1.4961 0.15896,-0.15896 2.73726,0.41911 3.40414,0.76323 0.72657,0.37492 0.5467,-0.11585 -0.48364,-1.31957 -1.04264,-1.21809 -0.97118,-1.29238 0.68208,-0.70908 1.3818,0.48753 1.80861,0.51215 1.37583,0.0794 -0.17463,-0.17462 -0.3175,-0.4747 -0.3175,-0.66683 0,-0.25763 0.27783,-0.20759 1.05833,0.19058 0.89534,0.45677 1.05834,0.4772 1.05834,0.13263 0,-0.30903 0.17007,-0.3646 0.70496,-0.23036 0.59846,0.15021 0.67795,0.10655 0.52616,-0.289 -0.14106,-0.36761 -0.0804,-0.42683 0.28723,-0.28062 0.25631,0.10192 1.23453,0.29673 2.17382,0.43292 0.96132,0.13939 2.20942,0.54159 2.85542,0.92018 1.10155,0.64555 2.72192,2.51745 2.70444,3.12426 -0.005,0.16007 -0.25401,-0.0382 -0.55422,-0.44067 -0.30021,-0.40244 -0.74293,-0.83656 -0.98381,-0.96473 -0.36502,-0.19422 -0.44608,-0.0801 -0.48668,0.6854 -0.12255,2.31016 -2.77515,3.90368 -4.99995,3.00365 z" />
      <path
         inkscape:connector-curvature="0"
         id="path2000"
         style="fill:#000000;stroke-width:0.26458332"
         d="m 418.58709,152.84854 c 0.77305,-0.93147 -0.61714,-2.11774 -1.42964,-1.21994 -0.49457,0.5465 -0.51781,0.86321 -0.0944,1.28661 0.43076,0.43076 1.13684,0.39987 1.52404,-0.0667 z m -0.65092,2.23956 c -0.96331,-0.63397 -1.71726,-1.96198 -1.72695,-3.04188 l -0.007,-0.79788 -0.91888,0.9883 c -1.217,1.30894 -1.18659,0.61032 0.0356,-0.81751 1.17661,-1.37461 2.53939,-2.09246 4.5311,-2.3868 0.83924,-0.12402 1.73424,-0.31397 1.9889,-0.42211 0.33046,-0.14033 0.46302,-0.0749 0.46302,0.22856 0,0.49828 0.12072,0.5208 0.81115,0.15129 0.42369,-0.22675 0.51177,-0.18612 0.51177,0.23606 0,0.50114 0.0168,0.50137 0.97414,0.0133 1.11613,-0.56903 1.30668,-0.51199 0.89007,0.26645 -0.352,0.65773 -0.17282,0.6784 1.3188,0.15212 0.62308,-0.21983 1.19545,-0.33711 1.27195,-0.26062 0.0765,0.0765 -0.23974,0.52992 -0.70273,1.00761 -1.11952,1.15505 -1.11258,1.58796 0.0181,1.12795 0.47294,-0.19241 1.33614,-0.43315 1.91823,-0.53496 0.9184,-0.16065 1.00585,-0.13571 0.66145,0.18862 -0.21828,0.20556 -1.21477,0.87992 -2.21442,1.49857 l -1.81755,1.12482 -1.10288,-1.08239 c -0.60659,-0.59532 -1.18768,-1.0824 -1.29131,-1.0824 -0.10363,0 -0.18887,0.32743 -0.18941,0.72761 -0.001,0.99268 -0.86758,2.33567 -1.82626,2.83142 -1.0859,0.56155 -2.64338,0.51126 -3.59671,-0.11614 z" />
      <path
         style="fill:#ffd100;fill-opacity:1;stroke:none;stroke-width:0.24659672px;stroke-linecap:butt;stroke-linejoin:miter;stroke-opacity:1"
         d="m 382.21694,133.26098 c 0.097,-1.4201 -2.28927,-1.85022 -1.86229,-2.84649 0.42699,-0.99627 0.7815,1.23404 1.86229,1.77152 1.08078,0.53749 -1.2357,-3.54739 -0.15438,-3.94154 1.10339,-0.40221 1.08076,2.6874 1.85275,3.40406 0.77198,0.71663 -0.96355,-3.16312 0,-3.58323 1.02426,-0.44658 1.08766,3.10986 2.16156,2.86658 1.38978,-0.31482 -0.0109,-4.90274 1.38958,-4.65819 1.47676,0.25791 -1.30749,4.84152 0.15438,5.19568 1.28443,0.31117 0.3974,-4.31867 1.69837,-4.12072 0.83069,0.1264 -0.36651,2.73175 0.4632,2.86659 0.3419,0.0556 0.12052,-1.12391 0.46318,-1.07497 0.47093,0.0672 -0.1282,1.39792 0.30878,1.61245 0.72351,0.35521 1.50804,-2.13723 2.0072,-1.43329 0.57853,0.81588 -1.74454,1.28002 -1.85279,2.3291 -0.063,0.61049 0.96982,1.04204 0.772,1.61245 -0.26134,0.75356 -2.58665,0 -2.58665,0.56929 0,0.5693 2.7475,-0.0258 2.98881,0.99628 0.0154,0.0653 -0.0831,0.11066 -0.14231,0.14232 -0.85312,0.45661 -2.77917,-0.39597 -2.8465,0.5693 -0.0699,1.00283 3.04236,0.0103 2.8465,0.99627 -0.16664,0.83888 -2.02405,-0.80734 -2.56185,-0.14233 -0.34013,0.4206 0.87081,1.25641 0.42696,1.56557 -0.33488,0.23325 -0.63338,-0.89836 -0.99625,-0.71162 -0.2531,0.13025 0.24214,0.7043 0,0.85394 -0.4512,0.27886 -0.98044,-1.0036 -1.42326,-0.71161 -0.67446,0.44474 0.42698,1.70789 0.14233,2.41951 -0.28464,0.71162 -0.99627,-1.56556 -1.8502,-1.28092 -0.85398,0.28466 0.99624,1.7079 0,1.85022 -0.99629,0.14232 -0.42699,-1.42325 -1.13862,-1.28092 -0.7116,0.14231 0.0992,1.49837 -0.42695,1.85021 -0.23989,0.16042 -0.68862,0.0942 -0.85397,-0.14232 -0.44252,-0.63294 0.42698,-1.70789 0.42698,-2.27719 0,-0.5693 -1.13858,2.27719 -1.99255,2.27719 -0.85394,0 0.46061,-1.8136 -0.14231,-2.27719 -0.19178,-0.14746 -0.57971,0.3451 -0.71163,0.14233 -0.53833,-0.8275 2.33734,-1.65901 1.70791,-2.41951 -0.36549,-0.4416 -1.13861,0 -1.56557,0.71161 -0.42698,0.71163 -0.90858,0.60109 -1.13862,0.28465 -0.26316,-0.36202 0.99223,-0.78991 0.71163,-1.13859 -0.44216,-0.54947 -1.85022,0 -1.99255,0.71162 -0.14232,0.71162 -0.55841,-0.90781 -0.33633,-1.29432 0.49315,-0.8583 2.85925,-0.23296 2.85925,-0.80226 0,-0.56929 1.27567,-0.63778 1.33192,-1.46153 z"
         id="path2002"
         inkscape:connector-curvature="0"
         sodipodi:nodetypes="ssssssssssssssssssssssssssssssssssssssssssss" />
      <path
         id="path2004"
         style="fill:#6b396c;fill-opacity:1;stroke-width:0.26458332"
         d="m 386.80969,135.19834 c 0.007,-0.24128 -0.27932,-0.10233 -0.783,0.38023 -0.43656,0.41826 -0.79375,1.00158 -0.79375,1.29628 0,0.45238 0.12193,0.39317 0.783,-0.38023 0.43064,-0.50383 0.78783,-1.08715 0.79375,-1.29628 z m -2.50279,1.72303 c -0.43656,-0.3392 -1.4486,-0.86319 -2.24896,-1.16441 -0.80037,-0.30123 -1.2041,-0.55389 -0.89718,-0.56147 0.30691,-0.008 1.25941,0.34189 2.11666,0.77661 0.85726,0.43472 1.57726,0.7919 1.60002,0.79375 0.0228,0.002 -0.025,-0.26454 -0.10614,-0.59196 -0.0811,-0.32743 -0.6653,-1.15576 -1.29814,-1.84075 -0.63285,-0.68499 -1.14668,-1.39937 -1.14183,-1.5875 0.005,-0.18814 0.24531,-0.0444 0.53437,0.31939 1.03152,1.29822 2.46304,2.61786 2.68858,2.47846 0.2978,-0.18405 0.008,-1.09678 -0.63941,-2.0165 -0.56022,-0.79538 -1.11013,-2.41034 -0.74361,-2.18382 0.12497,0.0772 0.3027,0.46649 0.39495,0.865 0.0923,0.39851 0.51814,1.13679 0.9464,1.64062 l 0.77866,0.91604 v -1.82004 c 0,-2.24023 0.22687,-2.18901 0.29455,0.0665 0.0271,0.90268 0.15048,1.64124 0.27422,1.64124 0.12374,0 0.22498,-0.11581 0.22498,-0.25735 0,-0.47245 1.38143,-3.18223 1.62229,-3.18223 0.13057,0 -0.1286,0.72507 -0.57595,1.61126 -0.60126,1.19108 -0.76929,1.81191 -0.64436,2.3807 0.13778,0.62734 0.0223,0.91613 -0.62531,1.56374 -0.94594,0.94594 -1.49189,0.97858 -2.55479,0.15272 z"
         inkscape:connector-curvature="0" />
      <path
         inkscape:connector-curvature="0"
         style="fill:#6b396c;fill-opacity:1;stroke-width:0.26458332"
         d="m 425.21221,162.80523 c 0,-0.11938 0.95971,-1.81603 2.13268,-3.77031 1.17297,-1.95429 2.70461,-4.74387 3.40365,-6.19908 1.41317,-2.94187 3.14547,-7.67827 2.89857,-7.92517 -0.0877,-0.0877 -0.46282,-0.0441 -0.83364,0.0969 -1.36126,0.51755 -4.64654,1.06516 -8.02616,1.33784 -8.69487,0.70155 -18.62093,-1.41562 -27.48864,-5.86316 -1.16417,-0.58388 -2.1578,-1.10056 -2.20807,-1.14819 -0.0503,-0.0476 0.30085,-0.43708 0.78028,-0.86544 l 0.87168,-0.77885 -0.29755,-2.21655 c -0.51254,-3.81804 -0.73922,-4.06647 -2.98685,-3.27346 -0.84641,0.29863 -1.21889,0.32363 -1.48847,0.0999 -0.6601,-0.54783 -0.397,-1.1947 0.68425,-1.68227 1.97307,-0.88973 2.91923,-2.59182 1.9196,-3.45327 -0.28712,-0.24743 -0.83633,-0.7317 -1.22048,-1.07616 -0.97425,-0.8736 -4.49768,-2.05901 -5.40228,-1.81753 -0.38845,0.10369 -0.99161,0.22468 -1.34035,0.26886 -0.34874,0.0442 -0.74001,0.23774 -0.86949,0.43011 -0.22327,0.33173 -0.20214,0.68026 0.17364,2.86332 0.10661,0.61938 -0.0566,0.36566 -0.49277,-0.76619 -0.35869,-0.93072 -0.8097,-1.79903 -1.00224,-1.92958 -0.34087,-0.23112 -1.87762,-0.15652 -5.11257,0.2482 l -1.5875,0.19861 -0.60761,2.15233 -0.60761,2.15232 1.46751,1.51517 c 1.41384,1.45976 2.10807,2.67941 0.85514,1.50234 -0.92799,-0.8718 -1.65599,-0.73454 -2.44746,0.46146 -0.55451,0.83791 -0.69177,1.37596 -0.71572,2.80549 -0.0251,1.49534 0.0498,1.81248 0.4839,2.05172 0.5788,0.31895 1.05539,0.90521 1.85857,2.28624 0.69884,1.20164 1.36697,1.29632 2.88205,0.40843 l 1.20461,-0.70595 -0.25112,0.66047 c -0.13811,0.36326 -0.1855,0.91138 -0.1053,1.21804 0.0802,0.30666 0.0426,0.56135 -0.0835,0.56598 -0.12612,0.005 -0.4482,0.17429 -0.71575,0.37703 -0.46114,0.34943 -0.35812,0.66904 1.98024,6.14314 1.35669,3.176 3.3303,7.49248 4.38581,9.5922 1.05551,2.09971 1.87518,3.86158 1.8215,3.91527 -0.22567,0.22566 -4.25781,-3.29606 -6.6769,-5.83169 -2.74304,-2.87519 -5.0687,-5.95823 -7.13818,-9.46283 l -1.23752,-2.09571 h -1.54977 c -1.84761,0 -1.96179,-0.2906 -0.62373,-1.5875 1.08182,-1.04854 1.1145,-1.40295 0.34157,-3.70416 -0.5107,-1.52049 -0.57783,-2.28705 -0.57925,-6.61458 -10e-4,-4.07096 0.0973,-5.3512 0.58601,-7.60652 2.81109,-12.97232 10.11543,-21.93121 21.2692,-26.086994 10.47362,-3.902366 23.05759,-2.595828 33.09943,3.436564 8.41748,5.0566 14.49549,13.6087 16.42665,23.1132 0.45492,2.23897 0.95479,7.07789 0.95513,9.24593 1.8e-4,1.18323 0.12067,1.56646 0.67418,2.14419 l 0.67396,0.70347 -0.6756,0.44266 c -0.37157,0.24347 -0.94448,0.5449 -1.27313,0.66985 -0.47264,0.1797 -0.68976,0.62015 -1.03873,2.1071 -1.26504,5.39036 -6.10528,12.55444 -12.1906,18.04343 -1.48847,1.34262 -3.06351,2.66103 -3.50007,2.9298 -0.84108,0.5178 -1.45521,0.63326 -1.45521,0.27358 z"
         id="path2006" />
    </g>
    <path
       sodipodi:type="star"
       style="fill:#f7941e;fill-opacity:1;fill-rule:evenodd;stroke:none;stroke-width:1.32291663;stroke-linecap:square;stroke-linejoin:round;stroke-miterlimit:4;stroke-dasharray:none;stroke-opacity:1"
       id="path2010"
       sodipodi:sides="15"
       sodipodi:cx="-307.71204"
       sodipodi:cy="199.69223"
       sodipodi:r1="13.041848"
       sodipodi:r2="12.161809"
       sodipodi:arg1="0.72425"
       sodipodi:arg2="0.93368951"
       inkscape:flatsided="false"
       inkscape:rounded="0.33"
       inkscape:randomized="0"
       d="m -297.94374,208.33342 c -0.60698,0.68616 -1.79719,0.58975 -2.53357,1.13472 -0.73639,0.54496 -0.99203,1.71138 -1.82563,2.09133 -0.83359,0.37996 -1.88169,-0.19221 -2.77607,0.006 -0.89437,0.19834 -1.60234,1.15993 -2.51841,1.16798 -0.91607,0.008 -1.64083,-0.94095 -2.53856,-1.12353 -0.89772,-0.18259 -1.9356,0.40791 -2.77574,0.0427 -0.84015,-0.36525 -1.11626,-1.52699 -1.8621,-2.05893 -0.74585,-0.53194 -1.93418,-0.41463 -2.55313,-1.09001 -0.61896,-0.67539 -0.39867,-1.849 -0.86367,-2.63831 -0.46501,-0.78931 -1.59832,-1.16548 -1.88905,-2.03423 -0.29074,-0.86874 0.38785,-1.85129 0.28409,-2.7615 -0.10376,-0.91021 -0.98609,-1.71481 -0.89834,-2.62671 0.0877,-0.91189 1.10731,-1.53348 1.38274,-2.4072 0.27542,-0.87372 -0.20336,-1.96764 0.2477,-2.765 0.45106,-0.79737 1.6353,-0.95053 2.24229,-1.63669 0.60699,-0.68616 0.61454,-1.88024 1.35092,-2.4252 0.73638,-0.54497 1.88054,-0.20321 2.71413,-0.58316 0.8336,-0.37996 1.32617,-1.46773 2.22055,-1.66607 0.89437,-0.19834 1.8006,0.57924 2.71667,0.57119 0.91607,-0.008 1.8085,-0.80144 2.70622,-0.61885 0.89773,0.18259 1.40934,1.26154 2.24949,1.62678 0.84014,0.36525 1.97811,0.003 2.72396,0.53537 0.74585,0.53194 0.77438,1.7257 1.39333,2.40109 0.61896,0.67538 1.80571,0.80771 2.27071,1.59702 0.46501,0.78931 0.006,1.89147 0.29627,2.76022 0.29074,0.86875 1.32106,1.47232 1.42483,2.38253 0.10376,0.91021 -0.76429,1.7302 -0.85204,2.64209 -0.0877,0.91189 0.60801,1.88236 0.33259,2.75608 -0.27543,0.87372 -1.40194,1.26975 -1.85301,2.06712 -0.45106,0.79736 -0.21018,1.96692 -0.81717,2.65308 z"
       inkscape:transform-center-x="0.010744504"
       inkscape:transform-center-y="0.11696125" />
    <path
       inkscape:transform-center-y="0.11696125"
       inkscape:transform-center-x="0.010744504"
       d="m -284.04271,203.825 c -0.60698,0.68615 -1.79719,0.58975 -2.53357,1.13472 -0.73638,0.54496 -0.99203,1.71138 -1.82563,2.09133 -0.83359,0.37995 -1.88169,-0.19222 -2.77607,0.006 -0.89437,0.19834 -1.60234,1.15993 -2.51841,1.16798 -0.91607,0.008 -1.64083,-0.94095 -2.53855,-1.12354 -0.89773,-0.18258 -1.93561,0.40792 -2.77575,0.0427 -0.84015,-0.36525 -1.11625,-1.52699 -1.8621,-2.05893 -0.74585,-0.53194 -1.93418,-0.41463 -2.55313,-1.09002 -0.61895,-0.67538 -0.39867,-1.84899 -0.86367,-2.6383 -0.46501,-0.78932 -1.59831,-1.16549 -1.88905,-2.03423 -0.29074,-0.86875 0.38785,-1.85129 0.28409,-2.7615 -0.10376,-0.91021 -0.98609,-1.71482 -0.89834,-2.62671 0.0878,-0.91189 1.10731,-1.53348 1.38274,-2.4072 0.27542,-0.87373 -0.20336,-1.96764 0.2477,-2.76501 0.45107,-0.79736 1.63531,-0.95052 2.24229,-1.63668 0.60699,-0.68616 0.61454,-1.88024 1.35092,-2.4252 0.73638,-0.54497 1.88054,-0.20321 2.71413,-0.58317 0.8336,-0.37995 1.32617,-1.46773 2.22055,-1.66606 0.89438,-0.19834 1.80061,0.57924 2.71668,0.57119 0.91606,-0.008 1.80849,-0.80144 2.70621,-0.61885 0.89773,0.18258 1.40934,1.26153 2.24949,1.62678 0.84014,0.36524 1.97811,0.003 2.72396,0.53537 0.74585,0.53194 0.77438,1.7257 1.39334,2.40109 0.61895,0.67538 1.8057,0.8077 2.2707,1.59702 0.46501,0.78931 0.006,1.89147 0.29627,2.76022 0.29074,0.86874 1.32107,1.47232 1.42483,2.38253 0.10376,0.91021 -0.76429,1.7302 -0.85203,2.64209 -0.0878,0.91189 0.608,1.88236 0.33258,2.75608 -0.27543,0.87372 -1.40194,1.26975 -1.85301,2.06712 -0.45106,0.79736 -0.21018,1.96692 -0.81717,2.65308 z"
       inkscape:randomized="0"
       inkscape:rounded="0.33"
       inkscape:flatsided="false"
       sodipodi:arg2="0.93368951"
       sodipodi:arg1="0.72425"
       sodipodi:r2="12.161809"
       sodipodi:r1="13.041848"
       sodipodi:cy="195.18381"
       sodipodi:cx="-293.81099"
       sodipodi:sides="15"
       id="path2012"
       style="fill:#6b396c;fill-opacity:1;fill-rule:evenodd;stroke:none;stroke-width:1.32291663;stroke-linecap:square;stroke-linejoin:round;stroke-miterlimit:4;stroke-dasharray:none;stroke-opacity:1"
       sodipodi:type="star" />
    <g
       transform="rotate(90,-132.26355,-130.0638)"
       id="g2018">
      <path
         inkscape:transform-center-y="0.11696125"
         inkscape:transform-center-x="0.010744504"
         d="m 206.26137,220.35644 c -0.60699,0.68616 -1.79719,0.58976 -2.53357,1.13472 -0.73639,0.54497 -0.99203,1.71138 -1.82563,2.09134 -0.8336,0.37995 -1.88169,-0.19222 -2.77607,0.006 -0.89438,0.19834 -1.60234,1.15993 -2.51841,1.16798 -0.91607,0.008 -1.64083,-0.94095 -2.53856,-1.12354 -0.89772,-0.18258 -1.9356,0.40792 -2.77574,0.0427 -0.84015,-0.36524 -1.11626,-1.52698 -1.86211,-2.05892 -0.74584,-0.53194 -1.93417,-0.41463 -2.55312,-1.09002 -0.61896,-0.67538 -0.39867,-1.84899 -0.86368,-2.6383 -0.465,-0.78932 -1.59831,-1.16549 -1.88904,-2.03423 -0.29074,-0.86875 0.38785,-1.85129 0.28409,-2.7615 -0.10377,-0.91021 -0.98609,-1.71482 -0.89834,-2.62671 0.0877,-0.91189 1.10731,-1.53348 1.38273,-2.40721 0.27543,-0.87372 -0.20335,-1.96763 0.24771,-2.765 0.45106,-0.79736 1.6353,-0.95052 2.24229,-1.63668 0.60699,-0.68616 0.61453,-1.88024 1.35092,-2.4252 0.73638,-0.54497 1.88053,-0.20321 2.71413,-0.58317 0.8336,-0.37995 1.32617,-1.46773 2.22055,-1.66606 0.89437,-0.19834 1.8006,0.57924 2.71667,0.57119 0.91607,-0.008 1.8085,-0.80144 2.70622,-0.61885 0.89773,0.18258 1.40934,1.26153 2.24949,1.62678 0.84014,0.36524 1.97811,0.003 2.72396,0.53537 0.74585,0.53194 0.77438,1.7257 1.39333,2.40108 0.61896,0.67539 1.8057,0.80771 2.27071,1.59703 0.46501,0.78931 0.006,1.89147 0.29627,2.76022 0.29073,0.86874 1.32106,1.47232 1.42482,2.38253 0.10377,0.91021 -0.76428,1.73019 -0.85203,2.64209 -0.0877,0.91189 0.60801,1.88236 0.33258,2.75608 -0.27542,0.87372 -1.40194,1.26975 -1.853,2.06711 -0.45106,0.79737 -0.21018,1.96692 -0.81717,2.65308 z"
         inkscape:randomized="0"
         inkscape:rounded="0.33"
         inkscape:flatsided="false"
         sodipodi:arg2="0.93368951"
         sodipodi:arg1="0.72425"
         sodipodi:r2="12.161809"
         sodipodi:r1="13.041847"
         sodipodi:cy="211.71526"
         sodipodi:cx="196.49307"
         sodipodi:sides="15"
         id="path2014"
         style="fill:#6b396c;fill-opacity:1;fill-rule:evenodd;stroke:none;stroke-width:1.32291663;stroke-linecap:square;stroke-linejoin:round;stroke-miterlimit:4;stroke-dasharray:none;stroke-opacity:1"
         sodipodi:type="star" />
      <path
         sodipodi:type="star"
         style="fill:#f7941e;fill-opacity:1;fill-rule:evenodd;stroke:none;stroke-width:1.32291663;stroke-linecap:square;stroke-linejoin:round;stroke-miterlimit:4;stroke-dasharray:none;stroke-opacity:1"
         id="path2016"
         sodipodi:sides="15"
         sodipodi:cx="180.71352"
         sodipodi:cy="218.47791"
         sodipodi:r1="13.041847"
         sodipodi:r2="12.161809"
         sodipodi:arg1="0.72425"
         sodipodi:arg2="0.93368951"
         inkscape:flatsided="false"
         inkscape:rounded="0.33"
         inkscape:randomized="0"
         d="m 190.48181,227.11909 c -0.60698,0.68616 -1.79719,0.58976 -2.53357,1.13472 -0.73638,0.54497 -0.99203,1.71138 -1.82563,2.09134 -0.83359,0.37995 -1.88169,-0.19222 -2.77606,0.006 -0.89438,0.19834 -1.60235,1.15993 -2.51842,1.16798 -0.91607,0.008 -1.64083,-0.94095 -2.53855,-1.12354 -0.89773,-0.18258 -1.93561,0.40792 -2.77575,0.0427 -0.84015,-0.36524 -1.11625,-1.52698 -1.8621,-2.05892 -0.74585,-0.53194 -1.93418,-0.41463 -2.55313,-1.09002 -0.61895,-0.67538 -0.39867,-1.84899 -0.86367,-2.6383 -0.46501,-0.78932 -1.59831,-1.16549 -1.88905,-2.03423 -0.29074,-0.86875 0.38785,-1.85129 0.28409,-2.7615 -0.10376,-0.91021 -0.98608,-1.71482 -0.89834,-2.62671 0.0877,-0.91189 1.10731,-1.53348 1.38274,-2.40721 0.27542,-0.87372 -0.20336,-1.96763 0.2477,-2.765 0.45107,-0.79736 1.63531,-0.95052 2.24229,-1.63668 0.60699,-0.68616 0.61454,-1.88024 1.35092,-2.4252 0.73639,-0.54497 1.88054,-0.20322 2.71413,-0.58317 0.8336,-0.37995 1.32617,-1.46773 2.22055,-1.66606 0.89438,-0.19834 1.80061,0.57924 2.71668,0.57119 0.91607,-0.008 1.80849,-0.80144 2.70621,-0.61885 0.89773,0.18258 1.40934,1.26153 2.24949,1.62678 0.84014,0.36524 1.97811,0.003 2.72396,0.53537 0.74585,0.53194 0.77438,1.7257 1.39334,2.40108 0.61895,0.67539 1.8057,0.80771 2.2707,1.59702 0.46501,0.78932 0.006,1.89148 0.29627,2.76023 0.29074,0.86874 1.32107,1.47232 1.42483,2.38253 0.10376,0.91021 -0.76428,1.73019 -0.85203,2.64209 -0.0877,0.91189 0.608,1.88236 0.33258,2.75608 -0.27543,0.87372 -1.40194,1.26975 -1.853,2.06711 -0.45107,0.79737 -0.21019,1.96692 -0.81718,2.65308 z"
         inkscape:transform-center-x="0.010744504"
         inkscape:transform-center-y="0.11696125" />
    </g>
    <rect
       style="fill:#fff8f0;fill-opacity:1;fill-rule:evenodd;stroke:none;stroke-width:1.82268512;stroke-linecap:square;stroke-linejoin:round;stroke-miterlimit:4;stroke-dasharray:none;stroke-opacity:1"
       id="rect758"
       width="187.47618"
       height="281.86304"
       x="-245.34996"
       y="-87.447464"
       rx="0.048757415"
       ry="0.048757415"
       inkscape:export-xdpi="180"
       inkscape:export-ydpi="180"
       inkscape:export-filename="/home/brunamoreira/Drawings/export/inscricao1.png" />
    <g
       transform="matrix(1.218681,0,0,1.218681,-269.65311,-128.03139)"
       id="g768">
      <path
         inkscape:connector-curvature="0"
         d="m 132.60915,51.185777 c -0.36695,-0.366941 -1.16092,0.466059 -0.87901,0.922208 0.19175,0.310269 0.42975,0.263037 0.67511,-0.134047 0.20843,-0.337252 0.30018,-0.691939 0.2039,-0.788227 z m -1.65401,1.494977 c -0.7721,-0.93032 -0.0578,-2.208494 1.35127,-2.418077 1.21709,-0.181024 1.70792,0.884078 1.00911,2.189805 -0.61253,1.144548 -1.52658,1.232931 -2.36038,0.228272 z m 16.88812,5.371321 c -0.216,-7.0538 -0.51271,-11.104995 -0.81333,-11.104995 -0.31178,0 -0.3744,1.693891 -0.18354,4.964253 0.15934,2.730318 0.42716,7.825754 0.59515,11.323167 0.168,3.497396 0.40363,6.260737 0.52362,6.140742 0.11999,-0.119904 0.0651,-5.215414 -0.1219,-11.323167 z m -0.89723,11.903182 c -0.11058,-0.336245 -0.44587,-5.668 -0.74508,-11.848325 -0.56206,-11.609631 -0.48649,-12.337662 1.24625,-12.005931 0.77655,0.148711 0.88979,0.880356 1.2038,7.778283 0.19063,4.187801 0.29454,9.585931 0.23089,11.995839 -0.0992,3.754541 -0.23159,4.403828 -0.92525,4.536571 -0.44524,0.08517 -0.90001,-0.12025 -1.01061,-0.456437 z m 15.93509,-0.396721 c 1.13399,-0.60689 1.18343,-2.813148 0.0851,-3.79712 -0.44448,-0.398206 -2.22075,-1.396503 -3.94727,-2.218495 -3.42412,-1.630189 -4.4804,-2.73253 -4.4804,-4.675801 0,-1.642393 1.39343,-2.397201 4.35187,-2.35737 1.75321,0.02352 2.08418,-0.07559 1.44561,-0.432847 -1.17345,-0.656704 -4.74234,-0.156211 -5.81622,0.815614 -1.24307,1.124967 -1.15372,3.239575 0.19382,4.587121 0.60427,0.604257 2.36638,1.738598 3.91582,2.520752 4.74885,2.397217 5.55625,5.116594 1.51662,5.108094 -2.12153,-0.005 -6.55063,-1.677033 -7.19292,-2.716282 -0.44542,-0.720712 -2.10892,-1.549834 -2.10892,-1.05114 0,0.720374 3.81734,2.982785 6.46506,3.831595 2.96671,0.951097 4.33825,1.046074 5.57184,0.385879 z m -6.36292,0.478213 c -2.77618,-0.987066 -6.35417,-3.31775 -6.77438,-4.412797 -0.71992,-1.876078 1.3003,-2.139956 3.327,-0.434596 1.9009,1.599493 5.09443,2.977809 6.92761,2.989923 2.48025,0.01568 1.65547,-1.358546 -2.00129,-3.336193 -4.07935,-2.206192 -5.30576,-3.554877 -5.30576,-5.834715 0,-2.423119 1.55601,-3.812294 4.59749,-4.104533 2.98139,-0.28648 5.2018,0.565664 5.00816,1.922048 -0.12612,0.883351 -0.39492,0.961337 -2.90969,0.844131 -3.46307,-0.161443 -4.18987,0.249521 -3.60545,2.038322 0.33549,1.02688 1.1992,1.703132 3.85543,3.01867 3.95311,1.957819 5.0606,3.108176 5.0606,5.256492 0,2.939406 -3.33371,3.776235 -8.17972,2.053248 z m -18.13185,-9.402885 c 1.03271,-2.18053 4.01891,-4.91277 5.36942,-4.91277 0.34287,0 0.6234,-0.221812 0.6234,-0.492919 0,-1.172265 -4.24531,0.949942 -5.62013,2.809485 -1.35014,1.826156 -2.22842,1.777842 -2.23737,-0.123049 -0.007,-1.583896 -0.66849,-3.057238 -1.1539,-2.571837 -0.25698,0.257004 0.15257,5.170138 1.0324,12.384877 l 0.30973,2.53983 0.30661,-3.694304 c 0.19585,-2.359673 0.69073,-4.505356 1.36984,-5.939296 z m -2.96097,7.92904 c -1.15619,-11.202471 -1.29153,-13.402375 -0.85159,-13.84231 0.85529,-0.855288 2.17345,-0.180941 2.67637,1.369206 l 0.49051,1.511927 0.89486,-1.005533 c 1.06848,-1.200659 4.17566,-2.697939 5.62819,-2.712107 0.79791,-0.0066 1.03903,0.252738 1.03903,1.122706 0,0.892519 -0.42542,1.321058 -2.00516,2.019854 -3.45166,1.526829 -5.57897,5.911183 -5.30421,10.931876 0.14793,2.703336 0.12163,2.7742 -1.08168,2.913323 -1.17341,0.135607 -1.24558,0.02352 -1.48632,-2.308942 z m -2.70911,-9.010925 c -0.0868,-1.979999 -0.1583,-0.482909 -0.15895,3.326852 -6.5e-4,3.809761 0.0704,5.429759 0.15776,3.599988 0.0874,-1.829786 0.088,-4.946866 8.2e-4,-6.92684 z m -0.74843,10.784164 c -0.37777,-0.455184 -0.50447,-2.817637 -0.41565,-7.750352 0.12579,-6.985732 0.14402,-7.097904 1.17811,-7.244643 l 1.05034,-0.149049 -0.12677,7.730556 c -0.12608,7.689059 -0.41242,8.948098 -1.68603,7.413488 z m -7.90199,-3.647551 c 0.82631,-1.3547 1.694,-3.863743 2.55517,-7.388626 0.27476,-1.124595 0.18062,-1.269914 -0.8227,-1.269914 -2.20592,0 -3.99057,3.42828 -4.02658,7.734978 -0.0243,2.904988 0.86674,3.263711 2.29411,0.923562 z m 5.04065,1.269931 c -0.21839,-2.539846 -0.40408,-6.204164 -0.41263,-8.142913 -0.0143,-3.258892 -0.094,-3.54604 -1.05458,-3.803457 -4.4901,-1.2033 -7.27318,2.671599 -7.27318,10.126485 0,4.66882 1.28924,5.481332 3.93037,2.476978 l 0.91841,-1.044729 -1.4815,1.074517 c -2.08959,1.51554 -2.90635,0.754189 -2.90292,-2.706034 0.005,-5.273919 1.98027,-8.832905 4.90176,-8.832905 1.01569,0 1.68974,0.260669 1.86673,0.721909 0.30363,0.791255 -0.98102,6.081834 -2.01125,8.282985 -0.60357,1.289562 -0.59758,1.321504 0.0867,0.461801 0.4043,-0.507969 0.8525,-1.391147 0.996,-1.962613 0.3789,-1.508989 1.38394,-1.272795 1.71931,0.404065 0.15875,0.793698 0.31464,3.754921 0.34642,6.580504 0.0453,4.023699 0.13472,4.686914 0.41262,3.059366 0.19517,-1.142947 0.17616,-4.156113 -0.0422,-6.695959 z m -2.62897,12.646782 1.5081,-1.437777 -1.58368,1.246802 c -1.27975,1.007538 -1.9444,1.209909 -3.46341,1.05454 -1.03386,-0.10577 -2.29536,-0.348458 -2.80333,-0.539384 -0.9103,-0.342153 -0.9107,-0.336641 -0.0272,0.38323 0.50732,0.413365 1.75689,0.730391 2.8789,0.730391 1.58808,0 2.28256,-0.286058 3.49061,-1.437802 z m -6.93225,1.642517 c -1.42547,-0.998445 -1.36465,-2.513672 0.1009,-2.513672 0.61997,0 1.25565,0.207808 1.41262,0.461801 0.55804,0.902925 3.71084,0.518771 4.73754,-0.577233 1.57123,-1.67733 1.95841,-3.349396 1.95841,-8.457728 0,-5.009355 -0.37512,-5.833469 -1.58782,-3.488369 -0.9534,1.843666 -3.33879,3.749318 -4.6932,3.749318 -1.50583,0 -2.03119,-1.479109 -2.03119,-5.718614 0,-6.378538 2.10918,-10.263966 5.83629,-10.751216 0.98078,-0.128279 2.32195,-0.02533 2.98039,0.228834 1.18936,0.458938 1.19981,0.508052 1.60625,7.543343 0.75064,12.993523 0.28292,16.085254 -2.84945,18.835516 -1.35002,1.185315 -1.98362,1.406895 -4.02338,1.406895 -1.44382,0 -2.83528,-0.290171 -3.44735,-0.718875 z"
         style="fill:#f3951b;fill-opacity:1;stroke-width:0.46178973"
         id="path760" />
      <path
         inkscape:connector-curvature="0"
         d="m 51.08946,51.588916 c 0,-1.803061 -0.09016,-1.89322 -1.893205,-1.89322 -1.80305,0 -1.893202,0.09016 -1.893202,1.89322 0,1.803042 0.09016,1.893202 1.893202,1.893202 1.803052,0 1.893205,-0.09018 1.893205,-1.893202 z m -4.63934,2.2504 c -0.165536,-0.43139 -0.223914,-1.722739 -0.129718,-2.86967 l 0.17128,-2.085313 h 2.704575 2.704577 v 2.704583 2.704562 l -2.574866,0.165193 c -1.864842,0.119591 -2.65786,-0.05113 -2.875847,-0.619278 z m 25.618727,11.137242 0.154148,-5.544376 h 2.134431 c 2.519469,0 2.625282,0.252811 2.830186,6.761454 l 0.13624,4.327306 1.757975,0.169484 1.757975,0.169485 v -5.738468 c 0,-5.371479 -0.08492,-5.823379 -1.327703,-7.066167 -1.110645,-1.110652 -1.851235,-1.32771 -4.530166,-1.32771 -1.761355,0 -3.963123,0.152106 -4.892821,0.338061 l -1.690361,0.338089 v 6.728097 6.728098 l 1.757975,-0.169485 1.757975,-0.169484 z m -4.391321,6.536063 c -0.198328,-0.198307 -0.36061,-3.591734 -0.36061,-7.540888 0,-5.160539 0.190191,-7.297935 0.676144,-7.598542 0.371881,-0.230039 2.917826,-0.516417 5.657661,-0.636385 4.960932,-0.217261 4.988378,-0.211288 6.643585,1.443927 l 1.662076,1.662067 -0.152615,6.379986 -0.152594,6.379994 -2.066183,0.170094 c -3.232076,0.26612 -3.613427,-0.386755 -3.613427,-6.186424 0,-5.050024 -0.0059,-5.072477 -1.35229,-5.072477 -1.345504,0 -1.352287,0.02513 -1.352287,5.030519 0,3.191399 -0.237304,5.267816 -0.649098,5.679605 -0.686816,0.686819 -4.32933,0.899518 -4.94036,0.288485 z m -6.94331,-5.242193 c 0.15707,-0.815642 -0.03474,-0.923112 -1.075622,-0.602759 -1.625754,0.500373 -1.721827,0.601058 -1.270511,1.331295 0.556481,0.900398 2.126303,0.412929 2.346133,-0.728536 z m -3.018545,2.011649 c -0.371879,-0.157016 -0.676144,-0.879666 -0.676144,-1.605998 0,-1.367879 1.63501,-2.375661 3.854272,-2.375661 0.916392,0 1.053933,0.306125 0.911389,2.028438 -0.151285,1.82784 -0.328353,2.038818 -1.790627,2.13354 -0.892509,0.05789 -1.927011,-0.02329 -2.29889,-0.180319 z m 6.266391,2.156418 c 1.240417,-0.332135 1.259696,-0.443655 1.081829,-6.257736 -0.210032,-6.865511 -0.592199,-7.453154 -4.847045,-7.453154 -3.479003,0 -5.340981,0.769799 -5.340981,2.208149 0,0.83097 0.239878,1.061047 0.858659,0.823586 2.338071,-0.897199 4.891031,-0.949904 5.583714,-0.115299 1.128985,1.360349 0.28171,2.442632 -2.226172,2.843644 -2.627734,0.420207 -5.29803,2.688387 -5.29803,4.50026 0,0.631417 0.597465,1.745491 1.3277,2.475718 1.106615,1.106611 1.849715,1.326462 4.462551,1.320316 1.724167,-0.0039 3.703166,-0.159462 4.397775,-0.345523 z m -9.68872,-0.146383 c -3.434036,-3.434023 -1.145111,-7.904503 4.574615,-8.934612 1.489534,-0.268247 1.931017,-0.545878 1.520666,-0.956217 -0.410348,-0.410349 -1.327033,-0.3317 -3.157468,0.270885 -1.418585,0.467027 -2.772269,0.729831 -3.008183,0.584027 -0.235916,-0.145765 -0.428936,-1.20056 -0.428936,-2.34391 0,-1.845392 0.191294,-2.145525 1.703462,-2.672661 2.823595,-0.984314 7.719562,-0.750419 9.190147,0.439045 1.193267,0.965137 1.288812,1.461345 1.457427,7.569004 l 0.180439,6.53616 -1.432717,0.544708 c -0.787992,0.299592 -3.139476,0.544718 -5.225517,0.544718 -3.470825,0 -3.927028,-0.134117 -5.373939,-1.581147 z M 38.648409,63.759527 c 0,-2.672081 -0.15973,-3.245487 -0.90401,-3.245487 -2.670909,0 -3.890617,4.100699 -1.680209,5.648927 2.150849,1.506521 2.584219,1.10347 2.584219,-2.40344 z m -3.505606,3.034548 c -2.802748,-2.80273 -1.014813,-7.361873 2.887077,-7.361873 h 1.745866 l -0.157992,4.192105 c -0.155231,4.118967 -0.183751,4.195064 -1.635156,4.362247 -1.012679,0.11674 -1.90565,-0.25831 -2.839804,-1.192479 z m 6.683481,3.659276 1.690361,-0.33806 V 59.905521 49.695716 H 41.623444 39.73024 v 3.448971 3.448974 l -2.979195,0.24706 c -2.136299,0.177255 -3.356173,0.601202 -4.311623,1.498827 -3.816188,3.585103 -2.61921,10.504355 2.050924,11.855541 2.100017,0.607573 5.067079,0.712047 7.335938,0.258262 z m -7.866034,0.85843 c -5.154972,-1.588957 -6.648667,-9.018006 -2.683181,-13.345118 1.468825,-1.60278 2.217568,-1.963302 4.541001,-2.186556 l 2.78217,-0.267328 0.159321,-3.314222 0.15932,-3.314203 2.839805,-0.163552 2.839804,-0.163553 v 11.085109 c 0,7.851131 -0.18379,11.198695 -0.629953,11.474451 -1.019373,0.630016 -8.146381,0.768774 -10.008273,0.194828 z m 14.675176,4.146524 c 1.880177,-1.88018 2.447638,-4.68261 2.451016,-12.104467 l 0.0031,-6.626213 h -1.893204 -1.893201 l -8.25e-4,6.896682 c -9.08e-4,7.493623 -0.712527,10.08816 -3.086994,11.25516 -1.194076,0.58687 -1.193952,0.587401 0.270458,1.167031 2.224188,0.880381 2.756649,0.804903 4.14975,-0.588193 z m -4.713094,1.514717 c -1.748866,-0.948765 -1.917053,-2.127248 -0.418082,-2.929464 2.004011,-1.072522 2.438628,-2.76085 2.716973,-10.554481 l 0.270457,-7.572832 h 2.704575 2.704577 l 0.165494,7.302373 c 0.187943,8.293084 -0.280641,10.579774 -2.654419,12.95355 -1.817183,1.817189 -3.234927,2.024021 -5.48957,0.800854 z M 108.28232,65.316686 c 0.97845,-2.048165 -0.0367,-4.802646 -1.77004,-4.802646 -0.69709,0 -1.43671,0.273862 -1.6436,0.608617 -0.49641,0.803202 -0.48311,4.492045 0.0191,5.30469 0.6557,1.060952 2.6723,0.401117 3.39451,-1.110661 z m -4.22095,1.913254 c -0.39115,-0.471289 -0.71119,-2.032971 -0.71119,-3.470413 0,-3.203886 0.85075,-4.327325 3.27693,-4.327325 1.61838,0 1.9583,0.248248 2.66902,1.949229 0.89661,2.145893 0.61228,4.605286 -0.68203,5.899601 -1.05945,1.059453 -3.65524,1.030321 -4.55273,-0.05113 z m 6.00556,2.740959 c 2.35339,-1.216992 3.39569,-3.638389 3.10016,-7.202093 -0.20732,-2.499979 -0.52183,-3.223063 -1.96138,-4.509298 -1.43942,-1.286139 -2.189,-1.531883 -4.67244,-1.531883 -2.46383,0 -3.23527,0.24848 -4.61797,1.487518 -3.783657,3.390547 -2.817195,10.563846 1.64293,12.194278 1.61318,0.589711 4.95584,0.364496 6.5087,-0.438522 z M 91.54986,63.581557 c 0.127941,-2.419368 -0.0066,-3.067517 -0.637503,-3.067517 -2.279232,0 -3.530098,4.756339 -1.553145,5.905748 1.587092,0.922745 2.021523,0.359876 2.190648,-2.838231 z m -2.76155,3.904267 c -1.523977,-0.886557 -2.125187,-3.055569 -1.430445,-5.160655 0.66255,-2.007541 1.885024,-2.892967 3.994221,-2.892967 1.364701,0 1.387838,0.06669 1.387838,3.998999 0,3.147556 -0.182171,4.068889 -0.855601,4.327325 -1.188744,0.456163 -1.959887,0.388234 -3.096013,-0.272702 z m 4.349779,9.47644 c 2.596527,-1.66749 3.105701,-3.266548 3.310217,-10.395627 0.1649,-5.748356 0.341815,-6.857296 1.236785,-7.752282 0.574402,-0.574391 0.899425,-1.278899 0.722263,-1.565548 -0.17717,-0.286649 -2.178194,-0.521182 -4.446736,-0.521182 -7.052097,0 -10.416245,2.485615 -10.416245,7.696066 0,4.073887 3.135217,6.783133 7.113495,6.14697 1.906115,-0.304801 2.082056,-0.22828 2.082056,0.905385 0,0.681079 -0.396894,1.804982 -0.881998,2.497572 -0.807684,1.153122 -1.197185,1.241416 -4.622499,1.047875 -3.730805,-0.210814 -3.740082,-0.207809 -3.580543,1.157442 0.119515,1.022772 0.570177,1.46087 1.782693,1.732983 2.202894,0.49437 6.224159,-0.0019 7.700512,-0.949654 z M 85.16712,79.050116 C 83.081918,78.666744 82.462544,77.87428 82.462544,75.589659 v -2.1012 l 3.86664,0.359363 c 3.386552,0.314737 3.957423,0.23521 4.597778,-0.640532 1.080475,-1.47763 0.922324,-1.680026 -1.125865,-1.440912 -2.274236,0.265502 -5.878099,-1.606906 -6.741929,-3.50282 -0.328147,-0.720185 -0.595717,-2.575891 -0.594602,-4.12379 0.0043,-5.807827 3.618366,-8.499801 11.392742,-8.485699 5.106659,0.01025 6.212942,0.41491 5.768339,2.11504 -0.267245,1.021981 -0.09046,0.967091 1.564003,-0.485545 1.66589,-1.462668 2.24005,-1.637778 5.37039,-1.637778 3.2264,0 3.66332,0.144953 5.49552,1.824129 1.82928,1.676411 2.0085,2.107578 2.21334,5.324571 0.40463,6.35446 -2.37666,9.287258 -8.48086,8.942876 -3.15107,-0.177864 -3.60259,-0.361324 -5.21399,-2.119679 -2.040636,-2.226726 -2.772405,-5.324891 -1.95604,-8.281554 0.46964,-1.700884 0.436848,-1.89027 -0.23131,-1.335751 -0.583248,0.484057 -0.77929,2.020261 -0.781551,6.124275 -0.0016,3.012984 -0.24353,6.343933 -0.537485,7.4021 -1.198151,4.312973 -6.102736,6.589311 -11.900544,5.523363 z"
         style="fill:#f3951b;fill-opacity:1;stroke-width:0.54091525"
         id="path762" />
      <text
         id="text766"
         y="82.37748"
         x="145.13573"
         style="font-style:normal;font-weight:normal;font-size:13.09238625px;line-height:1.25;font-family:sans-serif;letter-spacing:0px;word-spacing:0px;fill:#f7941e;fill-opacity:1;stroke:none;stroke-width:0.32730964"
         xml:space="preserve"><tspan
           style="font-style:normal;font-variant:normal;font-weight:normal;font-stretch:normal;font-family:Lato;-inkscape-font-specification:Lato;fill:#f7941e;fill-opacity:1;stroke-width:0.32730964"
           y="82.37748"
           x="145.13573"
           id="tspan764"
           sodipodi:role="line">DF</tspan></text>
    </g>
    <g
       id="g796"
       transform="matrix(1.1999105,0,0,1.1999105,-641.38255,-103.58321)">
      <path
         sodipodi:nodetypes="ccccccccscccccccccccccccc"
         inkscape:connector-curvature="0"
         id="path782"
         d="m 393.97993,124.87362 c 0.91623,0.45811 2.7487,0.76352 3.35952,1.67976 0.61082,0.91623 2.59599,1.37434 1.98517,2.29058 -0.61082,0.91623 -3.97034,1.83246 -3.81765,2.44328 0.15272,0.61083 0.45813,1.52706 1.83248,1.22165 1.37435,-0.30542 2.13786,-1.37435 2.59599,0 0.45812,1.37435 -3.35952,6.10821 -3.35952,6.10821 0,0 -2.59601,2.59599 -3.81764,1.83247 -1.22164,-0.76353 -1.98517,-1.37435 -2.74871,-1.37435 -0.76351,0 -1.37435,2.29058 -0.4581,2.9014 0.91623,0.61082 -2.29057,0.30541 -2.90142,0.76353 -0.61081,0.45811 -1.67975,0 -1.83247,1.06894 -0.15269,1.06894 -2.44328,0.45811 -2.90138,-0.45812 -0.45812,-0.91623 -1.83245,-1.22165 -1.83245,-1.22165 0,0 -0.76354,-0.45811 -1.52707,0.45812 -0.76354,0.91623 -1.98517,0.61082 -1.98517,0.61082 0,0 -0.76354,-0.91623 -1.37435,-2.13787 -0.61082,-1.22165 -1.67976,-1.52706 -1.67976,-1.52706 l 0.15271,-2.9014 c 0,0 1.22164,-3.20681 2.13786,-2.59599 0.91626,0.61082 -0.4581,-0.76353 -0.4581,-0.76353 0,0 0,-1.52705 -0.76353,-1.67976 -0.76353,-0.1527 2.74868,-5.8028 2.29058,-7.02444 -0.45812,-1.22164 8.55149,-1.22165 10.38397,-1.67977 3.14499,1.79263 0.71436,-1.51711 6.71904,1.98518 z"
         style="fill:#fafd4a;fill-opacity:1;stroke:none;stroke-width:0.26458332px;stroke-linecap:butt;stroke-linejoin:miter;stroke-opacity:1" />
      <path
         id="path784"
         d="m 395.40007,163.96435 c -2.7445,-0.85815 -5.11286,-3.24891 -5.11286,-5.1612 0,-0.34921 0.32767,-0.56304 1.19904,-0.78245 2.00365,-0.50453 7.3984,-0.64385 10.57492,-0.27309 3.7914,0.44251 7.02017,0.44556 8.99583,0.008 1.74592,-0.38625 10.70422,-0.25921 12.17084,0.17259 1.12898,0.3324 1.19574,1.43741 0.17834,2.95228 -3.26159,4.85639 -11.50518,4.45056 -14.09351,-0.69382 -0.77478,-1.5399 -0.91988,-1.65466 -2.09212,-1.65466 -1.179,0 -1.36051,0.14101 -1.97535,1.53462 -1.42662,3.23355 -6.07846,5.07501 -9.84513,3.89724 z"
         style="fill:#000000;stroke-width:0.26458332"
         inkscape:connector-curvature="0" />
      <path
         d="m 393.85909,152.30667 c 0,-0.70474 -0.0886,-0.79375 -0.79013,-0.79375 -0.55187,0 -0.81791,0.14429 -0.88227,0.47848 -0.16528,0.85821 0.16974,1.28186 0.94329,1.19289 0.61509,-0.0708 0.72911,-0.20799 0.72911,-0.87762 z m -0.28617,3.05095 c -0.78619,-0.31805 -1.96207,-1.79829 -1.96684,-2.47594 -0.009,-1.29632 -0.41392,-1.34766 -1.56329,-0.19829 l -1.10064,1.10063 -2.2543,-1.36166 c -1.23987,-0.74892 -2.19382,-1.42216 -2.11988,-1.4961 0.15896,-0.15896 2.73726,0.41911 3.40414,0.76323 0.72657,0.37492 0.5467,-0.11585 -0.48364,-1.31957 -1.04264,-1.21809 -0.97118,-1.29238 0.68208,-0.70908 1.3818,0.48753 1.80861,0.51215 1.37583,0.0794 -0.17463,-0.17462 -0.3175,-0.4747 -0.3175,-0.66683 0,-0.25763 0.27783,-0.20759 1.05833,0.19058 0.89534,0.45677 1.05834,0.4772 1.05834,0.13263 0,-0.30903 0.17007,-0.3646 0.70496,-0.23036 0.59846,0.15021 0.67795,0.10655 0.52616,-0.289 -0.14106,-0.36761 -0.0804,-0.42683 0.28723,-0.28062 0.25631,0.10192 1.23453,0.29673 2.17382,0.43292 0.96132,0.13939 2.20942,0.54159 2.85542,0.92018 1.10155,0.64555 2.72192,2.51745 2.70444,3.12426 -0.005,0.16007 -0.25401,-0.0382 -0.55422,-0.44067 -0.30021,-0.40244 -0.74293,-0.83656 -0.98381,-0.96473 -0.36502,-0.19422 -0.44608,-0.0801 -0.48668,0.6854 -0.12255,2.31016 -2.77515,3.90368 -4.99995,3.00365 z"
         style="fill:#000000;stroke-width:0.26458332"
         id="path786"
         inkscape:connector-curvature="0" />
      <path
         d="m 418.58709,152.84854 c 0.77305,-0.93147 -0.61714,-2.11774 -1.42964,-1.21994 -0.49457,0.5465 -0.51781,0.86321 -0.0944,1.28661 0.43076,0.43076 1.13684,0.39987 1.52404,-0.0667 z m -0.65092,2.23956 c -0.96331,-0.63397 -1.71726,-1.96198 -1.72695,-3.04188 l -0.007,-0.79788 -0.91888,0.9883 c -1.217,1.30894 -1.18659,0.61032 0.0356,-0.81751 1.17661,-1.37461 2.53939,-2.09246 4.5311,-2.3868 0.83924,-0.12402 1.73424,-0.31397 1.9889,-0.42211 0.33046,-0.14033 0.46302,-0.0749 0.46302,0.22856 0,0.49828 0.12072,0.5208 0.81115,0.15129 0.42369,-0.22675 0.51177,-0.18612 0.51177,0.23606 0,0.50114 0.0168,0.50137 0.97414,0.0133 1.11613,-0.56903 1.30668,-0.51199 0.89007,0.26645 -0.352,0.65773 -0.17282,0.6784 1.3188,0.15212 0.62308,-0.21983 1.19545,-0.33711 1.27195,-0.26062 0.0765,0.0765 -0.23974,0.52992 -0.70273,1.00761 -1.11952,1.15505 -1.11258,1.58796 0.0181,1.12795 0.47294,-0.19241 1.33614,-0.43315 1.91823,-0.53496 0.9184,-0.16065 1.00585,-0.13571 0.66145,0.18862 -0.21828,0.20556 -1.21477,0.87992 -2.21442,1.49857 l -1.81755,1.12482 -1.10288,-1.08239 c -0.60659,-0.59532 -1.18768,-1.0824 -1.29131,-1.0824 -0.10363,0 -0.18887,0.32743 -0.18941,0.72761 -0.001,0.99268 -0.86758,2.33567 -1.82626,2.83142 -1.0859,0.56155 -2.64338,0.51126 -3.59671,-0.11614 z"
         style="fill:#000000;stroke-width:0.26458332"
         id="path788"
         inkscape:connector-curvature="0" />
      <path
         sodipodi:nodetypes="ssssssssssssssssssssssssssssssssssssssssssss"
         inkscape:connector-curvature="0"
         id="path790"
         d="m 382.21694,133.26098 c 0.097,-1.4201 -2.28927,-1.85022 -1.86229,-2.84649 0.42699,-0.99627 0.7815,1.23404 1.86229,1.77152 1.08078,0.53749 -1.2357,-3.54739 -0.15438,-3.94154 1.10339,-0.40221 1.08076,2.6874 1.85275,3.40406 0.77198,0.71663 -0.96355,-3.16312 0,-3.58323 1.02426,-0.44658 1.08766,3.10986 2.16156,2.86658 1.38978,-0.31482 -0.0109,-4.90274 1.38958,-4.65819 1.47676,0.25791 -1.30749,4.84152 0.15438,5.19568 1.28443,0.31117 0.3974,-4.31867 1.69837,-4.12072 0.83069,0.1264 -0.36651,2.73175 0.4632,2.86659 0.3419,0.0556 0.12052,-1.12391 0.46318,-1.07497 0.47093,0.0672 -0.1282,1.39792 0.30878,1.61245 0.72351,0.35521 1.50804,-2.13723 2.0072,-1.43329 0.57853,0.81588 -1.74454,1.28002 -1.85279,2.3291 -0.063,0.61049 0.96982,1.04204 0.772,1.61245 -0.26134,0.75356 -2.58665,0 -2.58665,0.56929 0,0.5693 2.7475,-0.0258 2.98881,0.99628 0.0154,0.0653 -0.0831,0.11066 -0.14231,0.14232 -0.85312,0.45661 -2.77917,-0.39597 -2.8465,0.5693 -0.0699,1.00283 3.04236,0.0103 2.8465,0.99627 -0.16664,0.83888 -2.02405,-0.80734 -2.56185,-0.14233 -0.34013,0.4206 0.87081,1.25641 0.42696,1.56557 -0.33488,0.23325 -0.63338,-0.89836 -0.99625,-0.71162 -0.2531,0.13025 0.24214,0.7043 0,0.85394 -0.4512,0.27886 -0.98044,-1.0036 -1.42326,-0.71161 -0.67446,0.44474 0.42698,1.70789 0.14233,2.41951 -0.28464,0.71162 -0.99627,-1.56556 -1.8502,-1.28092 -0.85398,0.28466 0.99624,1.7079 0,1.85022 -0.99629,0.14232 -0.42699,-1.42325 -1.13862,-1.28092 -0.7116,0.14231 0.0992,1.49837 -0.42695,1.85021 -0.23989,0.16042 -0.68862,0.0942 -0.85397,-0.14232 -0.44252,-0.63294 0.42698,-1.70789 0.42698,-2.27719 0,-0.5693 -1.13858,2.27719 -1.99255,2.27719 -0.85394,0 0.46061,-1.8136 -0.14231,-2.27719 -0.19178,-0.14746 -0.57971,0.3451 -0.71163,0.14233 -0.53833,-0.8275 2.33734,-1.65901 1.70791,-2.41951 -0.36549,-0.4416 -1.13861,0 -1.56557,0.71161 -0.42698,0.71163 -0.90858,0.60109 -1.13862,0.28465 -0.26316,-0.36202 0.99223,-0.78991 0.71163,-1.13859 -0.44216,-0.54947 -1.85022,0 -1.99255,0.71162 -0.14232,0.71162 -0.55841,-0.90781 -0.33633,-1.29432 0.49315,-0.8583 2.85925,-0.23296 2.85925,-0.80226 0,-0.56929 1.27567,-0.63778 1.33192,-1.46153 z"
         style="fill:#ffd100;fill-opacity:1;stroke:none;stroke-width:0.24659672px;stroke-linecap:butt;stroke-linejoin:miter;stroke-opacity:1" />
      <path
         inkscape:connector-curvature="0"
         d="m 386.80969,135.19834 c 0.007,-0.24128 -0.27932,-0.10233 -0.783,0.38023 -0.43656,0.41826 -0.79375,1.00158 -0.79375,1.29628 0,0.45238 0.12193,0.39317 0.783,-0.38023 0.43064,-0.50383 0.78783,-1.08715 0.79375,-1.29628 z m -2.50279,1.72303 c -0.43656,-0.3392 -1.4486,-0.86319 -2.24896,-1.16441 -0.80037,-0.30123 -1.2041,-0.55389 -0.89718,-0.56147 0.30691,-0.008 1.25941,0.34189 2.11666,0.77661 0.85726,0.43472 1.57726,0.7919 1.60002,0.79375 0.0228,0.002 -0.025,-0.26454 -0.10614,-0.59196 -0.0811,-0.32743 -0.6653,-1.15576 -1.29814,-1.84075 -0.63285,-0.68499 -1.14668,-1.39937 -1.14183,-1.5875 0.005,-0.18814 0.24531,-0.0444 0.53437,0.31939 1.03152,1.29822 2.46304,2.61786 2.68858,2.47846 0.2978,-0.18405 0.008,-1.09678 -0.63941,-2.0165 -0.56022,-0.79538 -1.11013,-2.41034 -0.74361,-2.18382 0.12497,0.0772 0.3027,0.46649 0.39495,0.865 0.0923,0.39851 0.51814,1.13679 0.9464,1.64062 l 0.77866,0.91604 v -1.82004 c 0,-2.24023 0.22687,-2.18901 0.29455,0.0665 0.0271,0.90268 0.15048,1.64124 0.27422,1.64124 0.12374,0 0.22498,-0.11581 0.22498,-0.25735 0,-0.47245 1.38143,-3.18223 1.62229,-3.18223 0.13057,0 -0.1286,0.72507 -0.57595,1.61126 -0.60126,1.19108 -0.76929,1.81191 -0.64436,2.3807 0.13778,0.62734 0.0223,0.91613 -0.62531,1.56374 -0.94594,0.94594 -1.49189,0.97858 -2.55479,0.15272 z"
         style="fill:#6b396c;fill-opacity:1;stroke-width:0.26458332"
         id="path792" />
      <path
         id="path794"
         d="m 425.21221,162.80523 c 0,-0.11938 0.95971,-1.81603 2.13268,-3.77031 1.17297,-1.95429 2.70461,-4.74387 3.40365,-6.19908 1.41317,-2.94187 3.14547,-7.67827 2.89857,-7.92517 -0.0877,-0.0877 -0.46282,-0.0441 -0.83364,0.0969 -1.36126,0.51755 -4.64654,1.06516 -8.02616,1.33784 -8.69487,0.70155 -18.62093,-1.41562 -27.48864,-5.86316 -1.16417,-0.58388 -2.1578,-1.10056 -2.20807,-1.14819 -0.0503,-0.0476 0.30085,-0.43708 0.78028,-0.86544 l 0.87168,-0.77885 -0.29755,-2.21655 c -0.51254,-3.81804 -0.73922,-4.06647 -2.98685,-3.27346 -0.84641,0.29863 -1.21889,0.32363 -1.48847,0.0999 -0.6601,-0.54783 -0.397,-1.1947 0.68425,-1.68227 1.97307,-0.88973 2.91923,-2.59182 1.9196,-3.45327 -0.28712,-0.24743 -0.83633,-0.7317 -1.22048,-1.07616 -0.97425,-0.8736 -4.49768,-2.05901 -5.40228,-1.81753 -0.38845,0.10369 -0.99161,0.22468 -1.34035,0.26886 -0.34874,0.0442 -0.74001,0.23774 -0.86949,0.43011 -0.22327,0.33173 -0.20214,0.68026 0.17364,2.86332 0.10661,0.61938 -0.0566,0.36566 -0.49277,-0.76619 -0.35869,-0.93072 -0.8097,-1.79903 -1.00224,-1.92958 -0.34087,-0.23112 -1.87762,-0.15652 -5.11257,0.2482 l -1.5875,0.19861 -0.60761,2.15233 -0.60761,2.15232 1.46751,1.51517 c 1.41384,1.45976 2.10807,2.67941 0.85514,1.50234 -0.92799,-0.8718 -1.65599,-0.73454 -2.44746,0.46146 -0.55451,0.83791 -0.69177,1.37596 -0.71572,2.80549 -0.0251,1.49534 0.0498,1.81248 0.4839,2.05172 0.5788,0.31895 1.05539,0.90521 1.85857,2.28624 0.69884,1.20164 1.36697,1.29632 2.88205,0.40843 l 1.20461,-0.70595 -0.25112,0.66047 c -0.13811,0.36326 -0.1855,0.91138 -0.1053,1.21804 0.0802,0.30666 0.0426,0.56135 -0.0835,0.56598 -0.12612,0.005 -0.4482,0.17429 -0.71575,0.37703 -0.46114,0.34943 -0.35812,0.66904 1.98024,6.14314 1.35669,3.176 3.3303,7.49248 4.38581,9.5922 1.05551,2.09971 1.87518,3.86158 1.8215,3.91527 -0.22567,0.22566 -4.25781,-3.29606 -6.6769,-5.83169 -2.74304,-2.87519 -5.0687,-5.95823 -7.13818,-9.46283 l -1.23752,-2.09571 h -1.54977 c -1.84761,0 -1.96179,-0.2906 -0.62373,-1.5875 1.08182,-1.04854 1.1145,-1.40295 0.34157,-3.70416 -0.5107,-1.52049 -0.57783,-2.28705 -0.57925,-6.61458 -10e-4,-4.07096 0.0973,-5.3512 0.58601,-7.60652 2.81109,-12.97232 10.11543,-21.93121 21.2692,-26.086994 10.47362,-3.902366 23.05759,-2.595828 33.09943,3.436564 8.41748,5.0566 14.49549,13.6087 16.42665,23.1132 0.45492,2.23897 0.95479,7.07789 0.95513,9.24593 1.8e-4,1.18323 0.12067,1.56646 0.67418,2.14419 l 0.67396,0.70347 -0.6756,0.44266 c -0.37157,0.24347 -0.94448,0.5449 -1.27313,0.66985 -0.47264,0.1797 -0.68976,0.62015 -1.03873,2.1071 -1.26504,5.39036 -6.10528,12.55444 -12.1906,18.04343 -1.48847,1.34262 -3.06351,2.66103 -3.50007,2.9298 -0.84108,0.5178 -1.45521,0.63326 -1.45521,0.27358 z"
         style="fill:#6b396c;fill-opacity:1;stroke-width:0.26458332"
         inkscape:connector-curvature="0" />
    </g>
    <g
       id="g885"
       transform="rotate(-12.714254,1353.9929,1689.5112)">
      <path
         sodipodi:type="star"
         style="fill:#f7941e;fill-opacity:1;fill-rule:evenodd;stroke:none;stroke-width:1.32291663;stroke-linecap:square;stroke-linejoin:round;stroke-miterlimit:4;stroke-dasharray:none;stroke-opacity:1"
         id="path798"
         sodipodi:sides="15"
         sodipodi:cx="293.45596"
         sodipodi:cy="-79.86927"
         sodipodi:r1="13.041848"
         sodipodi:r2="12.161809"
         sodipodi:arg1="0.72425"
         sodipodi:arg2="0.93368951"
         inkscape:flatsided="false"
         inkscape:rounded="0.33"
         inkscape:randomized="0"
         d="m 303.22426,-71.228082 c -0.60698,0.686159 -1.79719,0.589754 -2.53357,1.134719 -0.73639,0.544966 -0.99203,1.711382 -1.82563,2.091336 -0.8336,0.379954 -1.88169,-0.192217 -2.77607,0.0061 -0.89438,0.198336 -1.60234,1.15993 -2.51841,1.167981 -0.91607,0.0081 -1.64083,-0.940951 -2.53856,-1.123538 -0.89772,-0.182586 -1.9356,0.407917 -2.77574,0.04267 -0.84015,-0.365244 -1.11626,-1.526987 -1.8621,-2.058926 -0.74585,-0.531938 -1.93418,-0.414629 -2.55313,-1.090015 -0.61896,-0.675385 -0.39867,-1.848993 -0.86368,-2.638307 -0.465,-0.789314 -1.59831,-1.165483 -1.88904,-2.034229 -0.29074,-0.868746 0.38785,-1.851291 0.28409,-2.761501 -0.10377,-0.910209 -0.98609,-1.714813 -0.89834,-2.626706 0.0877,-0.911893 1.10731,-1.533484 1.38273,-2.407206 0.27543,-0.873722 -0.20335,-1.967637 0.24771,-2.765002 0.45106,-0.797365 1.6353,-0.950524 2.24229,-1.636683 0.60699,-0.68616 0.61453,-1.880239 1.35092,-2.425204 0.73638,-0.544966 1.88053,-0.20321 2.71413,-0.583164 0.8336,-0.379953 1.32617,-1.467729 2.22055,-1.666066 0.89437,-0.198336 1.8006,0.579242 2.71667,0.571191 0.91607,-0.0081 1.8085,-0.801436 2.70622,-0.61885 0.89773,0.182587 1.40934,1.261537 2.24949,1.626781 0.84014,0.365245 1.97811,0.0034 2.72396,0.535371 0.74585,0.531939 0.77438,1.725701 1.39333,2.401086 0.61896,0.675385 1.8057,0.807707 2.27071,1.597021 0.46501,0.789314 0.006,1.891475 0.29627,2.760221 0.29073,0.868746 1.32106,1.472322 1.42483,2.382532 0.10376,0.910209 -0.76429,1.730196 -0.85204,2.642089 -0.0877,0.911893 0.60801,1.88236 0.33259,2.756081 -0.27543,0.873722 -1.40195,1.269752 -1.85301,2.067116 -0.45106,0.797365 -0.21018,1.96692 -0.81717,2.65308 z"
         inkscape:transform-center-x="0.010744504"
         inkscape:transform-center-y="0.11696125" />
      <path
         inkscape:transform-center-y="0.11696125"
         inkscape:transform-center-x="0.010744504"
         d="m 317.12532,-75.736505 c -0.60698,0.686159 -1.79719,0.589754 -2.53357,1.134719 -0.73638,0.544966 -0.99203,1.711382 -1.82563,2.091336 -0.83359,0.379954 -1.88169,-0.192216 -2.77607,0.0061 -0.89437,0.198337 -1.60234,1.15993 -2.51841,1.167981 -0.91607,0.0081 -1.64083,-0.940951 -2.53855,-1.123538 -0.89773,-0.182586 -1.93561,0.407917 -2.77575,0.04267 -0.84015,-0.365245 -1.11625,-1.526988 -1.8621,-2.058926 -0.74585,-0.531939 -1.93418,-0.41463 -2.55313,-1.090016 -0.61895,-0.675385 -0.39867,-1.848993 -0.86367,-2.638307 -0.46501,-0.789314 -1.59831,-1.165483 -1.88905,-2.034229 -0.29074,-0.868746 0.38785,-1.851291 0.28409,-2.7615 -0.10376,-0.91021 -0.98609,-1.714814 -0.89834,-2.626707 0.0878,-0.911892 1.10731,-1.533484 1.38274,-2.407206 0.27542,-0.873721 -0.20336,-1.967637 0.2477,-2.765002 0.45106,-0.797365 1.6353,-0.950524 2.24229,-1.636683 0.60699,-0.68616 0.61454,-1.880239 1.35092,-2.425204 0.73638,-0.544966 1.88054,-0.20321 2.71413,-0.583163 0.8336,-0.379954 1.32617,-1.46773 2.22055,-1.666066 0.89438,-0.198337 1.80061,0.579241 2.71668,0.571191 0.91606,-0.0081 1.80849,-0.801437 2.70621,-0.618851 0.89773,0.182587 1.40934,1.261537 2.24949,1.626781 0.84014,0.365245 1.97811,0.0034 2.72396,0.535371 0.74585,0.531939 0.77438,1.725701 1.39333,2.401086 0.61896,0.675385 1.80571,0.807707 2.27071,1.597021 0.46501,0.789314 0.006,1.891475 0.29627,2.760221 0.29074,0.868746 1.32107,1.472322 1.42483,2.382532 0.10376,0.91021 -0.76429,1.730197 -0.85203,2.642089 -0.0877,0.911893 0.608,1.88236 0.33258,2.756082 -0.27543,0.873721 -1.40194,1.269751 -1.85301,2.067116 -0.45106,0.797365 -0.21018,1.966919 -0.81717,2.653079 z"
         inkscape:randomized="0"
         inkscape:rounded="0.33"
         inkscape:flatsided="false"
         sodipodi:arg2="0.93368951"
         sodipodi:arg1="0.72425"
         sodipodi:r2="12.161809"
         sodipodi:r1="13.041848"
         sodipodi:cy="-84.377693"
         sodipodi:cx="307.35703"
         sodipodi:sides="15"
         id="path800"
         style="fill:#6b396c;fill-opacity:1;fill-rule:evenodd;stroke:none;stroke-width:1.32291663;stroke-linecap:square;stroke-linejoin:round;stroke-miterlimit:4;stroke-dasharray:none;stroke-opacity:1"
         sodipodi:type="star" />
    </g>
    <g
       id="g806"
       transform="rotate(90,-15.827316,-13.627584)">
      <path
         sodipodi:type="star"
         style="fill:#6b396c;fill-opacity:1;fill-rule:evenodd;stroke:none;stroke-width:1.32291663;stroke-linecap:square;stroke-linejoin:round;stroke-miterlimit:4;stroke-dasharray:none;stroke-opacity:1"
         id="path802"
         sodipodi:sides="15"
         sodipodi:cx="196.49307"
         sodipodi:cy="211.71526"
         sodipodi:r1="13.041847"
         sodipodi:r2="12.161809"
         sodipodi:arg1="0.72425"
         sodipodi:arg2="0.93368951"
         inkscape:flatsided="false"
         inkscape:rounded="0.33"
         inkscape:randomized="0"
         d="m 206.26137,220.35644 c -0.60699,0.68616 -1.79719,0.58976 -2.53357,1.13472 -0.73639,0.54497 -0.99203,1.71138 -1.82563,2.09134 -0.8336,0.37995 -1.88169,-0.19222 -2.77607,0.006 -0.89438,0.19834 -1.60234,1.15993 -2.51841,1.16798 -0.91607,0.008 -1.64083,-0.94095 -2.53856,-1.12354 -0.89772,-0.18258 -1.9356,0.40792 -2.77574,0.0427 -0.84015,-0.36524 -1.11626,-1.52698 -1.86211,-2.05892 -0.74584,-0.53194 -1.93417,-0.41463 -2.55312,-1.09002 -0.61896,-0.67538 -0.39867,-1.84899 -0.86368,-2.6383 -0.465,-0.78932 -1.59831,-1.16549 -1.88904,-2.03423 -0.29074,-0.86875 0.38785,-1.85129 0.28409,-2.7615 -0.10377,-0.91021 -0.98609,-1.71482 -0.89834,-2.62671 0.0877,-0.91189 1.10731,-1.53348 1.38273,-2.40721 0.27543,-0.87372 -0.20335,-1.96763 0.24771,-2.765 0.45106,-0.79736 1.6353,-0.95052 2.24229,-1.63668 0.60699,-0.68616 0.61453,-1.88024 1.35092,-2.4252 0.73638,-0.54497 1.88053,-0.20321 2.71413,-0.58317 0.8336,-0.37995 1.32617,-1.46773 2.22055,-1.66606 0.89437,-0.19834 1.8006,0.57924 2.71667,0.57119 0.91607,-0.008 1.8085,-0.80144 2.70622,-0.61885 0.89773,0.18258 1.40934,1.26153 2.24949,1.62678 0.84014,0.36524 1.97811,0.003 2.72396,0.53537 0.74585,0.53194 0.77438,1.7257 1.39333,2.40108 0.61896,0.67539 1.8057,0.80771 2.27071,1.59703 0.46501,0.78931 0.006,1.89147 0.29627,2.76022 0.29073,0.86874 1.32106,1.47232 1.42482,2.38253 0.10377,0.91021 -0.76428,1.73019 -0.85203,2.64209 -0.0877,0.91189 0.60801,1.88236 0.33258,2.75608 -0.27542,0.87372 -1.40194,1.26975 -1.853,2.06711 -0.45106,0.79737 -0.21018,1.96692 -0.81717,2.65308 z"
         inkscape:transform-center-x="0.010744504"
         inkscape:transform-center-y="0.11696125" />
      <path
         inkscape:transform-center-y="0.11696125"
         inkscape:transform-center-x="0.010744504"
         d="m 190.48181,227.11909 c -0.60698,0.68616 -1.79719,0.58976 -2.53357,1.13472 -0.73638,0.54497 -0.99203,1.71138 -1.82563,2.09134 -0.83359,0.37995 -1.88169,-0.19222 -2.77606,0.006 -0.89438,0.19834 -1.60235,1.15993 -2.51842,1.16798 -0.91607,0.008 -1.64083,-0.94095 -2.53855,-1.12354 -0.89773,-0.18258 -1.93561,0.40792 -2.77575,0.0427 -0.84015,-0.36524 -1.11625,-1.52698 -1.8621,-2.05892 -0.74585,-0.53194 -1.93418,-0.41463 -2.55313,-1.09002 -0.61895,-0.67538 -0.39867,-1.84899 -0.86367,-2.6383 -0.46501,-0.78932 -1.59831,-1.16549 -1.88905,-2.03423 -0.29074,-0.86875 0.38785,-1.85129 0.28409,-2.7615 -0.10376,-0.91021 -0.98608,-1.71482 -0.89834,-2.62671 0.0877,-0.91189 1.10731,-1.53348 1.38274,-2.40721 0.27542,-0.87372 -0.20336,-1.96763 0.2477,-2.765 0.45107,-0.79736 1.63531,-0.95052 2.24229,-1.63668 0.60699,-0.68616 0.61454,-1.88024 1.35092,-2.4252 0.73639,-0.54497 1.88054,-0.20322 2.71413,-0.58317 0.8336,-0.37995 1.32617,-1.46773 2.22055,-1.66606 0.89438,-0.19834 1.80061,0.57924 2.71668,0.57119 0.91607,-0.008 1.80849,-0.80144 2.70621,-0.61885 0.89773,0.18258 1.40934,1.26153 2.24949,1.62678 0.84014,0.36524 1.97811,0.003 2.72396,0.53537 0.74585,0.53194 0.77438,1.7257 1.39334,2.40108 0.61895,0.67539 1.8057,0.80771 2.2707,1.59702 0.46501,0.78932 0.006,1.89148 0.29627,2.76023 0.29074,0.86874 1.32107,1.47232 1.42483,2.38253 0.10376,0.91021 -0.76428,1.73019 -0.85203,2.64209 -0.0877,0.91189 0.608,1.88236 0.33258,2.75608 -0.27543,0.87372 -1.40194,1.26975 -1.853,2.06711 -0.45107,0.79737 -0.21019,1.96692 -0.81718,2.65308 z"
         inkscape:randomized="0"
         inkscape:rounded="0.33"
         inkscape:flatsided="false"
         sodipodi:arg2="0.93368951"
         sodipodi:arg1="0.72425"
         sodipodi:r2="12.161809"
         sodipodi:r1="13.041847"
         sodipodi:cy="218.47791"
         sodipodi:cx="180.71352"
         sodipodi:sides="15"
         id="path804"
         style="fill:#f7941e;fill-opacity:1;fill-rule:evenodd;stroke:none;stroke-width:1.32291663;stroke-linecap:square;stroke-linejoin:round;stroke-miterlimit:4;stroke-dasharray:none;stroke-opacity:1"
         sodipodi:type="star" />
    </g>
    <g
       transform="matrix(0.97547983,0.22008889,0.22008889,-0.97547983,-338.64253,-222.75019)"
       id="g891">
      <path
         inkscape:transform-center-y="0.11696125"
         inkscape:transform-center-x="0.010744504"
         d="m 303.22426,-71.228082 c -0.60698,0.686159 -1.79719,0.589754 -2.53357,1.134719 -0.73639,0.544966 -0.99203,1.711382 -1.82563,2.091336 -0.8336,0.379954 -1.88169,-0.192217 -2.77607,0.0061 -0.89438,0.198336 -1.60234,1.15993 -2.51841,1.167981 -0.91607,0.0081 -1.64083,-0.940951 -2.53856,-1.123538 -0.89772,-0.182586 -1.9356,0.407917 -2.77574,0.04267 -0.84015,-0.365244 -1.11626,-1.526987 -1.8621,-2.058926 -0.74585,-0.531938 -1.93418,-0.414629 -2.55313,-1.090015 -0.61896,-0.675385 -0.39867,-1.848993 -0.86368,-2.638307 -0.465,-0.789314 -1.59831,-1.165483 -1.88904,-2.034229 -0.29074,-0.868746 0.38785,-1.851291 0.28409,-2.761501 -0.10377,-0.910209 -0.98609,-1.714813 -0.89834,-2.626706 0.0877,-0.911893 1.10731,-1.533484 1.38273,-2.407206 0.27543,-0.873722 -0.20335,-1.967637 0.24771,-2.765002 0.45106,-0.797365 1.6353,-0.950524 2.24229,-1.636683 0.60699,-0.68616 0.61453,-1.880239 1.35092,-2.425204 0.73638,-0.544966 1.88053,-0.20321 2.71413,-0.583164 0.8336,-0.379953 1.32617,-1.467729 2.22055,-1.666066 0.89437,-0.198336 1.8006,0.579242 2.71667,0.571191 0.91607,-0.0081 1.8085,-0.801436 2.70622,-0.61885 0.89773,0.182587 1.40934,1.261537 2.24949,1.626781 0.84014,0.365245 1.97811,0.0034 2.72396,0.535371 0.74585,0.531939 0.77438,1.725701 1.39333,2.401086 0.61896,0.675385 1.8057,0.807707 2.27071,1.597021 0.46501,0.789314 0.006,1.891475 0.29627,2.760221 0.29073,0.868746 1.32106,1.472322 1.42483,2.382532 0.10376,0.910209 -0.76429,1.730196 -0.85204,2.642089 -0.0877,0.911893 0.60801,1.88236 0.33259,2.756081 -0.27543,0.873722 -1.40195,1.269752 -1.85301,2.067116 -0.45106,0.797365 -0.21018,1.96692 -0.81717,2.65308 z"
         inkscape:randomized="0"
         inkscape:rounded="0.33"
         inkscape:flatsided="false"
         sodipodi:arg2="0.93368951"
         sodipodi:arg1="0.72425"
         sodipodi:r2="12.161809"
         sodipodi:r1="13.041848"
         sodipodi:cy="-79.86927"
         sodipodi:cx="293.45596"
         sodipodi:sides="15"
         id="path887"
         style="fill:#f7941e;fill-opacity:1;fill-rule:evenodd;stroke:none;stroke-width:1.32291663;stroke-linecap:square;stroke-linejoin:round;stroke-miterlimit:4;stroke-dasharray:none;stroke-opacity:1"
         sodipodi:type="star" />
      <path
         sodipodi:type="star"
         style="fill:#6b396c;fill-opacity:1;fill-rule:evenodd;stroke:none;stroke-width:1.32291663;stroke-linecap:square;stroke-linejoin:round;stroke-miterlimit:4;stroke-dasharray:none;stroke-opacity:1"
         id="path889"
         sodipodi:sides="15"
         sodipodi:cx="307.35703"
         sodipodi:cy="-84.377693"
         sodipodi:r1="13.041848"
         sodipodi:r2="12.161809"
         sodipodi:arg1="0.72425"
         sodipodi:arg2="0.93368951"
         inkscape:flatsided="false"
         inkscape:rounded="0.33"
         inkscape:randomized="0"
         d="m 317.12532,-75.736505 c -0.60698,0.686159 -1.79719,0.589754 -2.53357,1.134719 -0.73638,0.544966 -0.99203,1.711382 -1.82563,2.091336 -0.83359,0.379954 -1.88169,-0.192216 -2.77607,0.0061 -0.89437,0.198337 -1.60234,1.15993 -2.51841,1.167981 -0.91607,0.0081 -1.64083,-0.940951 -2.53855,-1.123538 -0.89773,-0.182586 -1.93561,0.407917 -2.77575,0.04267 -0.84015,-0.365245 -1.11625,-1.526988 -1.8621,-2.058926 -0.74585,-0.531939 -1.93418,-0.41463 -2.55313,-1.090016 -0.61895,-0.675385 -0.39867,-1.848993 -0.86367,-2.638307 -0.46501,-0.789314 -1.59831,-1.165483 -1.88905,-2.034229 -0.29074,-0.868746 0.38785,-1.851291 0.28409,-2.7615 -0.10376,-0.91021 -0.98609,-1.714814 -0.89834,-2.626707 0.0878,-0.911892 1.10731,-1.533484 1.38274,-2.407206 0.27542,-0.873721 -0.20336,-1.967637 0.2477,-2.765002 0.45106,-0.797365 1.6353,-0.950524 2.24229,-1.636683 0.60699,-0.68616 0.61454,-1.880239 1.35092,-2.425204 0.73638,-0.544966 1.88054,-0.20321 2.71413,-0.583163 0.8336,-0.379954 1.32617,-1.46773 2.22055,-1.666066 0.89438,-0.198337 1.80061,0.579241 2.71668,0.571191 0.91606,-0.0081 1.80849,-0.801437 2.70621,-0.618851 0.89773,0.182587 1.40934,1.261537 2.24949,1.626781 0.84014,0.365245 1.97811,0.0034 2.72396,0.535371 0.74585,0.531939 0.77438,1.725701 1.39333,2.401086 0.61896,0.675385 1.80571,0.807707 2.27071,1.597021 0.46501,0.789314 0.006,1.891475 0.29627,2.760221 0.29074,0.868746 1.32107,1.472322 1.42483,2.382532 0.10376,0.91021 -0.76429,1.730197 -0.85203,2.642089 -0.0877,0.911893 0.608,1.88236 0.33258,2.756082 -0.27543,0.873721 -1.40194,1.269751 -1.85301,2.067116 -0.45106,0.797365 -0.21018,1.966919 -0.81717,2.653079 z"
         inkscape:transform-center-x="0.010744504"
         inkscape:transform-center-y="0.11696125" />
    </g>
    <g
       transform="matrix(0,-1,-1,0,-29.45489,114.47596)"
       id="g897">
      <path
         inkscape:transform-center-y="0.11696125"
         inkscape:transform-center-x="0.010744504"
         d="m 206.26137,220.35644 c -0.60699,0.68616 -1.79719,0.58976 -2.53357,1.13472 -0.73639,0.54497 -0.99203,1.71138 -1.82563,2.09134 -0.8336,0.37995 -1.88169,-0.19222 -2.77607,0.006 -0.89438,0.19834 -1.60234,1.15993 -2.51841,1.16798 -0.91607,0.008 -1.64083,-0.94095 -2.53856,-1.12354 -0.89772,-0.18258 -1.9356,0.40792 -2.77574,0.0427 -0.84015,-0.36524 -1.11626,-1.52698 -1.86211,-2.05892 -0.74584,-0.53194 -1.93417,-0.41463 -2.55312,-1.09002 -0.61896,-0.67538 -0.39867,-1.84899 -0.86368,-2.6383 -0.465,-0.78932 -1.59831,-1.16549 -1.88904,-2.03423 -0.29074,-0.86875 0.38785,-1.85129 0.28409,-2.7615 -0.10377,-0.91021 -0.98609,-1.71482 -0.89834,-2.62671 0.0877,-0.91189 1.10731,-1.53348 1.38273,-2.40721 0.27543,-0.87372 -0.20335,-1.96763 0.24771,-2.765 0.45106,-0.79736 1.6353,-0.95052 2.24229,-1.63668 0.60699,-0.68616 0.61453,-1.88024 1.35092,-2.4252 0.73638,-0.54497 1.88053,-0.20321 2.71413,-0.58317 0.8336,-0.37995 1.32617,-1.46773 2.22055,-1.66606 0.89437,-0.19834 1.8006,0.57924 2.71667,0.57119 0.91607,-0.008 1.8085,-0.80144 2.70622,-0.61885 0.89773,0.18258 1.40934,1.26153 2.24949,1.62678 0.84014,0.36524 1.97811,0.003 2.72396,0.53537 0.74585,0.53194 0.77438,1.7257 1.39333,2.40108 0.61896,0.67539 1.8057,0.80771 2.27071,1.59703 0.46501,0.78931 0.006,1.89147 0.29627,2.76022 0.29073,0.86874 1.32106,1.47232 1.42482,2.38253 0.10377,0.91021 -0.76428,1.73019 -0.85203,2.64209 -0.0877,0.91189 0.60801,1.88236 0.33258,2.75608 -0.27542,0.87372 -1.40194,1.26975 -1.853,2.06711 -0.45106,0.79737 -0.21018,1.96692 -0.81717,2.65308 z"
         inkscape:randomized="0"
         inkscape:rounded="0.33"
         inkscape:flatsided="false"
         sodipodi:arg2="0.93368951"
         sodipodi:arg1="0.72425"
         sodipodi:r2="12.161809"
         sodipodi:r1="13.041847"
         sodipodi:cy="211.71526"
         sodipodi:cx="196.49307"
         sodipodi:sides="15"
         id="path893"
         style="fill:#6b396c;fill-opacity:1;fill-rule:evenodd;stroke:none;stroke-width:1.32291663;stroke-linecap:square;stroke-linejoin:round;stroke-miterlimit:4;stroke-dasharray:none;stroke-opacity:1"
         sodipodi:type="star" />
      <path
         sodipodi:type="star"
         style="fill:#f7941e;fill-opacity:1;fill-rule:evenodd;stroke:none;stroke-width:1.32291663;stroke-linecap:square;stroke-linejoin:round;stroke-miterlimit:4;stroke-dasharray:none;stroke-opacity:1"
         id="path895"
         sodipodi:sides="15"
         sodipodi:cx="180.71352"
         sodipodi:cy="218.47791"
         sodipodi:r1="13.041847"
         sodipodi:r2="12.161809"
         sodipodi:arg1="0.72425"
         sodipodi:arg2="0.93368951"
         inkscape:flatsided="false"
         inkscape:rounded="0.33"
         inkscape:randomized="0"
         d="m 190.48181,227.11909 c -0.60698,0.68616 -1.79719,0.58976 -2.53357,1.13472 -0.73638,0.54497 -0.99203,1.71138 -1.82563,2.09134 -0.83359,0.37995 -1.88169,-0.19222 -2.77606,0.006 -0.89438,0.19834 -1.60235,1.15993 -2.51842,1.16798 -0.91607,0.008 -1.64083,-0.94095 -2.53855,-1.12354 -0.89773,-0.18258 -1.93561,0.40792 -2.77575,0.0427 -0.84015,-0.36524 -1.11625,-1.52698 -1.8621,-2.05892 -0.74585,-0.53194 -1.93418,-0.41463 -2.55313,-1.09002 -0.61895,-0.67538 -0.39867,-1.84899 -0.86367,-2.6383 -0.46501,-0.78932 -1.59831,-1.16549 -1.88905,-2.03423 -0.29074,-0.86875 0.38785,-1.85129 0.28409,-2.7615 -0.10376,-0.91021 -0.98608,-1.71482 -0.89834,-2.62671 0.0877,-0.91189 1.10731,-1.53348 1.38274,-2.40721 0.27542,-0.87372 -0.20336,-1.96763 0.2477,-2.765 0.45107,-0.79736 1.63531,-0.95052 2.24229,-1.63668 0.60699,-0.68616 0.61454,-1.88024 1.35092,-2.4252 0.73639,-0.54497 1.88054,-0.20322 2.71413,-0.58317 0.8336,-0.37995 1.32617,-1.46773 2.22055,-1.66606 0.89438,-0.19834 1.80061,0.57924 2.71668,0.57119 0.91607,-0.008 1.80849,-0.80144 2.70621,-0.61885 0.89773,0.18258 1.40934,1.26153 2.24949,1.62678 0.84014,0.36524 1.97811,0.003 2.72396,0.53537 0.74585,0.53194 0.77438,1.7257 1.39334,2.40108 0.61895,0.67539 1.8057,0.80771 2.2707,1.59702 0.46501,0.78932 0.006,1.89148 0.29627,2.76023 0.29074,0.86874 1.32107,1.47232 1.42483,2.38253 0.10376,0.91021 -0.76428,1.73019 -0.85203,2.64209 -0.0877,0.91189 0.608,1.88236 0.33258,2.75608 -0.27543,0.87372 -1.40194,1.26975 -1.853,2.06711 -0.45107,0.79737 -0.21019,1.96692 -0.81718,2.65308 z"
         inkscape:transform-center-x="0.010744504"
         inkscape:transform-center-y="0.11696125" />
    </g>
    <g
       id="g571"
       transform="matrix(0.97547983,0.22008889,0.22008889,-0.97547983,-570.85886,-135.64105)">
      <path
         sodipodi:type="star"
         style="fill:#f7941e;fill-opacity:1;fill-rule:evenodd;stroke:none;stroke-width:1.32291663;stroke-linecap:square;stroke-linejoin:round;stroke-miterlimit:4;stroke-dasharray:none;stroke-opacity:1"
         id="path567"
         sodipodi:sides="15"
         sodipodi:cx="293.45596"
         sodipodi:cy="-79.86927"
         sodipodi:r1="13.041848"
         sodipodi:r2="12.161809"
         sodipodi:arg1="0.72425"
         sodipodi:arg2="0.93368951"
         inkscape:flatsided="false"
         inkscape:rounded="0.33"
         inkscape:randomized="0"
         d="m 303.22426,-71.228082 c -0.60698,0.686159 -1.79719,0.589754 -2.53357,1.134719 -0.73639,0.544966 -0.99203,1.711382 -1.82563,2.091336 -0.8336,0.379954 -1.88169,-0.192217 -2.77607,0.0061 -0.89438,0.198336 -1.60234,1.15993 -2.51841,1.167981 -0.91607,0.0081 -1.64083,-0.940951 -2.53856,-1.123538 -0.89772,-0.182586 -1.9356,0.407917 -2.77574,0.04267 -0.84015,-0.365244 -1.11626,-1.526987 -1.8621,-2.058926 -0.74585,-0.531938 -1.93418,-0.414629 -2.55313,-1.090015 -0.61896,-0.675385 -0.39867,-1.848993 -0.86368,-2.638307 -0.465,-0.789314 -1.59831,-1.165483 -1.88904,-2.034229 -0.29074,-0.868746 0.38785,-1.851291 0.28409,-2.761501 -0.10377,-0.910209 -0.98609,-1.714813 -0.89834,-2.626706 0.0877,-0.911893 1.10731,-1.533484 1.38273,-2.407206 0.27543,-0.873722 -0.20335,-1.967637 0.24771,-2.765002 0.45106,-0.797365 1.6353,-0.950524 2.24229,-1.636683 0.60699,-0.68616 0.61453,-1.880239 1.35092,-2.425204 0.73638,-0.544966 1.88053,-0.20321 2.71413,-0.583164 0.8336,-0.379953 1.32617,-1.467729 2.22055,-1.666066 0.89437,-0.198336 1.8006,0.579242 2.71667,0.571191 0.91607,-0.0081 1.8085,-0.801436 2.70622,-0.61885 0.89773,0.182587 1.40934,1.261537 2.24949,1.626781 0.84014,0.365245 1.97811,0.0034 2.72396,0.535371 0.74585,0.531939 0.77438,1.725701 1.39333,2.401086 0.61896,0.675385 1.8057,0.807707 2.27071,1.597021 0.46501,0.789314 0.006,1.891475 0.29627,2.760221 0.29073,0.868746 1.32106,1.472322 1.42483,2.382532 0.10376,0.910209 -0.76429,1.730196 -0.85204,2.642089 -0.0877,0.911893 0.60801,1.88236 0.33259,2.756081 -0.27543,0.873722 -1.40195,1.269752 -1.85301,2.067116 -0.45106,0.797365 -0.21018,1.96692 -0.81717,2.65308 z"
         inkscape:transform-center-x="0.010744504"
         inkscape:transform-center-y="0.11696125" />
      <path
         inkscape:transform-center-y="0.11696125"
         inkscape:transform-center-x="0.010744504"
         d="m 317.12532,-75.736505 c -0.60698,0.686159 -1.79719,0.589754 -2.53357,1.134719 -0.73638,0.544966 -0.99203,1.711382 -1.82563,2.091336 -0.83359,0.379954 -1.88169,-0.192216 -2.77607,0.0061 -0.89437,0.198337 -1.60234,1.15993 -2.51841,1.167981 -0.91607,0.0081 -1.64083,-0.940951 -2.53855,-1.123538 -0.89773,-0.182586 -1.93561,0.407917 -2.77575,0.04267 -0.84015,-0.365245 -1.11625,-1.526988 -1.8621,-2.058926 -0.74585,-0.531939 -1.93418,-0.41463 -2.55313,-1.090016 -0.61895,-0.675385 -0.39867,-1.848993 -0.86367,-2.638307 -0.46501,-0.789314 -1.59831,-1.165483 -1.88905,-2.034229 -0.29074,-0.868746 0.38785,-1.851291 0.28409,-2.7615 -0.10376,-0.91021 -0.98609,-1.714814 -0.89834,-2.626707 0.0878,-0.911892 1.10731,-1.533484 1.38274,-2.407206 0.27542,-0.873721 -0.20336,-1.967637 0.2477,-2.765002 0.45106,-0.797365 1.6353,-0.950524 2.24229,-1.636683 0.60699,-0.68616 0.61454,-1.880239 1.35092,-2.425204 0.73638,-0.544966 1.88054,-0.20321 2.71413,-0.583163 0.8336,-0.379954 1.32617,-1.46773 2.22055,-1.666066 0.89438,-0.198337 1.80061,0.579241 2.71668,0.571191 0.91606,-0.0081 1.80849,-0.801437 2.70621,-0.618851 0.89773,0.182587 1.40934,1.261537 2.24949,1.626781 0.84014,0.365245 1.97811,0.0034 2.72396,0.535371 0.74585,0.531939 0.77438,1.725701 1.39333,2.401086 0.61896,0.675385 1.80571,0.807707 2.27071,1.597021 0.46501,0.789314 0.006,1.891475 0.29627,2.760221 0.29074,0.868746 1.32107,1.472322 1.42483,2.382532 0.10376,0.91021 -0.76429,1.730197 -0.85203,2.642089 -0.0877,0.911893 0.608,1.88236 0.33258,2.756082 -0.27543,0.873721 -1.40194,1.269751 -1.85301,2.067116 -0.45106,0.797365 -0.21018,1.966919 -0.81717,2.653079 z"
         inkscape:randomized="0"
         inkscape:rounded="0.33"
         inkscape:flatsided="false"
         sodipodi:arg2="0.93368951"
         sodipodi:arg1="0.72425"
         sodipodi:r2="12.161809"
         sodipodi:r1="13.041848"
         sodipodi:cy="-84.377693"
         sodipodi:cx="307.35703"
         sodipodi:sides="15"
         id="path569"
         style="fill:#6b396c;fill-opacity:1;fill-rule:evenodd;stroke:none;stroke-width:1.32291663;stroke-linecap:square;stroke-linejoin:round;stroke-miterlimit:4;stroke-dasharray:none;stroke-opacity:1"
         sodipodi:type="star" />
    </g>
    <g
       id="g577"
       transform="matrix(0,-1,-1,0,-261.67122,201.5851)">
      <path
         sodipodi:type="star"
         style="fill:#6b396c;fill-opacity:1;fill-rule:evenodd;stroke:none;stroke-width:1.32291663;stroke-linecap:square;stroke-linejoin:round;stroke-miterlimit:4;stroke-dasharray:none;stroke-opacity:1"
         id="path573"
         sodipodi:sides="15"
         sodipodi:cx="196.49307"
         sodipodi:cy="211.71526"
         sodipodi:r1="13.041847"
         sodipodi:r2="12.161809"
         sodipodi:arg1="0.72425"
         sodipodi:arg2="0.93368951"
         inkscape:flatsided="false"
         inkscape:rounded="0.33"
         inkscape:randomized="0"
         d="m 206.26137,220.35644 c -0.60699,0.68616 -1.79719,0.58976 -2.53357,1.13472 -0.73639,0.54497 -0.99203,1.71138 -1.82563,2.09134 -0.8336,0.37995 -1.88169,-0.19222 -2.77607,0.006 -0.89438,0.19834 -1.60234,1.15993 -2.51841,1.16798 -0.91607,0.008 -1.64083,-0.94095 -2.53856,-1.12354 -0.89772,-0.18258 -1.9356,0.40792 -2.77574,0.0427 -0.84015,-0.36524 -1.11626,-1.52698 -1.86211,-2.05892 -0.74584,-0.53194 -1.93417,-0.41463 -2.55312,-1.09002 -0.61896,-0.67538 -0.39867,-1.84899 -0.86368,-2.6383 -0.465,-0.78932 -1.59831,-1.16549 -1.88904,-2.03423 -0.29074,-0.86875 0.38785,-1.85129 0.28409,-2.7615 -0.10377,-0.91021 -0.98609,-1.71482 -0.89834,-2.62671 0.0877,-0.91189 1.10731,-1.53348 1.38273,-2.40721 0.27543,-0.87372 -0.20335,-1.96763 0.24771,-2.765 0.45106,-0.79736 1.6353,-0.95052 2.24229,-1.63668 0.60699,-0.68616 0.61453,-1.88024 1.35092,-2.4252 0.73638,-0.54497 1.88053,-0.20321 2.71413,-0.58317 0.8336,-0.37995 1.32617,-1.46773 2.22055,-1.66606 0.89437,-0.19834 1.8006,0.57924 2.71667,0.57119 0.91607,-0.008 1.8085,-0.80144 2.70622,-0.61885 0.89773,0.18258 1.40934,1.26153 2.24949,1.62678 0.84014,0.36524 1.97811,0.003 2.72396,0.53537 0.74585,0.53194 0.77438,1.7257 1.39333,2.40108 0.61896,0.67539 1.8057,0.80771 2.27071,1.59703 0.46501,0.78931 0.006,1.89147 0.29627,2.76022 0.29073,0.86874 1.32106,1.47232 1.42482,2.38253 0.10377,0.91021 -0.76428,1.73019 -0.85203,2.64209 -0.0877,0.91189 0.60801,1.88236 0.33258,2.75608 -0.27542,0.87372 -1.40194,1.26975 -1.853,2.06711 -0.45106,0.79737 -0.21018,1.96692 -0.81717,2.65308 z"
         inkscape:transform-center-x="0.010744504"
         inkscape:transform-center-y="0.11696125" />
      <path
         inkscape:transform-center-y="0.11696125"
         inkscape:transform-center-x="0.010744504"
         d="m 190.48181,227.11909 c -0.60698,0.68616 -1.79719,0.58976 -2.53357,1.13472 -0.73638,0.54497 -0.99203,1.71138 -1.82563,2.09134 -0.83359,0.37995 -1.88169,-0.19222 -2.77606,0.006 -0.89438,0.19834 -1.60235,1.15993 -2.51842,1.16798 -0.91607,0.008 -1.64083,-0.94095 -2.53855,-1.12354 -0.89773,-0.18258 -1.93561,0.40792 -2.77575,0.0427 -0.84015,-0.36524 -1.11625,-1.52698 -1.8621,-2.05892 -0.74585,-0.53194 -1.93418,-0.41463 -2.55313,-1.09002 -0.61895,-0.67538 -0.39867,-1.84899 -0.86367,-2.6383 -0.46501,-0.78932 -1.59831,-1.16549 -1.88905,-2.03423 -0.29074,-0.86875 0.38785,-1.85129 0.28409,-2.7615 -0.10376,-0.91021 -0.98608,-1.71482 -0.89834,-2.62671 0.0877,-0.91189 1.10731,-1.53348 1.38274,-2.40721 0.27542,-0.87372 -0.20336,-1.96763 0.2477,-2.765 0.45107,-0.79736 1.63531,-0.95052 2.24229,-1.63668 0.60699,-0.68616 0.61454,-1.88024 1.35092,-2.4252 0.73639,-0.54497 1.88054,-0.20322 2.71413,-0.58317 0.8336,-0.37995 1.32617,-1.46773 2.22055,-1.66606 0.89438,-0.19834 1.80061,0.57924 2.71668,0.57119 0.91607,-0.008 1.80849,-0.80144 2.70621,-0.61885 0.89773,0.18258 1.40934,1.26153 2.24949,1.62678 0.84014,0.36524 1.97811,0.003 2.72396,0.53537 0.74585,0.53194 0.77438,1.7257 1.39334,2.40108 0.61895,0.67539 1.8057,0.80771 2.2707,1.59702 0.46501,0.78932 0.006,1.89148 0.29627,2.76023 0.29074,0.86874 1.32107,1.47232 1.42483,2.38253 0.10376,0.91021 -0.76428,1.73019 -0.85203,2.64209 -0.0877,0.91189 0.608,1.88236 0.33258,2.75608 -0.27543,0.87372 -1.40194,1.26975 -1.853,2.06711 -0.45107,0.79737 -0.21019,1.96692 -0.81718,2.65308 z"
         inkscape:randomized="0"
         inkscape:rounded="0.33"
         inkscape:flatsided="false"
         sodipodi:arg2="0.93368951"
         sodipodi:arg1="0.72425"
         sodipodi:r2="12.161809"
         sodipodi:r1="13.041847"
         sodipodi:cy="218.47791"
         sodipodi:cx="180.71352"
         sodipodi:sides="15"
         id="path575"
         style="fill:#f7941e;fill-opacity:1;fill-rule:evenodd;stroke:none;stroke-width:1.32291663;stroke-linecap:square;stroke-linejoin:round;stroke-miterlimit:4;stroke-dasharray:none;stroke-opacity:1"
         sodipodi:type="star" />
    </g>
    <g
       id="g613"
       transform="matrix(1.2461889,0,0,1.2461889,327.52821,-46.338678)">
      <text
         id="text603"
         y="147.09367"
         x="-435.60266"
         style="font-style:normal;font-weight:normal;font-size:10.58333302px;line-height:1.25;font-family:sans-serif;letter-spacing:0px;word-spacing:0px;fill:#6b396c;fill-opacity:1;stroke:none;stroke-width:0.26458332"
         xml:space="preserve"><tspan
           style="font-style:normal;font-variant:normal;font-weight:normal;font-stretch:normal;font-family:Lato;-inkscape-font-specification:Lato;fill:#6b396c;fill-opacity:1;stroke-width:0.26458332"
           y="147.09367"
           x="-435.60266"
           id="tspan601"
           sodipodi:role="line">Inscrições* abertas</tspan></text>
      <text
         xml:space="preserve"
         style="font-style:normal;font-weight:normal;font-size:10.58333302px;line-height:1.25;font-family:sans-serif;letter-spacing:0px;word-spacing:0px;fill:#6b396c;fill-opacity:1;stroke:none;stroke-width:0.26458332"
         x="-439.15799"
         y="159.86761"
         id="text607"><tspan
           sodipodi:role="line"
           id="tspan605"
           x="-439.15799"
           y="159.86761"
           style="font-style:normal;font-variant:normal;font-weight:normal;font-stretch:normal;font-family:Lato;-inkscape-font-specification:Lato;fill:#6b396c;fill-opacity:1;stroke-width:0.26458332">até o dia 13 de Julho</tspan></text>
      <text
         xml:space="preserve"
         style="font-style:normal;font-weight:normal;font-size:8.29671383px;line-height:1.25;font-family:sans-serif;letter-spacing:0px;word-spacing:0px;fill:#6b396c;fill-opacity:1;stroke:none;stroke-width:0.20741785"
         x="-423.5372"
         y="170.065"
         id="text611"><tspan
           sodipodi:role="line"
           id="tspan609"
           x="-423.5372"
           y="170.065"
           style="font-style:normal;font-variant:normal;font-weight:normal;font-stretch:normal;font-family:Lato;-inkscape-font-specification:Lato;fill:#6b396c;fill-opacity:1;stroke-width:0.20741785">* apenas mulheres</tspan></text>
    </g>
  </g>
</svg>
