<?xml version="1.0" encoding="UTF-8" standalone="no"?>
<!-- Generator: Adobe Illustrator 17.1.0, SVG Export Plug-In . SVG Version: 6.00 Build 0)  -->

<svg
   xmlns:dc="http://purl.org/dc/elements/1.1/"
   xmlns:cc="http://creativecommons.org/ns#"
   xmlns:rdf="http://www.w3.org/1999/02/22-rdf-syntax-ns#"
   xmlns:svg="http://www.w3.org/2000/svg"
   xmlns="http://www.w3.org/2000/svg"
   xmlns:sodipodi="http://sodipodi.sourceforge.net/DTD/sodipodi-0.dtd"
   xmlns:inkscape="http://www.inkscape.org/namespaces/inkscape"
   version="1.1"
   x="0px"
   y="0px"
   viewBox="0 0 170.1 113.4"
   enable-background="new 0 0 170.1 113.4"
   xml:space="preserve"
   id="svg73"
   sodipodi:docname="nametag.svg"
   inkscape:version="0.92.3 (unknown)"><metadata
   id="metadata79"><rdf:RDF><cc:Work
       rdf:about=""><dc:format>image/svg+xml</dc:format><dc:type
         rdf:resource="http://purl.org/dc/dcmitype/StillImage" /><dc:title></dc:title></cc:Work></rdf:RDF></metadata><defs
   id="defs77" /><sodipodi:namedview
   pagecolor="#ffffff"
   bordercolor="#666666"
   borderopacity="1"
   objecttolerance="10"
   gridtolerance="10"
   guidetolerance="10"
   inkscape:pageopacity="0"
   inkscape:pageshadow="2"
   inkscape:window-width="1325"
   inkscape:window-height="713"
   id="namedview75"
   showgrid="false"
   inkscape:zoom="4.691358"
   inkscape:cx="91.977635"
   inkscape:cy="56.700001"
   inkscape:window-x="41"
   inkscape:window-y="27"
   inkscape:window-maximized="1"
   inkscape:current-layer="Réteg_1" />
<g
   id="Réteg_1">
	
		<rect
   x="7.1"
   y="8"
   display="none"
   fill="#FFFFFF"
   stroke="#000000"
   stroke-width="0.2"
   stroke-miterlimit="10"
   width="155.9"
   height="97.3"
   id="rect2" />
	<g
   id="g34">
		<g
   id="g20">
			<g
   id="g18">
				<g
   id="g16">
					<path
   fill="#CA325F"
   d="M13.3,88.2h2.6V100c-1.3,0.2-2.3,0.3-3.3,0.3c-3.1,0-4.7-1.4-4.7-4.1c0-2.6,1.7-4.3,4.4-4.3       c0.4,0,0.7,0,1.1,0.1L13.3,88.2L13.3,88.2z M13.3,94.2C13,94.1,12.7,94,12.4,94c-1.3,0-2,0.8-2,2.2c0,1.4,0.7,2.1,2,2.1       c0.3,0,0.5,0,0.9-0.1L13.3,94.2z"
   id="path4" />
					<path
   fill="#CA325F"
   d="M19.9,92.1v5.9c0,2-0.1,3-0.6,3.9c-0.4,0.8-1,1.3-2.1,1.9l-2.4-1.1c1.1-0.5,1.7-1,2-1.7       c0.4-0.7,0.5-1.6,0.5-3.8v-5H19.9z M17.3,88.2h2.6v2.6h-2.6V88.2z"
   id="path6" />
					<path
   fill="#CA325F"
   d="M21.4,92.7c1.1-0.5,2.2-0.8,3.4-0.8c1.3,0,2.2,0.3,2.6,1c0.2,0.4,0.3,0.9,0.3,1.9v5.2       c-1.1,0.2-2.6,0.3-3.6,0.3c-2.1,0-3.1-0.7-3.1-2.4c0-1.8,1.3-2.6,4.4-2.9v-0.6c0-0.5-0.2-0.6-0.9-0.6c-0.9,0-2,0.3-3,0.8       L21.4,92.7L21.4,92.7z M25.4,96.8c-1.7,0.2-2.2,0.4-2.2,1.1c0,0.5,0.3,0.7,1,0.7c0.4,0,0.7,0,1.2-0.1L25.4,96.8L25.4,96.8z"
   id="path8" />
					<path
   fill="#CA325F"
   d="M28.9,92.5c1.5-0.4,2.7-0.6,4-0.6c1.3,0,2.3,0.3,2.8,0.9c0.5,0.5,0.7,1.1,0.7,2.4v5h-2.6v-4.9       c0-1-0.3-1.3-1.2-1.3c-0.3,0-0.7,0-1.2,0.2v6.1h-2.6L28.9,92.5L28.9,92.5z"
   id="path10" />
					<path
   fill="#CA325F"
   d="M37.4,101.7c0.9,0.5,1.8,0.7,2.7,0.7c1.7,0,2.4-0.7,2.4-2.3c0,0,0,0,0,0c-0.5,0.2-1,0.3-1.7,0.3       c-2.2,0-3.7-1.5-3.7-3.8c0-2.9,2.1-4.5,5.8-4.5c1.1,0,2.1,0.1,3.3,0.4l-0.9,1.8c-0.7-0.1-0.1,0-0.6-0.1v0.3l0,1.1l0,1.4       c0,0.3,0,0.7,0,1c0,0.3,0,0.5,0,0.7c0,2.2-0.2,3.2-0.7,4.1c-0.8,1.2-2.2,1.9-4.1,1.9c-1,0-1.9-0.1-2.7-0.5L37.4,101.7       L37.4,101.7z M42.5,94C42.4,94,42.4,94,42.5,94h-0.3c-0.5,0-1.1,0.1-1.5,0.4c-0.6,0.3-0.9,1-0.9,1.9c0,1.3,0.6,2,1.8,2       c0.3,0,0.6-0.1,1-0.2v-0.2v-0.7c0-0.3,0-0.6,0-1l0-1.2l0-0.8L42.5,94L42.5,94z"
   id="path12" />
					<path
   fill="#CA325F"
   d="M50.3,91.9c2.6,0,4.1,1.6,4.1,4.2c0,2.7-1.6,4.3-4.2,4.3c-2.6,0-4.1-1.6-4.1-4.2       C46.1,93.6,47.7,91.9,50.3,91.9z M50.3,98.4c1,0,1.6-0.8,1.6-2.2c0-1.4-0.6-2.2-1.5-2.2c-1,0-1.6,0.8-1.6,2.2       C48.7,97.6,49.3,98.4,50.3,98.4z"
   id="path14" />
				</g>
			</g>
		</g>
		<g
   id="g32">
			<path
   fill="#CA325F"
   d="M60.5,108.1c-0.3,0-0.6,0-0.9-0.1c-0.3-0.1-0.6-0.2-0.8-0.3c-0.2-0.1-0.4-0.3-0.5-0.5s-0.2-0.4-0.1-0.7     c0.2,0,0.4,0,0.6,0.1c0.2,0.1,0.3,0.2,0.5,0.3c0.2,0.1,0.3,0.2,0.5,0.3c0.2,0.1,0.4,0.1,0.7,0.1c0.6,0,1.2-0.1,1.6-0.4     c0.4-0.3,0.8-0.6,1-1.1c0.3-0.4,0.4-0.9,0.6-1.5c0.1-0.6,0.2-1.1,0.2-1.7c0-0.2,0-0.4,0-0.7s0-0.7-0.1-1.1c0-0.4,0-0.8-0.1-1.3     c0-0.5-0.1-0.9-0.1-1.3c0-0.4-0.1-0.8-0.1-1.1c0-0.3-0.1-0.6-0.1-0.7c-0.1,0.2-0.2,0.5-0.3,0.8c-0.1,0.3-0.3,0.6-0.4,1     c-0.2,0.3-0.4,0.7-0.6,1s-0.4,0.6-0.7,0.9c-0.3,0.3-0.5,0.5-0.9,0.7s-0.6,0.3-1,0.3c-0.2,0-0.3-0.1-0.4-0.3     c-0.1-0.2-0.2-0.4-0.2-0.6c-0.1-0.2-0.1-0.5-0.1-0.7c0-0.2,0-0.4,0-0.5c-0.1-0.7-0.1-1.4,0-2.1c0.1-0.7,0.2-1.3,0.3-1.9     c0.2-0.6,0.4-1.1,0.7-1.6c0.3-0.5,0.6-0.8,1-1.1c0.4-0.3,0.9-0.4,1.4-0.5c0.5,0,1.1,0.1,1.7,0.4c0.2,0,0.3,0.1,0.4,0.3     c0.1,0.2,0.1,0.5,0.1,0.8c0,0.3,0,0.6-0.1,1c0,0.3-0.1,0.6-0.1,0.9c0,0.6,0,1.1,0.1,1.7c0,0.6,0.1,1.1,0.2,1.7     c0.1,0.6,0.1,1.1,0.2,1.7c0,0.6,0.1,1.1,0.1,1.7c0,0.7-0.1,1.3-0.2,2.1c-0.1,0.7-0.4,1.4-0.7,2c-0.3,0.6-0.7,1.1-1.3,1.5     C61.9,107.9,61.2,108.1,60.5,108.1z M59.5,98.6c0,0.1,0,0.2,0,0.4c0,0.2,0,0.3,0.1,0.5c0,0.1,0.1,0.3,0.2,0.4     c0.1,0.1,0.2,0.2,0.4,0.2c0.3,0,0.6-0.1,0.8-0.4s0.5-0.6,0.7-1.1c0.2-0.4,0.4-0.9,0.6-1.4s0.3-1,0.5-1.5c0.1-0.5,0.2-1,0.3-1.4     s0.1-0.7,0.1-0.9c-0.7-0.2-1.2-0.2-1.7,0c-0.5,0.3-0.8,0.6-1.1,1.2c-0.3,0.5-0.5,1.2-0.6,1.9S59.4,97.8,59.5,98.6z"
   id="path22" />
			<path
   fill="#CA325F"
   d="M65.9,90.3c-0.1,0-0.2,0-0.3-0.1c-0.1-0.1-0.2-0.1-0.3-0.2c-0.1-0.1-0.1-0.2-0.1-0.3c0-0.1,0-0.2,0.1-0.2     c0-0.1,0.1-0.2,0.3-0.4c0.1-0.1,0.3-0.2,0.4-0.2c0.1,0,0.3,0,0.4,0c0.1,0,0.2,0.2,0.2,0.4c0,0.1,0,0.2,0,0.3s0,0.2-0.1,0.3     c0,0.1-0.1,0.2-0.2,0.2C66.1,90.3,66.1,90.3,65.9,90.3z M66.6,100.8c-0.1,0-0.1,0-0.2,0c-0.1,0-0.2-0.1-0.3-0.1     c-0.1,0-0.2-0.1-0.2-0.2c-0.1-0.1-0.1-0.1-0.1-0.2l0-7.8c0-0.1,0-0.1,0.1-0.2c0.1-0.1,0.1-0.1,0.2-0.2c0.1,0,0.2-0.1,0.3-0.1     c0.1,0,0.2,0,0.2,0L66.6,100.8z"
   id="path24" />
			<path
   fill="#CA325F"
   d="M67.8,94.1c0-0.1-0.1-0.3-0.1-0.5c-0.1-0.2-0.1-0.4-0.1-0.7c0-0.2-0.1-0.4-0.1-0.7c0-0.2,0-0.4,0.1-0.5     c0.1-0.1,0.2-0.2,0.3-0.2s0.4,0.1,0.7,0.2c0,0.1,0.1,0.3,0.1,0.5c0,0.3,0.1,0.5,0.1,0.8c0,0.3,0.1,0.6,0.1,0.8c0,0.3,0,0.4,0,0.5     c0.2-0.4,0.4-0.8,0.7-1.2c0.3-0.4,0.7-0.7,1.1-1c0.4-0.3,0.8-0.5,1.3-0.7c0.5-0.2,1-0.3,1.5-0.3l-0.2,0.9     c-0.7,0.1-1.3,0.4-1.9,0.9c-0.6,0.5-1.1,1.1-1.5,1.8c-0.4,0.7-0.7,1.6-0.8,2.6c-0.1,1-0.1,2.1,0.2,3.2l-1,0.2c0,0,0-0.1,0-0.4     c0-0.3,0-0.6-0.1-1c0-0.4-0.1-0.9-0.1-1.4c0-0.5-0.1-1-0.1-1.5c0-0.5-0.1-1-0.1-1.4C67.8,94.8,67.8,94.4,67.8,94.1z"
   id="path26" />
			<path
   fill="#CA325F"
   d="M74.3,86.7l0.9-0.1c0,0.6,0.1,1.3,0.1,2c0,0.8,0.1,1.6,0.1,2.5c0,0.9,0.1,1.8,0.1,2.6     c0,0.9,0,1.7,0.1,2.6c0,0.8,0,1.5,0.1,2.2c0,0.6,0,1.2,0.1,1.5c0,0.2,0,0.3-0.1,0.4c-0.1,0.1-0.1,0.2-0.2,0.3     c-0.1,0.1-0.2,0.1-0.3,0s-0.2-0.2-0.3-0.4L74.3,86.7z"
   id="path28" />
			<path
   fill="#CA325F"
   d="M76.5,97.6c0.1-0.2,0.2-0.3,0.3-0.4c0.1,0,0.3-0.1,0.5,0c0.4,0.4,0.8,0.7,1.2,1c0.4,0.3,0.8,0.6,1.3,0.8     c0.4,0.2,0.9,0.4,1.4,0.5c0.5,0.1,1,0.2,1.6,0.2c0.1,0,0.2,0,0.4,0c0.1,0,0.3,0,0.4-0.1c0.1,0,0.2-0.1,0.3-0.2     c0.1-0.1,0.1-0.2,0.1-0.4c0-0.3-0.2-0.6-0.5-0.9c-0.3-0.2-0.7-0.5-1.1-0.7c-0.4-0.2-0.9-0.5-1.4-0.7c-0.5-0.2-0.9-0.5-1.3-0.8     c-0.4-0.3-0.7-0.6-0.9-1c-0.2-0.4-0.3-0.8-0.3-1.4c0-0.3,0.1-0.6,0.3-0.8c0.2-0.2,0.4-0.4,0.7-0.6c0.3-0.2,0.6-0.3,0.9-0.4     c0.3-0.1,0.6-0.1,0.8-0.1c0.5,0,0.9,0.1,1.4,0.2c0.5,0.1,0.9,0.3,1.3,0.6l-0.4,0.6c-0.2-0.2-0.4-0.3-0.7-0.4     c-0.3-0.1-0.6-0.1-0.9-0.1c-0.3,0-0.6,0-0.9,0.1c-0.3,0.1-0.6,0.1-0.8,0.3c-0.2,0.1-0.4,0.3-0.5,0.4c-0.1,0.2-0.1,0.3-0.1,0.5     c0,0.5,0.1,0.9,0.4,1.2c0.3,0.3,0.6,0.6,1,0.8c0.4,0.2,0.9,0.4,1.3,0.6c0.5,0.2,0.9,0.4,1.3,0.6c0.4,0.2,0.8,0.5,1,0.8     c0.3,0.3,0.4,0.7,0.4,1.2c0,0.3-0.1,0.6-0.2,0.7c-0.1,0.2-0.2,0.3-0.4,0.4c-0.2,0.1-0.4,0.2-0.6,0.2c-0.2,0-0.5,0-0.7,0     c-0.6,0-1.2-0.1-1.8-0.2c-0.6-0.2-1.2-0.4-1.8-0.6c-0.6-0.3-1.2-0.6-1.7-1C77.3,98.5,76.9,98.1,76.5,97.6z"
   id="path30" />
		</g>
	</g>
	
	<g
   id="Your_Icon">
		<path
   fill="#CA325F"
   d="M163.7,90.2h-2.2v-2.5h-7.6v2.5h-2.4v-2.5h-7.6v2.5h-2.2v7.4h2.2v2.7h2.4v2.2h2.4v2.7h2.4v2.2h2.9v-2.2    h2.4v-2.7h2.4v-2.2h2.4v-2.7h2.2V90.2z M156.4,100v2.5h-2.7v2.5h-2v-2.5H149V100h-2.2v-2.7h-2.7v-6.9h7.1v2.2h2.9v-2.2h7.1v6.9    h-2.7v2.7H156.4z"
   id="path66" />
	</g>
<text
   xml:space="preserve"
   style="font-style:normal;font-weight:normal;font-size:20.68984795px;line-height:1.25;font-family:sans-serif;letter-spacing:0px;word-spacing:0px;fill:#ca325f;fill-opacity:1;stroke:none;stroke-width:0.51724619"
   x="7.4352865"
   y="21.537697"
   id="text83"><tspan
     sodipodi:role="line"
     id="tspan81"
     x="7.4352865"
     y="21.537697"
     style="font-style:normal;font-variant:normal;font-weight:normal;font-stretch:normal;font-family:'Just The Way You Are';-inkscape-font-specification:'Just The Way You Are';fill:#ca325f;fill-opacity:1;stroke-width:0.51724619">Oi, meu nome é</tspan></text>
</g>
<g
   id="Réteg_2">
	<rect
   x="0"
   y="27.1"
   fill="#FFFFFF"
   stroke="#CA325F"
   stroke-width="0.4"
   stroke-miterlimit="10"
   width="170"
   height="53.3"
   id="rect70" />
</g>
</svg>