<?xml version="1.0" encoding="UTF-8" standalone="no"?>
<!-- Created with Inkscape (http://www.inkscape.org/) -->

<svg
   xmlns:dc="http://purl.org/dc/elements/1.1/"
   xmlns:cc="http://creativecommons.org/ns#"
   xmlns:rdf="http://www.w3.org/1999/02/22-rdf-syntax-ns#"
   xmlns:svg="http://www.w3.org/2000/svg"
   xmlns="http://www.w3.org/2000/svg"
   xmlns:sodipodi="http://sodipodi.sourceforge.net/DTD/sodipodi-0.dtd"
   xmlns:inkscape="http://www.inkscape.org/namespaces/inkscape"
   width="255.58751mm"
   height="258.92099mm"
   viewBox="0 0 255.58751 258.92099"
   version="1.1"
   id="svg293"
   inkscape:version="0.92.1 r15371"
   sodipodi:docname="logo-pyladies.svg">
  <defs
     id="defs287">
    <clipPath
       id="clipPath8427"
       clipPathUnits="userSpaceOnUse">
      <path
         inkscape:connector-curvature="0"
         id="path8425"
         d="M 0,198 H 198 V 0 H 0 Z" />
    </clipPath>
  </defs>
  <sodipodi:namedview
     id="base"
     pagecolor="#ffffff"
     bordercolor="#666666"
     borderopacity="1.0"
     inkscape:pageopacity="0.0"
     inkscape:pageshadow="2"
     inkscape:zoom="0.35"
     inkscape:cx="350.14288"
     inkscape:cy="455.01378"
     inkscape:document-units="mm"
     inkscape:current-layer="layer1"
     showgrid="false"
     inkscape:pagecheckerboard="true"
     fit-margin-top="0"
     fit-margin-left="0"
     fit-margin-right="0"
     fit-margin-bottom="0"
     inkscape:window-width="1366"
     inkscape:window-height="709"
     inkscape:window-x="0"
     inkscape:window-y="0"
     inkscape:window-maximized="1" />
  <metadata
     id="metadata290">
    <rdf:RDF>
      <cc:Work
         rdf:about="">
        <dc:format>image/svg+xml</dc:format>
        <dc:type
           rdf:resource="http://purl.org/dc/dcmitype/StillImage" />
        <dc:title></dc:title>
      </cc:Work>
    </rdf:RDF>
  </metadata>
  <g
     inkscape:label="Layer 1"
     inkscape:groupmode="layer"
     id="layer1"
     transform="translate(109.6509,-101.0157)">
    <g
       transform="matrix(1.4384547,0,0,-1.4384547,-122.59699,372.88335)"
       inkscape:label="pylady_geek_full_standard"
       id="g8419"
       inkscape:export-xdpi="9.9932203"
       inkscape:export-ydpi="9.9932203">
      <g
         id="g8421">
        <g
           clip-path="url(#clipPath8427)"
           id="g8423">
          <g
             transform="translate(181.8867,104.5918)"
             id="g8429">
            <path
               inkscape:connector-curvature="0"
               id="path8431"
               style="fill:#ed1b49;fill-opacity:1;fill-rule:nonzero;stroke:none"
               d="m 0,0 c 0,-46.617 -37.791,-84.407 -84.406,-84.407 -46.618,0 -84.409,37.79 -84.409,84.407 0,46.617 37.791,84.408 84.409,84.408 C -37.791,84.408 0,46.617 0,0" />
          </g>
          <g
             transform="translate(100.6094,122.8564)"
             id="g8433">
            <path
               inkscape:connector-curvature="0"
               id="path8435"
               style="fill:#ffffff;fill-opacity:1;fill-rule:nonzero;stroke:none"
               d="M 0,0 C -1.071,0.043 -2.095,0.037 -3.13,0.044 -4.166,0.037 -5.189,0.043 -6.259,0 c -53.33,-2.102 -61.206,-41.124 -61.206,-41.124 0,0 15.465,-45.625 28.368,-56.09 7.425,-6.025 26.31,-15.887 35.967,-16.642 9.657,0.755 28.54,10.617 35.967,16.642 12.903,10.465 28.368,56.09 28.368,56.09 0,0 -7.876,39.022 -61.205,41.124" />
          </g>
          <g
             transform="translate(82.2905,52.7578)"
             id="g8437">
            <path
               inkscape:connector-curvature="0"
               id="path8439"
               style="fill:#ffffff;fill-opacity:1;fill-rule:nonzero;stroke:none"
               d="m 0,0 c 0,0 -6.064,-8.475 -13.543,-8.475 -7.481,0 -13.544,8.475 -13.544,8.475 0,0 6.063,7.775 13.544,7.775 C -6.064,7.775 0,0 0,0" />
          </g>
          <g
             transform="translate(9,70.8394)"
             id="g8441">
            <path
               inkscape:connector-curvature="0"
               id="path8443"
               style="fill:#ed1b49;fill-opacity:1;fill-rule:nonzero;stroke:none"
               d="m 0,0 c 31.969,-1.841 42.277,25.518 42.277,25.518 0,0 21.362,-16.373 54.057,-25.607 42.579,-12.024 81.348,17.761 81.348,17.761 0,0 -32.071,12.554 -41.545,63.183 C 104.793,90.247 60.432,73.862 34.759,61.558 9.086,49.253 18.653,8.55 0,0" />
          </g>
          <g
             transform="translate(112.667,52.7578)"
             id="g8445">
            <path
               inkscape:connector-curvature="0"
               id="path8447"
               style="fill:#ffffff;fill-opacity:1;fill-rule:nonzero;stroke:none"
               d="m 0,0 c 0,0 6.064,-8.475 13.543,-8.475 7.48,0 13.544,8.475 13.544,8.475 0,0 -6.064,7.775 -13.544,7.775 C 6.064,7.775 0,0 0,0" />
          </g>
          <g
             transform="translate(117.9082,56.043)"
             id="g8449">
            <path
               inkscape:connector-curvature="0"
               id="path8451"
               style="fill:#231f20;fill-opacity:1;fill-rule:nonzero;stroke:none"
               d="M 0,0 C 0,0.642 0.081,1.266 0.22,1.868 2.16,4.049 5,5.432 8.179,5.432 c 3.359,0 6.346,-1.545 8.284,-3.945 0.088,-0.483 0.14,-0.979 0.14,-1.487 0,-4.585 -3.716,-8.302 -8.302,-8.302 C 3.718,-8.302 0,-4.585 0,0" />
          </g>
          <g
             transform="translate(140.0479,52.1147)"
             id="g8453">
            <path
               inkscape:connector-curvature="0"
               id="path8455"
               style="fill:#231f20;fill-opacity:1;fill-rule:nonzero;stroke:none"
               d="m 0,0 c 0,0 -4.114,6.398 -12.531,8.002 -8.419,1.602 -14.85,-7.358 -14.85,-7.358 0,0 5.241,9.156 11.195,10.698 1.908,0.494 4.277,0.259 4.277,0.259 0,0 3.469,1.428 3.994,1.106 0.529,-0.321 -0.659,-1.925 -0.659,-1.925 0,0 3.915,1.577 4.168,1.026 0.251,-0.552 -1.13,-2.48 -1.13,-2.48 0,0 4.872,2.964 5.243,2.183 0.369,-0.783 -2.153,-3.415 -2.153,-3.415 0,0 7.967,3.757 8.325,2.302 C 6.24,8.943 0.334,4.606 0.334,4.606 c 0,0 10.171,4.013 10.423,2.5 0.25,-1.514 -10.864,-7.783 -10.864,-7.783 z" />
          </g>
          <g
             transform="translate(123.6885,55.9985)"
             id="g8457">
            <path
               inkscape:connector-curvature="0"
               id="path8459"
               style="fill:#ffffff;fill-opacity:1;fill-rule:nonzero;stroke:none"
               d="m 0,0 c 0,-1.191 -0.966,-2.158 -2.155,-2.158 -1.191,0 -2.156,0.967 -2.156,2.158 0,1.19 0.965,2.153 2.156,2.153 C -0.966,2.153 0,1.19 0,0" />
          </g>
          <g
             transform="translate(54.9092,52.1147)"
             id="g8461">
            <path
               inkscape:connector-curvature="0"
               id="path8463"
               style="fill:#231f20;fill-opacity:1;fill-rule:nonzero;stroke:none"
               d="m 0,0 c 0,0 4.115,6.398 12.533,8.002 8.418,1.602 14.849,-7.358 14.849,-7.358 0,0 -5.243,9.156 -11.196,10.698 -1.909,0.494 -4.277,0.259 -4.277,0.259 0,0 -3.467,1.428 -3.994,1.106 -0.527,-0.321 0.66,-1.925 0.66,-1.925 0,0 -3.918,1.577 -4.169,1.026 -0.252,-0.552 1.13,-2.48 1.13,-2.48 0,0 -4.873,2.964 -5.242,2.183 -0.37,-0.783 2.153,-3.415 2.153,-3.415 0,0 -7.966,3.757 -8.326,2.302 -0.36,-1.455 5.545,-5.792 5.545,-5.792 0,0 -10.17,4.013 -10.42,2.5 -0.252,-1.514 10.861,-7.783 10.861,-7.783 z" />
          </g>
          <g
             transform="translate(77.0479,56.043)"
             id="g8465">
            <path
               inkscape:connector-curvature="0"
               id="path8467"
               style="fill:#231f20;fill-opacity:1;fill-rule:nonzero;stroke:none"
               d="m 0,0 c 0,0.642 -0.081,1.266 -0.218,1.868 -1.941,2.181 -4.783,3.564 -7.96,3.564 -3.359,0 -6.346,-1.545 -8.284,-3.945 C -16.55,1.004 -16.603,0.508 -16.603,0 c 0,-4.585 3.716,-8.302 8.302,-8.302 C -3.716,-8.302 0,-4.585 0,0" />
          </g>
          <g
             transform="translate(66.1777,55.9971)"
             id="g8469">
            <path
               inkscape:connector-curvature="0"
               id="path8471"
               style="fill:#ffffff;fill-opacity:1;fill-rule:nonzero;stroke:none"
               d="m 0,0 c 0,-1.191 -0.966,-2.156 -2.155,-2.156 -1.191,0 -2.157,0.965 -2.157,2.156 0,1.19 0.966,2.155 2.157,2.155 C -0.966,2.155 0,1.19 0,0" />
          </g>
          <g
             transform="translate(94.1978,40.9204)"
             id="g8473">
            <path
               inkscape:connector-curvature="0"
               id="path8475"
               style="fill:#231f20;fill-opacity:1;fill-rule:nonzero;stroke:none"
               d="M 0,0 C 0.917,0.549 1.999,0.866 3.164,0.866 4.328,0.866 5.41,0.549 6.33,0 7.015,-0.104 7.666,-0.236 8.264,-0.398 7.197,1.226 5.318,2.314 3.164,2.314 1.009,2.314 -0.869,1.226 -1.937,-0.398 -1.339,-0.236 -0.687,-0.104 0,0" />
          </g>
          <g
             transform="translate(56.457,39.8042)"
             id="g8477">
            <path
               inkscape:connector-curvature="0"
               id="path8479"
               style="fill:#231f20;fill-opacity:1;fill-rule:nonzero;stroke:none"
               d="m 0,0 c -0.181,0.021 -4.387,1.309 -7.911,5.006 -4.733,4.966 -4.457,8.661 -4.716,9.74 l 1.033,-2.014 c 0.009,-0.048 1.255,-3.869 4.555,-6.745 C -3.537,2.934 0.136,1.44 0.176,1.436 Z" />
          </g>
          <g
             transform="translate(138.4648,39.8042)"
             id="g8481">
            <path
               inkscape:connector-curvature="0"
               id="path8483"
               style="fill:#231f20;fill-opacity:1;fill-rule:nonzero;stroke:none"
               d="m 0,0 c 0.181,0.021 4.388,1.309 7.912,5.006 4.734,4.966 4.456,8.661 4.715,9.74 L 11.594,12.732 C 11.585,12.684 10.341,8.863 7.04,5.987 3.539,2.934 -0.137,1.44 -0.176,1.436 Z" />
          </g>
          <g
             transform="translate(93.5449,41.7104)"
             id="g8485">
            <path
               inkscape:connector-curvature="0"
               id="path8487"
               style="fill:#231f20;fill-opacity:1;fill-rule:nonzero;stroke:none"
               d="m 0,0 c -0.823,2.366 -17.322,2.437 -19.2,2.437 -12.431,0 -18.904,-0.991 -19.248,-3.043 0,-6.48 8.836,-14.398 19.146,-14.398 10.176,0 18.913,7.709 19.143,14.139 C 0.125,-0.504 0.054,-0.152 0,0 m -1.395,-1.083 c 0,-4.739 -7.043,-12.051 -16.399,-12.051 -9.357,0 -16.399,7.312 -16.412,11.939 0.322,0.707 4.982,1.759 16.504,1.759 8.944,0 14.949,-0.773 16.307,-1.386 z" />
          </g>
          <g
             transform="translate(101.5352,40.8452)"
             id="g8489">
            <path
               inkscape:connector-curvature="0"
               id="path8491"
               style="fill:#231f20;fill-opacity:1;fill-rule:nonzero;stroke:none"
               d="m 0,0 c 0.23,-6.43 8.969,-14.139 19.143,-14.139 10.312,0 19.148,7.918 19.148,14.398 C 37.946,2.311 31.471,3.302 19.043,3.302 17.163,3.302 0.664,3.231 -0.158,0.865 -0.212,0.712 -0.281,0.361 0,0 m 1.236,0.043 c 1.362,0.613 7.366,1.386 16.308,1.386 11.521,0 16.181,-1.052 16.503,-1.759 -0.013,-4.627 -7.053,-11.939 -16.41,-11.939 -9.358,0 -16.401,7.312 -16.401,12.051 z" />
          </g>
        </g>
      </g>
    </g>
  </g>
</svg>
