<?xml version="1.0" encoding="UTF-8" standalone="no"?>
<!-- Created with Inkscape (http://www.inkscape.org/) -->

<svg
   xmlns:dc="http://purl.org/dc/elements/1.1/"
   xmlns:cc="http://creativecommons.org/ns#"
   xmlns:rdf="http://www.w3.org/1999/02/22-rdf-syntax-ns#"
   xmlns:svg="http://www.w3.org/2000/svg"
   xmlns="http://www.w3.org/2000/svg"
   xmlns:sodipodi="http://sodipodi.sourceforge.net/DTD/sodipodi-0.dtd"
   xmlns:inkscape="http://www.inkscape.org/namespaces/inkscape"
   width="190mm"
   height="85mm"
   viewBox="0 0 190 85"
   version="1.1"
   id="svg9704"
   inkscape:version="0.92.1 r15371"
   sodipodi:docname="pyladies_nome.svg">
  <defs
     id="defs9698" />
  <sodipodi:namedview
     id="base"
     pagecolor="#ffffff"
     bordercolor="#666666"
     borderopacity="1.0"
     inkscape:pageopacity="0.0"
     inkscape:pageshadow="2"
     inkscape:zoom="1.0916079"
     inkscape:cx="338.57992"
     inkscape:cy="156.16264"
     inkscape:document-units="mm"
     inkscape:current-layer="g6400"
     showgrid="false"
     inkscape:pagecheckerboard="true"
     fit-margin-top="0"
     fit-margin-left="0"
     fit-margin-right="0"
     fit-margin-bottom="0"
     inkscape:window-width="1366"
     inkscape:window-height="709"
     inkscape:window-x="0"
     inkscape:window-y="0"
     inkscape:window-maximized="1" />
  <metadata
     id="metadata9701">
    <rdf:RDF>
      <cc:Work
         rdf:about="">
        <dc:format>image/svg+xml</dc:format>
        <dc:type
           rdf:resource="http://purl.org/dc/dcmitype/StillImage" />
        <dc:title></dc:title>
      </cc:Work>
    </rdf:RDF>
  </metadata>
  <g
     inkscape:label="Layer 1"
     inkscape:groupmode="layer"
     id="layer1"
     transform="translate(132.27283,-122.64299)"
     style="display:inline">
    <g
       inkscape:export-ydpi="9.9932203"
       inkscape:export-xdpi="9.9932203"
       transform="matrix(0.49955,0,0,0.49955,-127.91907,126.5929)"
       id="g10300"
       style="display:inline;stroke:#fefafa;stroke-width:7.94465017;stroke-miterlimit:4;stroke-dasharray:none;stroke-opacity:1">
      <g
         id="g10282"
         inkscape:label="comment"
         transform="translate(-264.10653,-135.75333)"
         style="display:inline;stroke:#fefafa;stroke-width:7.94465017;stroke-miterlimit:4;stroke-dasharray:none;stroke-opacity:1" />
      <g
         id="g10290"
         inkscape:label="shadow"
         style="display:inline;stroke:#fefafa;stroke-width:7.94465017;stroke-miterlimit:4;stroke-dasharray:none;stroke-opacity:1"
         transform="translate(-2.97702,-8.3648884)">
        <g
           id="g10288"
           transform="translate(6.5355338,10.485281)"
           style="fill:#000000;stroke:#fefafa;stroke-width:7.94465017;stroke-miterlimit:4;stroke-dasharray:none;stroke-opacity:1">
          <path
             style="color:#000000;font-style:normal;font-variant:normal;font-weight:normal;font-stretch:normal;font-size:medium;line-height:normal;font-family:sans-serif;font-variant-ligatures:normal;font-variant-position:normal;font-variant-caps:normal;font-variant-numeric:normal;font-variant-alternates:normal;font-feature-settings:normal;text-indent:0;text-align:start;text-decoration:none;text-decoration-line:none;text-decoration-style:solid;text-decoration-color:#000000;letter-spacing:normal;word-spacing:normal;text-transform:none;writing-mode:lr-tb;direction:ltr;text-orientation:mixed;dominant-baseline:auto;baseline-shift:baseline;text-anchor:start;white-space:normal;shape-padding:0;clip-rule:nonzero;display:inline;overflow:visible;visibility:visible;opacity:1;isolation:auto;mix-blend-mode:normal;color-interpolation:sRGB;color-interpolation-filters:linearRGB;solid-color:#000000;solid-opacity:1;vector-effect:none;fill:#fefafa;fill-opacity:1;fill-rule:evenodd;stroke:#060606;stroke-width:1;stroke-linecap:butt;stroke-linejoin:miter;stroke-miterlimit:4;stroke-dasharray:none;stroke-dashoffset:0;stroke-opacity:1;color-rendering:auto;image-rendering:auto;shape-rendering:auto;text-rendering:auto;enable-background:accumulate"
             d="m 286.53906,0 c -0.4534,-6.4925766e-4 -0.91838,0.01019228 -1.39648,0.03515625 -7.12266,0.37194426 -13.48693,3.62865725 -18.32813,8.31054685 -4.84122,4.6818899 -8.43298,10.6888829 -11.35351,17.4355469 -5.8411,13.493327 -9.03511,30.194693 -10.96875,46.707031 -0.91603,7.822447 -1.48792,15.553792 -1.89453,22.882813 h -34.07032 v 6.826176 c -0.006,0.0333 -0.008,0.0442 -0.0156,0.0801 -0.0897,0.48564 -0.22407,1.20559 -0.40039,2.125 -0.35264,1.83884 -0.8732,4.48105 -1.53906,7.65821 -1.33177,6.35431 -3.24513,14.85871 -5.54883,23.36133 -1.50066,5.53876 -3.18245,11.0806 -4.92774,15.97265 0.0724,-9.75714 0.73656,-20.26036 -0.55664,-29.65625 -0.68155,-4.95186 -1.87635,-9.74559 -4.76758,-14.00195 -2.18323,-3.21408 -5.60737,-5.88214 -9.60351,-7.30274 -2.96182,-3.070398 -7.13055,-5.316604 -11.70703,-5.888668 -11.51672,-1.439602 -20.30406,5.898718 -26.80274,12.568358 -2.12753,-2.11286 -4.72501,-4.05977 -7.94922,-5.67187 -0.33407,-0.16704 -0.6709,-0.32203 -1.00781,-0.47071 -1.86865,-1.641978 -4.06114,-3.155568 -6.65625,-4.453122 -6.05054,-3.02527 -12.57987,-2.975029 -19.06445,-2.164062 -6.48458,0.810966 -13.066495,2.612665 -19.083986,4.61914 -1.340505,0.446978 -2.551949,0.894164 -3.722656,1.339844 C 84.52659,97.480117 83.598232,94.717693 82.322266,92.089844 79.427269,86.127607 74.371035,80.883814 67.828125,78.064453 63.017064,73.719296 56.628567,70.862345 49.207031,70.943359 l -0.183593,0.0039 -0.1875,0.01172 C 29.596111,72.120426 16.8761,85.064604 6.4355469,93.574219 L 0,98.822266 l 26.783203,26.783204 1.287109,-1.45117 6.375,6.375 5.285157,-5.95899 c 0,0 1.099549,-1.18814 2.693359,-2.63867 -0.389923,4.80051 -1.053788,10.69628 -1.9375,17.31445 -2.365222,17.71326 -6.262054,40.67154 -10.398437,63.33789 -8.272765,45.33272 -17.50586,89.53321 -17.50586,89.53321 l -1.888672,9.0332 h 8.691407 l -1.027344,4.92383 h 38.041016 l 21.679687,-90.92188 c 5.010762,0.24088 11.876168,0.45452 20.400391,0.15821 7.049074,-0.24505 14.464934,-0.83567 21.148434,-2.23047 6.68351,-1.39479 12.92419,-3.08401 17.48633,-8.5586 6.23639,-7.48366 10.28332,-18.25312 13.4961,-27.63867 0.23341,-0.68189 0.39808,-1.21965 0.61132,-1.86133 0.31605,5.67092 0.87952,11.12544 1.90821,15.87305 0.65146,3.00665 1.4368,5.73306 2.83203,8.34961 1.39523,2.61655 3.81123,5.80211 8.20898,6.68164 0.19528,0.0391 0.40028,0.0652 0.59766,0.10156 1.47494,2.09947 3.67787,4.14497 7.06445,4.82227 3.27815,0.65563 6.86133,0.91959 10.42969,0.99219 l -16.78711,53.82617 -27.01953,2.17383 -6.74805,33.63672 h 8.65039 l -0.98828,4.92382 h 58.51953 l 31.08594,-96.78125 c 4.65485,-0.76287 12.16649,-2.27227 19.49023,-6.26953 3.29295,-1.79727 6.18502,-3.95383 8.79688,-6.21484 2.44385,2.64622 5.58288,5.04352 9.42383,7.0332 0.30133,0.1561 0.60665,0.29612 0.91015,0.44336 1.9405,1.64349 4.18913,3.15288 6.75196,4.48047 9.49297,4.91755 20.09975,5.40445 29.53125,3.92773 7.47646,-1.17059 13.88206,-3.74854 19.3457,-6.93359 11.45231,5.77704 22.63801,5.36989 30.51758,2.66602 3.79534,-1.30239 6.84328,-3.00583 9.27148,-4.56055 2.4792,1.66793 5.66519,3.54011 9.48047,4.9043 4.24019,1.51609 9.42694,2.4852 14.94141,1.10546 3.50496,-0.87694 6.74777,-3.14081 9.7207,-5.99609 14.79713,7.96021 27.83664,8.32815 36.91016,5.18945 3.67237,-1.27034 6.53188,-2.99445 8.98242,-4.70507 0.26229,0.21848 0.30155,0.43748 0.58398,0.65234 5.25231,3.99561 13.74988,7.27001 27.95117,8.23047 17.25888,1.16725 28.93836,-7.14726 36.38086,-15.0625 2.44141,2.67452 5.55932,5.13357 9.38868,6.66992 3.44704,3.19671 7.97471,5.81045 13.64648,6.41992 12.55417,1.34901 23.82162,-4.19415 33.19141,-11.77539 0.78927,0.62787 1.5878,1.20137 2.40039,1.69727 1.31694,0.80368 2.61126,1.47071 3.88281,2.05468 1.23261,1.1084 2.491,2.0798 3.78125,2.86719 5.04258,3.07732 9.77386,4.25065 14.02734,5.76758 8.26666,2.94817 16.03146,0.17076 23.26172,-2.79883 4.16601,-1.71107 7.88024,-3.67836 11.25391,-5.63086 0.96888,0.57287 1.964,1.09254 2.97656,1.56641 6.50015,5.56561 14.87522,8.26557 22.88477,8.46484 8.71207,0.21677 17.50501,-2.09752 23.93945,-7.51953 2.47736,1.19858 5.08839,2.38361 9.82031,3.96094 l 3.66992,1.22461 3.12305,-2.2793 c 3.52337,-2.57209 5.56782,-5.82691 7.22461,-8.68164 1.65676,-2.85475 3.08052,-5.56929 5.37305,-8.6875 l 5.73633,-7.80664 -8.7168,-3.48828 1.05469,-1.43555 -8.99805,-3.59961 c -1.03182,-0.41272 -2.27477,-0.96685 -3.55664,-1.55468 -3.54888,-14.03598 -10.5732,-26.71204 -18.02344,-38.84961 l 11.53906,-25.28516 -8.71484,-2.61719 1.05273,-2.30664 -33.53125,-10.070311 -2.73046,5.917971 c -10.8896,18.27597 -21.29089,65.6372 -42.9004,70.25195 13.83522,-13.40891 22.21464,-28.49442 23.88477,-42.19531 1.03711,-8.50824 -0.52346,-16.9562 -6.07813,-23.0293 -2.27608,-2.48853 -5.12196,-4.36303 -8.35937,-5.63281 -5.58626,-5.548671 -14.16228,-7.782973 -23.63867,-6.574219 -9.80722,1.250945 -17.44658,6.868229 -22.38672,13.695309 -4.9401,6.82708 -7.66893,14.80623 -9.375,22.38867 -2.63519,11.71184 -2.67949,20.82014 -2.59961,25.29297 -3.93457,3.0074 -7.02848,4.9859 -9.44531,6.09766 0.29808,-4.76218 1.08571,-10.63425 2.15625,-16.55273 3.02354,-16.71556 7.96875,-33.9629 7.96875,-33.9629 l 2.75,-9.57226 h -9.07813 l 0.40039,-1.388672 c 5.01422,-0.576757 9.48574,-2.719467 12.65625,-5.876954 4.25009,-4.232603 6.29268,-9.811784 6.52344,-15.332031 0.23076,-5.520249 -1.33824,-11.241193 -5.2207,-15.791015 -2.15242,-2.522383 -5.07409,-4.535694 -8.45703,-5.791016 -3.92633,-4.045779 -9.9289,-6.57122 -16.56055,-6.345703 -6.79601,0.231112 -12.75641,2.936219 -16.45703,7.298828 -3.70061,4.362611 -5.02362,9.839414 -4.75,14.923828 0.46962,8.726545 5.65856,17.771321 14.59375,20.945313 0.87595,0.888344 1.82562,1.707885 2.85547,2.433593 h -20.91211 l -1.4336,5.660159 c 0,0 -3.08286,12.16229 -8.00586,26.30078 -4.92297,14.13849 -12.26955,30.39323 -17.95117,36.52148 -0.12713,0.13713 -0.22795,0.22837 -0.35156,0.35938 0.74373,-3.27463 1.62331,-6.98722 2.62891,-11.08203 3.81749,-15.54498 9.30257,-36.23037 14.90625,-56.859378 11.20735,-41.258017 22.90429,-82.31836 22.90429,-82.31836 l 2.7461,-9.6464839 -9.08789,0.082031 L 512.27344,0.03125 469.91016,0.41015625 442.00977,97.232422 c -14.0207,-0.454948 -31.54334,-0.689704 -47.0625,13.138668 l -0.0723,0.0645 -0.0742,0.0684 c -1.30313,1.22418 -2.4988,2.50772 -3.60742,3.83398 -1.49197,-4.85486 -5.47752,-7.81306 -9.33594,-9.75977 -0.59302,-0.2992 -1.20086,-0.57767 -1.81836,-0.84374 -1.72656,-1.72887 -3.80239,-3.04721 -5.8457,-4.07813 -4.37957,-2.209649 -9.44553,-3.495809 -14.9043,-4.164062 -10.91751,-1.336507 -23.38447,-0.372433 -33.26367,5.712892 -3.96366,2.4415 -7.40896,5.19068 -10.43945,8.13867 2.20573,-8.62352 4.10383,-17.466491 5.52539,-26.189453 2.99858,-18.400025 4.04228,-36.120413 1.10156,-50.509766 -1.47035,-7.194677 -3.95176,-13.693138 -8.3457,-18.835937 C 311.3252,10.833371 308.03982,8.4496518 304.30273,6.9023438 300.00856,2.8848227 294.21184,0.30727373 287.86328,0.03125 287.43352,0.01256479 286.99246,6.4925766e-4 286.53906,0 Z"
             transform="matrix(0.52964335,0,0,0.52964335,-9.47648,-6.0927277)"
             id="path10284"
             inkscape:connector-curvature="0" />
        </g>
      </g>
    </g>
    <g
       inkscape:label="script"
       id="g10298"
       transform="matrix(0.49955,0,0,0.49955,-261.05385,60.610557)"
       style="display:inline;stroke:#fefafa;stroke-width:7.94465017;stroke-miterlimit:4;stroke-dasharray:none;stroke-opacity:1">
      <g
         style="display:inline;fill:#fa023c;fill-opacity:1;stroke:#fefafa;stroke-width:7.94465017;stroke-miterlimit:4;stroke-dasharray:none;stroke-opacity:1"
         id="g10296"
         transform="translate(263.60653,135.26612)" />
    </g>
  </g>
  <g
     inkscape:groupmode="layer"
     id="layer4"
     inkscape:label="Layer 2"
     style="display:none"
     transform="translate(0.19683255,3.7987701)"
     sodipodi:insensitive="true" />
  <g
     inkscape:groupmode="layer"
     id="layer3"
     inkscape:label="nome"
     style="display:inline"
     transform="translate(0.19683255,3.7987701)">
    <g
       style="display:inline"
       id="g6400"
       transform="matrix(0.49955,0,0,0.49955,2.9565701,1.98437)"
       inkscape:export-xdpi="9.9932203"
       inkscape:export-ydpi="9.9932203">
      <g
         style="display:inline"
         transform="translate(-264.10653,-135.75333)"
         inkscape:label="comment"
         id="g6382" />
      <g
         id="g8527"
         transform="translate(2.5637856,-3.6696985)">
        <g
           id="g6390"
           inkscape:label="shadow"
           style="display:inline"
           transform="translate(-2.97702,-8.3648884)">
          <g
             id="g6388"
             transform="translate(6.5355338,10.485281)"
             style="fill:#000000">
            <path
               inkscape:connector-curvature="0"
               sodipodi:nodetypes="ccsccczsscsccccscccscssccccccscsccccscscsccccccccscscsccssccccccsccsccsccczczcccssccccsccssccccscc"
               id="path6384"
               d="M 145.8125,0.50000432 C 123.74597,1.6523143 126.78125,69.375004 126.78125,69.375004 c 0,0 -0.93703,7.47672 -4.09375,11.78125 -3.15673,4.30452 -8.44519,7.38215 -9.78125,6.03125 l 8.21875,-36.1875 H 109 c 0,6.4e-4 -6.46018,36.223795 -13.53125,37.5625 -7.07107,1.338705 -5.063295,-6.05393 -5.063292,-13.630076 4e-6,-11.157502 1.519512,-23.391014 -6.561708,-24.401174 -8.08122,-1.01016 -16.6875,12.78125 -16.6875,12.78125 0,0 1.01872,-8.08439 -7.0625,-12.125 -8.08122,-4.04061 -28.28125,6.0625 -28.28125,6.0625 1.881521,-8.531888 -1.534797,-19.292188 -11.125,-19.1875 C 12.218554,38.573818 6.2509254,44.468939 0.5,49.156254 l 8.09375,8.09375 c 0,0 8.05314,-9.08202 12.09375,-4.03125 4.04061,5.05076 -15.5535714,98.825896 -15.5535714,98.825896 H 17.258929 L 28.78125,103.71876 c 0,0 26.26174,2.02967 31.3125,-4.031256 5.05076,-6.06091 9.09375,-22.21875 9.09375,-22.21875 0,0 11.119129,-12.143721 10.108979,-8.103111 -1.01015,4.04061 -2.034749,31.311717 3.016021,32.321867 5.05076,1.01015 15.15625,0 15.15625,0 l -12.25,39.28125 -14,1.125 -2.03125,10.125 h 23.25 L 108.75,101.43751 c 0,0 7.3219,-1.04918 11.46875,-3.312506 4.14685,-2.26332 7.38586,-6.26897 10.375,-9.25 0.65827,5.06127 0.86643,9.040319 7.0625,12.250006 8.03025,4.15982 19.17878,1.16145 23.96875,-2.500006 11.61676,7.576146 21.21875,-1.5 21.21875,-1.5 0,0 11.09533,10.101536 17.15625,0 16.66752,11.111676 25.75,-0.46875 25.75,-0.46875 0,0 0.7824,5.457376 14.8125,6.406256 14.0301,0.94888 20.71875,-12.656256 20.71875,-12.656256 2.74434,3.48423 4.13991,10.897926 10.90625,11.625006 6.76634,0.72708 13.52714,-3.605916 18.65625,-8.968756 3.81969,7.197816 7.71317,7.759426 12.59375,9.500006 4.88058,1.74058 14.30009,-3.449156 18.28125,-6.187506 5.0763,9.137536 20.01868,8.460296 24.40625,1.65625 0.0614,0.478178 1.18435,1.498951 7.09375,3.468756 2.34189,-1.709596 3.00844,-4.529786 5.8125,-8.343756 -2.52539,-1.01015 -7.625,-3.53125 -7.625,-3.53125 -1.50285,-8.41307 -6.02671,-16.21852 -10.84375,-23.96875 l 5.0625,-11.09375 -10.09375,-3.03125 c -6.22431,13.50459 -11.46678,25.47812 -15.65625,33.4375 -4.18947,7.95937 -19.68829,8.26924 -22.71875,1.375 20.29456,-15.18963 22.54306,-38.57158 5.03125,-36.337881 -16.2066,2.067214 -14.74173,30.537459 -14.74173,30.537459 0,0 -5.9583,5.790272 -14.03952,6.800422 -8.08122,1.01015 2.5625,-36 2.5625,-36 H 264.875 c 0,0 -6.67833,26.361223 -14.6875,35 -7.21864,7.786096 -10.33604,3.141199 -12.3125,2.21875 -2.04681,-0.955285 22.75428,-88.01119579 22.75428,-88.01119579 L 246.46288,0.67814417 231.65625,52.062504 c -8.08122,-0.16396 -17.16878,-1.32579 -25.25,5.875 -10.86008,10.20217 -6.66295,33.061625 -19.21875,28.948445 -4.04061,1.01015 6.84375,-30.760945 6.84375,-30.760945 -0.7389,-5.17228 -16.72934,-7.52701 -24.6875,-2.625 -15.78673,9.72419 -14.34548,29.02315 -17.3125,36.0625 -6.99635,3.234382 -8.93416,1.096535 -11.69844,-6 11.62571,-13.5981 29.7757,-82.0523497 6.54219,-83.06249968 -0.36302,-0.0157837 -0.71224,-0.0182906 -1.0625,0 z m 0.85977,16.33280468 c 0.10733,-0.01509 0.20458,-0.0088 0.3125,0 4.82812,0.392044 -9.60977,46.979695 -9.60977,46.979695 -1.49758,-0.49518 2.5355,-46.029026 9.29727,-46.979695 z m 152.85005,44.935053 c 2.30539,-1.938781 3.98307,-1.532499 4.34375,-0.200894 0.36068,1.331605 -8.70089,13.254465 -8.70089,13.254465 0.0488,-4.483809 2.05176,-11.114791 4.35714,-13.053571 z m -75.25709,2.679795 c 2.8925,-0.08146 4.03617,-0.49733 5.45352,0.583597 l -4.59375,20.34375 c -1.01015,3.07161 -14.70352,5.55644 -16.21875,-1.46875 -1.42074,-6.58708 2.45047,-11.737647 5.26523,-15.271097 2.27284,-2.853163 6.37482,-4.082772 10.09375,-4.1875 z m -45.03046,0.567572 c 0.78656,-0.01563 1.60813,0.114287 2.4375,0.406254 l -5.15625,18.521097 c -2.52538,3.53554 -9.27796,5.057614 -9.92227,-0.09883 -0.83873,-6.712304 5.03761,-18.677462 12.64102,-18.828521 z M 52.875,65.031254 c 1.336266,0.02885 2.53125,0.352677 3.46875,1.15625 5,4.28571 0.58666,19.16438 -4.5,22.5625 -6.11501,4.08512 -18.6875,1.21875 -18.6875,1.21875 l 5,-19.28125 c 0.580361,0 8.928263,-5.781289 14.71875,-5.65625 z m 283.5,9.59375 c 0,0 6.08976,12.98952 5,15 -2.72578,5.02877 -12.31902,-0.07963 -11.78125,-1.78125 z"
               style="display:inline;fill:#000000;fill-opacity:1;stroke:none" />
            <path
               inkscape:connector-curvature="0"
               sodipodi:nodetypes="csz"
               id="path6386"
               d="m 274.98435,27.189734 c 10.91038,-0.37102 10.26934,16.6584 -0.71914,15.50829 -7.8672,-0.82342 -10.19123,-15.13726 0.71914,-15.50829 z"
               style="display:inline;fill:#000000;fill-opacity:1;stroke:none" />
          </g>
        </g>
        <g
           inkscape:label="script"
           id="g6398"
           transform="translate(-264.10653,-135.75333)"
           style="display:inline">
          <g
             style="display:inline;fill:#fa023c;fill-opacity:1"
             id="g6396"
             transform="translate(263.60653,135.26612)">
            <path
               inkscape:connector-curvature="0"
               sodipodi:nodetypes="ccsccczsscsccccscccscssccccccscsccccscscsccccccccscscsccssccccccsccsccsccczczcccssccccsccssccccscc"
               id="path6392"
               d="M 145.8125,0.50000432 C 123.74597,1.6523143 126.78125,69.375004 126.78125,69.375004 c 0,0 -0.93703,7.47672 -4.09375,11.78125 -3.15673,4.30452 -8.44519,7.38215 -9.78125,6.03125 l 8.21875,-36.1875 H 109 c 0,6.4e-4 -6.46018,36.223795 -13.53125,37.5625 -7.07107,1.338705 -5.063295,-6.05393 -5.063292,-13.630076 4e-6,-11.157502 1.519512,-23.391014 -6.561708,-24.401174 -8.08122,-1.01016 -16.6875,12.78125 -16.6875,12.78125 0,0 1.01872,-8.08439 -7.0625,-12.125 -8.08122,-4.04061 -28.28125,6.0625 -28.28125,6.0625 1.881521,-8.531888 -1.534797,-19.292188 -11.125,-19.1875 C 12.218554,38.573818 6.2509254,44.468939 0.5,49.156254 l 8.09375,8.09375 c 0,0 8.05314,-9.08202 12.09375,-4.03125 4.04061,5.05076 -15.5535714,98.825896 -15.5535714,98.825896 H 17.258929 L 28.78125,103.71876 c 0,0 26.26174,2.02967 31.3125,-4.031256 5.05076,-6.06091 9.09375,-22.21875 9.09375,-22.21875 0,0 11.119129,-12.143721 10.108979,-8.103111 -1.01015,4.04061 -2.034749,31.311717 3.016021,32.321867 5.05076,1.01015 15.15625,0 15.15625,0 l -12.25,39.28125 -14,1.125 -2.03125,10.125 h 23.25 L 108.75,101.43751 c 0,0 7.3219,-1.04918 11.46875,-3.312506 4.14685,-2.26332 7.38586,-6.26897 10.375,-9.25 0.65827,5.06127 0.86643,9.040319 7.0625,12.250006 8.03025,4.15982 19.17878,1.16145 23.96875,-2.500006 11.61676,7.576146 21.21875,-1.5 21.21875,-1.5 0,0 11.09533,10.101536 17.15625,0 16.66752,11.111676 25.75,-0.46875 25.75,-0.46875 0,0 0.7824,5.457376 14.8125,6.406256 14.0301,0.94888 20.71875,-12.656256 20.71875,-12.656256 2.74434,3.48423 4.13991,10.897926 10.90625,11.625006 6.76634,0.72708 13.52714,-3.605916 18.65625,-8.968756 3.81969,7.197816 7.71317,7.759426 12.59375,9.500006 4.88058,1.74058 14.30009,-3.449156 18.28125,-6.187506 5.0763,9.137536 20.01868,8.460296 24.40625,1.65625 0.0614,0.478178 1.18435,1.498951 7.09375,3.468756 2.34189,-1.709596 3.00844,-4.529786 5.8125,-8.343756 -2.52539,-1.01015 -7.625,-3.53125 -7.625,-3.53125 -1.50285,-8.41307 -6.02671,-16.21852 -10.84375,-23.96875 l 5.0625,-11.09375 -10.09375,-3.03125 c -6.22431,13.50459 -11.46678,25.47812 -15.65625,33.4375 -4.18947,7.95937 -19.68829,8.26924 -22.71875,1.375 20.29456,-15.18963 22.54306,-38.57158 5.03125,-36.337881 -16.2066,2.067214 -14.74173,30.537459 -14.74173,30.537459 0,0 -5.9583,5.790272 -14.03952,6.800422 -8.08122,1.01015 2.5625,-36 2.5625,-36 H 264.875 c 0,0 -6.67833,26.361223 -14.6875,35 -7.21864,7.786096 -10.33604,3.141199 -12.3125,2.21875 -2.04681,-0.955285 22.75428,-88.01119579 22.75428,-88.01119579 L 246.46288,0.67814417 231.65625,52.062504 c -8.08122,-0.16396 -17.16878,-1.32579 -25.25,5.875 -10.86008,10.20217 -6.66295,33.061625 -19.21875,28.948445 -4.04061,1.01015 6.84375,-30.760945 6.84375,-30.760945 -0.7389,-5.17228 -16.72934,-7.52701 -24.6875,-2.625 -15.78673,9.72419 -14.34548,29.02315 -17.3125,36.0625 -6.99635,3.234382 -8.93416,1.096535 -11.69844,-6 11.62571,-13.5981 29.7757,-82.0523497 6.54219,-83.06249968 -0.36302,-0.0157837 -0.71224,-0.0182906 -1.0625,0 z m 0.85977,16.33280468 c 0.10733,-0.01509 0.20458,-0.0088 0.3125,0 4.82812,0.392044 -9.60977,46.979695 -9.60977,46.979695 -1.49758,-0.49518 2.5355,-46.029026 9.29727,-46.979695 z m 152.85005,44.935053 c 2.30539,-1.938781 3.98307,-1.532499 4.34375,-0.200894 0.36068,1.331605 -8.70089,13.254465 -8.70089,13.254465 0.0488,-4.483809 2.05176,-11.114791 4.35714,-13.053571 z m -75.25709,2.679795 c 2.8925,-0.08146 4.03617,-0.49733 5.45352,0.583597 l -4.59375,20.34375 c -1.01015,3.07161 -14.70352,5.55644 -16.21875,-1.46875 -1.42074,-6.58708 2.45047,-11.737647 5.26523,-15.271097 2.27284,-2.853163 6.37482,-4.082772 10.09375,-4.1875 z m -45.03046,0.567572 c 0.78656,-0.01563 1.60813,0.114287 2.4375,0.406254 l -5.15625,18.521097 c -2.52538,3.53554 -9.27796,5.057614 -9.92227,-0.09883 -0.83873,-6.712304 5.03761,-18.677462 12.64102,-18.828521 z M 52.875,65.031254 c 1.336266,0.02885 2.53125,0.352677 3.46875,1.15625 5,4.28571 0.58666,19.16438 -4.5,22.5625 -6.11501,4.08512 -18.6875,1.21875 -18.6875,1.21875 l 5,-19.28125 c 0.580361,0 8.928263,-5.781289 14.71875,-5.65625 z m 283.5,9.59375 c 0,0 6.08976,12.98952 5,15 -2.72578,5.02877 -12.31902,-0.07963 -11.78125,-1.78125 z"
               style="display:inline;fill:#fa023c;fill-opacity:1;stroke:none" />
            <path
               inkscape:connector-curvature="0"
               sodipodi:nodetypes="csz"
               id="path6394"
               d="m 274.98435,27.189734 c 10.91038,-0.37102 10.26934,16.6584 -0.71914,15.50829 -7.8672,-0.82342 -10.19123,-15.13726 0.71914,-15.50829 z"
               style="display:inline;fill:#fa023c;fill-opacity:1;stroke:none" />
          </g>
        </g>
      </g>
    </g>
  </g>
</svg>
