<?xml version="1.0" encoding="UTF-8" standalone="no"?>
<!-- Created with Inkscape (http://www.inkscape.org/) -->

<svg
   xmlns:dc="http://purl.org/dc/elements/1.1/"
   xmlns:cc="http://creativecommons.org/ns#"
   xmlns:rdf="http://www.w3.org/1999/02/22-rdf-syntax-ns#"
   xmlns:svg="http://www.w3.org/2000/svg"
   xmlns="http://www.w3.org/2000/svg"
   xmlns:sodipodi="http://sodipodi.sourceforge.net/DTD/sodipodi-0.dtd"
   xmlns:inkscape="http://www.inkscape.org/namespaces/inkscape"
   width="218.78647mm"
   height="218.78647mm"
   viewBox="0 0 218.78647 218.78647"
   version="1.1"
   id="svg5044"
   inkscape:version="0.92.1 r15371"
   sodipodi:docname="pyladies_df_roxo.svg">
  <defs
     id="defs5038">
    <clipPath
       clipPathUnits="userSpaceOnUse"
       id="clipPath34">
      <path
         d="M 0,640 H 640 V 0 H 0 Z"
         id="path32"
         inkscape:connector-curvature="0" />
    </clipPath>
    <clipPath
       clipPathUnits="userSpaceOnUse"
       id="clipPath46">
      <path
         d="M 0,640 H 640 V 0 H 0 Z"
         id="path44"
         inkscape:connector-curvature="0" />
    </clipPath>
    <clipPath
       clipPathUnits="userSpaceOnUse"
       id="clipPath4985">
      <path
         d="M 0,640 H 640 V 0 H 0 Z"
         id="path4983"
         inkscape:connector-curvature="0" />
    </clipPath>
    <clipPath
       clipPathUnits="userSpaceOnUse"
       id="clipPath62">
      <path
         d="M 0,640 H 640 V 0 H 0 Z"
         id="path60"
         inkscape:connector-curvature="0" />
    </clipPath>
  </defs>
  <sodipodi:namedview
     id="base"
     pagecolor="#ffffff"
     bordercolor="#666666"
     borderopacity="1.0"
     inkscape:pageopacity="0.0"
     inkscape:pageshadow="2"
     inkscape:zoom="0.35"
     inkscape:cx="184.88332"
     inkscape:cy="304.88333"
     inkscape:document-units="mm"
     inkscape:current-layer="layer1"
     showgrid="false"
     fit-margin-top="0"
     fit-margin-left="0"
     fit-margin-right="0"
     fit-margin-bottom="0"
     inkscape:window-width="1366"
     inkscape:window-height="709"
     inkscape:window-x="0"
     inkscape:window-y="0"
     inkscape:window-maximized="1" />
  <metadata
     id="metadata5041">
    <rdf:RDF>
      <cc:Work
         rdf:about="">
        <dc:format>image/svg+xml</dc:format>
        <dc:type
           rdf:resource="http://purl.org/dc/dcmitype/StillImage" />
        <dc:title></dc:title>
      </cc:Work>
    </rdf:RDF>
  </metadata>
  <g
     inkscape:label="Layer 1"
     inkscape:groupmode="layer"
     id="layer1"
     transform="translate(98.053949,-10.713911)">
    <g
       transform="matrix(0.28039806,0,0,-0.28039806,-6.6609629,432.33305)"
       id="g202">
      <g
         id="g200">
        <g
           id="g1087"
           transform="translate(-256.85664,783.41276)">
          <circle
             style="opacity:1;vector-effect:none;fill:#6b396c;fill-opacity:1;fill-rule:evenodd;stroke:none;stroke-width:13.6657505;stroke-linecap:round;stroke-linejoin:round;stroke-miterlimit:4;stroke-dasharray:none;stroke-dashoffset:0;stroke-opacity:1"
             id="circle108"
             cx="1217.7086"
             cy="-324.08017"
             r="310.09106"
             transform="matrix(1.258132,0,0,-1.258132,-1210.9862,-77.638889)" />
          <g
             id="g170"
             transform="matrix(1.3364911,0,0,1.3364911,-108.08055,-52.356021)"
             inkscape:export-xdpi="96"
             inkscape:export-ydpi="96">
            <g
               inkscape:export-ydpi="90"
               inkscape:export-xdpi="90"
               transform="translate(1.9448676,40.6482)"
               id="g116">
              <g
                 clip-path="url(#clipPath34)"
                 id="g114">
                <g
                   transform="translate(215.5362,141.3416)"
                   id="g112">
                  <path
                     inkscape:connector-curvature="0"
                     id="path110"
                     style="fill:#ffffff;fill-opacity:1;fill-rule:nonzero;stroke:none"
                     d="m 0,0 c 6.906,-8.326 13.913,-15.027 13.913,-15.027 5.629,-5.383 10.606,-9.394 13.927,-11.938 6.054,-4.636 14.464,-10.6 26.002,-16.831 9.042,-4.883 21.352,-10.61 36.684,-15.267 2.27,-0.425 5.967,-0.957 10.503,-0.83 7.083,0.198 13.404,2.964 37.069,13.406 5.508,2.43 11.503,5.446 17.759,9.205 9.728,5.844 17.701,12.048 24.05,17.707 5.306,4.643 10.611,9.285 15.917,13.928 55.231,56.236 48.186,89.041 45.887,96.997 -14.479,50.096 -119.139,78.079 -264.458,56.267 L -59.263,83.042 C -31.125,41.305 -8.966,10.81 0,0" />
                </g>
              </g>
            </g>
            <g
               inkscape:export-ydpi="90"
               inkscape:export-xdpi="90"
               clip-path="url(#clipPath46)"
               id="g124"
               transform="matrix(1.0377821,0,0,1.0377821,-10.658363,27.695)"
               style="fill:#ffffff;fill-opacity:1">
              <g
                 transform="translate(123.263,291.3705)"
                 id="g118"
                 style="fill:#ffffff;fill-opacity:1" />
              <g
                 transform="translate(137.5,291.5)"
                 id="g122"
                 style="fill:#ffffff;fill-opacity:1">
                <path
                   sodipodi:nodetypes="ccccccsccsccsccssc"
                   inkscape:connector-curvature="0"
                   id="path120"
                   style="fill:#ffffff;fill-opacity:1;fill-rule:nonzero;stroke:none"
                   d="m 0,0 c 11.065499,259.35619 364.75657,223.01166 361,-7.5546098 1.16551,-6.0102062 -1.60315,-7.6644532 6,-13.0000002 0,0 4.5,-1.5 -7.5,-7.5 l -4.5,-1.5 c 0,0 -2,-52.44539 -79,-114.44539 0,0 -16,-11 -4,8 12,19 29,46 38,80 0,0 -101,-39 -225,47 0,0 -2,2 -4,-1 -2,-3 -15,-28 -35,-39 0,0 35,-83 39,-86 0,0 12,-18 -3,-6 -15,12 -45,39.44539 -68,83.44539 H 1 c 0,0 -7,0 -1,6 6,6 9,5 7,13 C 5,-30.55461 2,-33 0,0" />
              </g>
            </g>
            <g
               inkscape:export-ydpi="90"
               inkscape:export-xdpi="90"
               style="fill:#6b396c;fill-opacity:1"
               transform="translate(1.9448676,40.6482)"
               id="g132"
               clip-path="url(#clipPath46)">
              <g
                 style="fill:#6b396c;fill-opacity:1"
                 id="g126"
                 transform="translate(123.263,291.3705)" />
              <g
                 style="fill:#6b396c;fill-opacity:1"
                 id="g130"
                 transform="translate(137.5,291.5)">
                <path
                   d="m 0,0 c 11.065499,259.35619 364.75657,221.56627 361,-9 1.16551,-6.010206 -1.60315,-7.664453 6,-13 0,0 4.5,-1.5 -7.5,-7.5 L 355,-31 c 0,0 -2,-51 -79,-113 0,0 -16,-11 -4,8 12,19 29,46 38,80 0,0 -101,-39 -225,47 0,0 -2,2 -4,-1 -2,-3 -15,-28 -35,-39 0,0 35,-83 39,-86 0,0 12,-18 -3,-6 -15,12 -45,38 -68,82 H 1 c 0,0 -7,0 -1,6 6,6 9,5 7,13 -2,8 -5,7 -7,40"
                   style="fill:#6b396c;fill-opacity:1;fill-rule:nonzero;stroke:none"
                   id="path128"
                   inkscape:connector-curvature="0"
                   sodipodi:nodetypes="ccccccsccsccsccssc" />
              </g>
            </g>
            <g
               inkscape:export-ydpi="90"
               inkscape:export-xdpi="90"
               transform="translate(1.9448676,40.6482)"
               id="g158">
              <g
                 clip-path="url(#clipPath62)"
                 id="g156">
                <g
                   transform="translate(282.5,196.5)"
                   id="g136">
                  <path
                     inkscape:connector-curvature="0"
                     id="path134"
                     style="fill:#1c1617;fill-opacity:1;fill-rule:nonzero;stroke:none"
                     d="m 0,0 c -2,5 -13,20 -31,18 0,0 -11,5 -9,2 2,-3 1,-4 -1,-3 -2,1 -6,4 -5,1 1,-3 0,-4 -1,-3 -1,1 -11.828,7.657 -9,2 1,-2 4,-5 1,-4 -3,1 -18,7 -13,2 5,-5 12,-13 6,-10 -6,3 -23,6 -16,2 7,-4 21,-13 21,-13 0,0 4.351,6.629 12.278,11.675 C -44.902,4.895 -45,4.012 -45,3 c 0,-9.941 8.059,-18 18,-18 9.941,0 18,8.059 18,18 0,1.421 -0.149,2.591 -0.425,3.567 C -3.687,2.807 -1,-2 -1,-2 c 0,0 3,-3 1,2" />
                </g>
                <g
                   transform="translate(352.5254,194.5)"
                   id="g140">
                  <path
                     inkscape:connector-curvature="0"
                     id="path138"
                     style="fill:#1c1617;fill-opacity:1;fill-rule:nonzero;stroke:none"
                     d="M 0,0 C 0,0 2.687,4.807 8.425,8.567 8.149,7.591 8,6.421 8,5 c 0,-9.941 8.059,-18 18,-18 9.941,0 18,8.059 18,18 0,1.012 -0.098,1.895 -0.278,2.675 C 51.649,2.629 56,-4 56,-4 c 0,0 14,9 21,13 7,4 -10,1 -16,-2 -6,-3 1,5 6,10 5,5 -10,-1 -13,-2 -3,-1 0,2 1,4 2.828,5.657 -8,-1 -9,-2 -1,-1 -2,0 -1,3 1,3 -3,0 -5,-1 -2,-1 -3,0 -1,3 2,3 -9,-2 -9,-2 C 12,22 1,7 -1,2 -3,-3 0,0 0,0" />
                </g>
                <g
                   transform="translate(250.5,198.5)"
                   id="g144">
                  <path
                     inkscape:connector-curvature="0"
                     id="path142"
                     style="fill:#f7f7f7;fill-opacity:1;fill-rule:nonzero;stroke:none"
                     d="m 0,0 c 0,-2.761 -2.239,-5 -5,-5 -2.761,0 -5,2.239 -5,5 0,2.761 2.239,5 5,5 2.761,0 5,-2.239 5,-5" />
                </g>
                <g
                   transform="translate(373.5,198.5)"
                   id="g148">
                  <path
                     inkscape:connector-curvature="0"
                     id="path146"
                     style="fill:#f7f7f7;fill-opacity:1;fill-rule:nonzero;stroke:none"
                     d="m 0,0 c 0,-2.761 -2.239,-5 -5,-5 -2.761,0 -5,2.239 -5,5 0,2.761 2.239,5 5,5 2.761,0 5,-2.239 5,-5" />
                </g>
                <g
                   transform="translate(311,159.5)"
                   id="g150" />
                <g
                   transform="translate(370,159)"
                   id="g152" />
                <g
                   transform="translate(308.778,167.066)"
                   id="g154" />
              </g>
            </g>
            <path
               inkscape:export-ydpi="90"
               inkscape:export-xdpi="90"
               d="m 234.11194,208.9892 c 9.44514,3.6208 22.82557,4.0141 33.66113,4.0797 10.83548,0.066 19.12608,-0.1967 25.08164,-0.564 5.95554,-0.3673 9.57612,-0.8396 12.12108,-1.4956 2.54487,-0.6559 4.0142,-1.4956 4.82751,-1.8891 2.79099,-0.0669 5.0853,0.53233 7.91618,0.7131 2.0521,-0.25723 5.87203,0.12489 7.5728,-0.65104 2.0743,0.17832 -0.59171,-0.90848 4.56729,1.13501 6.02464,1.57763 6.61304,1.6644 11.12455,2.28509 9.73223,0.71998 15.0868,0.71174 24.03971,0.4719 5.53234,0.39873 23.52605,-0.42544 36.7113,-3.20776 0.52062,-2.6418 0.28168,-0.8234 0.66097,-2.9756 -0.11839,-0.9969 -0.77528,-5.4583 -1.76284,-7.1899 -0.76092,-1.7315 -1.86296,-3.4631 -3.2797,-5.2735 -1.41684,-1.8103 -3.14839,-3.6994 -5.29971,-5.4572 -2.15134,-1.7579 -4.72237,-3.3845 -7.47712,-4.8537 -2.75468,-1.4693 -5.69317,-2.7812 -9.07769,-3.6995 -3.38461,-0.9182 -7.21516,-1.4429 -11.12437,-1.4692 -3.90921,-0.027 -7.89708,0.4462 -11.25527,1.2333 -3.35819,0.7871 -6.08679,1.889 -8.86788,3.3844 -2.78108,1.4954 -5.61467,3.3844 -7.84475,5.2996 -2.23007,1.9152 -3.85662,3.8567 -5.16839,5.6932 -1.31175,1.8366 -2.30873,3.5681 -3.12213,5.0636 -0.81332,1.4955 -1.44308,2.7549 -1.78413,3.8306 -0.34113,1.0757 -0.9851,1.9676 -1.11625,2.4399 -0.5316,1.2096 -1.22274,1.59832 -2.38262,2.04401 -1.21122,0.6885 -3.06158,0.87768 -5.00163,0.50119 -1.67018,0.0571 -3.34203,-0.19672 -4.74887,-0.7872 -1.19165,-0.46355 -1.81009,-0.97485 -2.50432,-1.79363 -0.20989,-0.4985 -0.85386,-1.43337 -1.19499,-2.64037 -0.34113,-1.2069 -0.97081,-2.8336 -1.91528,-4.6176 -0.94448,-1.7841 -2.20374,-3.7257 -3.98778,-5.7721 -1.78396,-2.0464 -4.09277,-4.1978 -6.58514,-5.9818 -2.49246,-1.784 -5.16848,-3.2006 -7.81834,-4.3812 -2.64993,-1.1806 -5.27363,-2.125 -8.26461,-2.7284 -2.99099,-0.6036 -6.34926,-0.866 -10.10098,-0.7086 -3.75172,0.1575 -7.89699,0.7346 -11.5963,1.8103 -3.69933,1.0757 -6.95269,2.6499 -10.12732,4.6701 -3.17463,2.0202 -6.27052,4.4863 -8.52676,6.8476 -2.25631,2.3612 -3.6729,4.6177 -4.66986,6.5591 -0.99688,1.9415 -1.94631,6.0497 -2.2612,7.0467"
               style="fill:#000200;fill-rule:evenodd"
               id="path160"
               inkscape:connector-curvature="0"
               sodipodi:nodetypes="ccscccccccccccccccsssscccccccccccccscsccc" />
            <g
               inkscape:export-ydpi="90"
               inkscape:export-xdpi="90"
               id="g168"
               transform="matrix(-0.47460973,-0.47676261,-0.48782931,0.46384292,1064.6359,369.1528)">
              <path
                 id="path162"
                 sodipodi:nodetypes="csccccscscscccscccccccccc"
                 style="fill:#fcfd49;stroke:none;stroke-width:1px"
                 inkscape:connector-curvature="0"
                 d="m 873.74699,838.53838 c -2.95648,5.12231 -10.5856,2.18386 -29.53723,-0.95819 -2.67123,-0.44288 -5.34085,3.49227 -8.62773,3.82726 6.51772,12.97353 -12.64677,21.72724 -1.65046,31.27604 6.29108,14.19392 -13.65737,15.03945 20.3718,32.53799 8.02948,19.00887 28.68566,-16.93965 33.20303,-24.04308 1.39359,6.82501 -9.84254,17.68179 -11.67803,27.62671 -0.22032,1.19373 -7.99485,6.31566 -6.63305,13.81667 3.83025,4.19813 6.59941,6.41521 12.09285,15.89624 2.6844,4.63295 21.21571,7.1169 30.42164,6.04557 4.84184,-1.4107 8.23478,-1.55142 15.50783,-2.02553 6.62619,-0.43194 16.86354,-4.78048 21.16115,-15.21721 -1.91317,-13.50385 -3.8495,-24.18532 -6.92492,-29.78257 11.113,-13.884 -1.87537,16.67212 13.10283,13.03612 8.41717,-0.3466 13.62528,-1.77025 17.25068,-3.71726 7.84038,-4.21064 8.27855,-10.86899 17.76432,-14.37474 1.18123,-21.70928 7.85474,-34.8644 2.07232,-36.78249 -1.9942,-11.35272 -13.8515,-2.38857 -30.48591,-8.86068 6.47862,0.12766 25.30722,-30.68944 17.21575,-33.26535 -29.01897,-1.21293 -26.97837,-30.48916 -41.97161,-22.0399 3.7599,8.8702 -20.09586,23.89857 -22.44926,8.81957 4.80762,-11.85753 -13.08191,-21.34927 -35.39069,-17.69315 -4.31559,10.56566 -5.82067,-14.57498 -15.6696,23.92305 -27.05677,10.50933 -0.0301,5.51411 -1.63965,21.82013 z" />
              <path
                 sodipodi:nodetypes="cccccccccccccccccccccccccccccccccccccccccccccccc"
                 id="path164"
                 style="fill:#ffcb00;fill-opacity:1"
                 inkscape:connector-curvature="0"
                 d="m 913.08,815.29 c -13.72388,25.23337 -12.70922,1.38483 -21.52208,-1.57761 -5.6504,2.1913 15.66998,19.18253 9.12962,20.36003 -1.7701,3.5441 -13.04423,-11.5072 -18.89208,-12.09782 -5.5601,2.1019 16.35657,23.28255 8.70047,21.77855 -1.6598,4.5979 -14.39728,-7.81687 -13.07348,-1.89427 -0.45626,7.6513 -6.68649,7.15538 -12.40549,6.91568 -4.8667,1.6843 -8.85832,-2.44451 -11.97232,2.97469 7.3501,3.5561 9.1318,1.59603 16.8058,4.22937 1.9622,0.18232 8.728,-1.0055 3.6089,0.99529 -4.44929,-0.431 -19.59119,10.7327 -3.55528,5.20639 5.4515,-0.76237 -12.19964,12.08715 -6.63148,12.00485 1.5227,1.1341 6.43372,-5.28695 10.02278,-4.25025 8.4788,-2.86664 6.20106,-1.8322 11.12574,-3.01789 5.373,-1.8234 -3.8395,5.8778 -5.4938,6.8866 -7.98097,4.52304 -24.17263,22.78561 1.34367,7.55308 5.195,-1.1867 6.36028,-5.04558 11.98068,-5.22468 5.6026,-4.2401 0.56632,6.2029 0.63225,9.376 -4.69549,21.62706 -2.27606,12.77294 6.9818,3.1713 2.3467,-2.185 5.0531,-10.902 5.8061,-10.324 -2.6384,7.1188 1.25925,8.57367 -1.94275,15.58167 -1.79173,2.79727 -8.89412,21.01972 1.9228,6.015 3.9375,-5.6794 3.99165,-8.01367 10.16605,-11.82767 4.9802,2.979 1.15315,4.77467 3.10825,9.85467 0.47433,3.991 -11.56882,26.85385 2.80345,8.94179 4.4045,-5.3959 -0.7586,-1.80346 2.0482,-7.59646 2.9848,-4.4084 -2.0139,-14.759 6.0446,-14.657 5.0465,1.3716 4.9807,-5.2461 9.59,-2.7542 6.8409,0.84749 10.511,7.6632 17.347,8.4502 4.5305,-0.52939 7.24104,2.7284 10.48204,-0.5318 -0.87479,-6.9693 -7.70804,-0.5149 -11.73404,-4.7915 -2.5182,-3.1654 -9.0936,-7.3776 -9.0301,-9.6299 2.8164,2.1747 13.065,5.6004 10.503,-0.87237 -4.0813,-3.2716 -14.355,0.17917 -13.936,-7.3292 6.2202,-2.8126 13.591,1.3584 19.502,-1.5343 -0.92624,-2.5109 -10.36394,-2.0602 -4.93191,-3.8263 3.1659,-4.2736 7.8657,-6.3218 12.23,-8.1458 0.22149,-4.3036 -9.34111,-1.00768 -12.27901,-0.94969 -4.5993,2.2793 -12.76745,2.20379 -6.82945,-5.73661 3.5328,-4.5877 11.743,-5.4126 11.623,-12.511 -5.7537,-1.2701 -9.7034,8.2907 -15.985,7.0454 -4.7393,-2.0327 7.3558,-11.785 -1.9331,-9.7125 -2.5633,2.945 -12.70074,8.00899 -8.57614,2.93779 -6.68773,-1.61448 3.63158,-17.77786 1.36284,-14.72618 -4.81077,1.38194 -8.9597,0.59008 -13.46602,10.87374 -1.96996,4.80216 -3.37469,-5.1961 -3.95075,-9.20029 -1.3426,-1.1891 -5.63357,5.7821 -7.23597,5.0427 z" />
              <path
                 id="path166"
                 sodipodi:nodetypes="cccccccccccccccccccccccccccccccccc"
                 style="fill:#6b396c;fill-opacity:1"
                 inkscape:connector-curvature="0"
                 d="m 919.8666,835.85909 c -3.5501,0.59963 -10.23072,0.0744 -12.28019,3.68443 -6.72211,11.20534 -14.70661,8.84583 -22.12009,13.14861 -2.88655,0.45441 -6.35438,0.50629 -8.38873,2.92413 -0.59762,2.33616 4.94032,0.43352 6.59357,0.53043 6.52414,-1.33347 12.4812,-6.52286 18.58374,-6.84976 1.72345,-0.55202 3.57132,-0.33663 5.08931,-1.83316 -2.02354,2.2007 -3.99059,5.31145 -5.71436,7.74431 -3.07891,3.47705 -5.77732,7.52822 -9.95711,9.76443 -1.72593,0.54883 -3.19707,4.82971 -0.31788,2.77244 5.22266,-2.3285 8.63303,-7.188 12.34264,-11.33382 1.70679,-2.63671 4.58358,-4.03033 7.15613,-5.62584 -1.00628,1.37902 -0.75925,4.93863 -1.94628,6.9428 -1.60613,2.89658 -0.52171,7.7622 -1.8878,10.7712 -1.3784,4.5146 -4.4939,7.74457 -5.61181,12.31679 3.52511,-1.17299 7.54281,-11.11539 8.50169,-14.96569 1.47857,-8.25265 -0.0662,-9.76587 6.05012,-15.05739 3.56141,-0.51493 4.88269,-0.91317 3.95085,0.9958 -2.98842,7.87058 2.34266,12.35433 -0.62084,18.95263 -1.01585,1.99622 -3.36845,13.00371 -0.36724,11.92366 4.72584,-8.2854 2.64104,-18.38031 3.62426,-27.02205 0.52336,-3.60399 -0.0922,-3.21615 3.11355,-5.418 -0.10035,1.77772 2.41576,-4.99389 2.63241,-3.23383 0.7608,3.48102 1.49357,9.98906 2.92394,13.28323 1.1815,4.0534 2.54261,8.99405 5.42609,12.23626 1.2538,1.99721 3.97077,6.09428 5.5112,4.74798 -2.96958,-5.80817 -7.33358,-11.61298 -8.89465,-19.01882 -3.9126,-14.06181 0.49456,-21.11086 -13.39238,-22.37954 z m 1.65847,6.9841 c 2.08261,0.25517 5.58315,-2.29963 5.39993,-0.0923 0.61421,8.26803 -16.48531,3.17151 -17.11625,4.0215 -2.81526,-0.8882 -1.60349,-2.85475 1.46016,-2.74283 7.42469,-2.03461 0.31831,-0.10824 10.25616,-1.18639 z" />
            </g>
          </g>
          <text
             xml:space="preserve"
             style="font-style:normal;font-weight:normal;line-height:0%;font-family:sans-serif;letter-spacing:0px;word-spacing:0px;fill:#000000;fill-opacity:1;stroke:none;stroke-width:1px;stroke-linecap:butt;stroke-linejoin:miter;stroke-opacity:1"
             x="413.36517"
             y="-12.291471"
             id="text174"
             transform="scale(1,-1)"
             inkscape:export-xdpi="96"
             inkscape:export-ydpi="96"><tspan
               sodipodi:role="line"
               id="tspan172"
               x="413.36517"
               y="-12.291471"
               style="font-style:italic;font-variant:normal;font-weight:bold;font-stretch:normal;font-size:55.20386887px;line-height:125%;font-family:verdana;-inkscape-font-specification:'verdana, Bold Italic';text-align:start;writing-mode:lr-tb;text-anchor:start;fill:#000000;fill-opacity:1">DF</tspan></text>
          <g
             inkscape:export-ydpi="96"
             inkscape:export-xdpi="96"
             transform="matrix(1.1446281,0,0,-1.1446281,125.15288,187.53372)"
             id="g194"
             style="display:inline">
            <g
               id="g176"
               inkscape:label="comment"
               transform="translate(-264.10653,-135.75333)"
               style="display:inline" />
            <g
               id="g184"
               inkscape:label="shadow"
               style="display:inline"
               transform="translate(-2.97702,-8.3648884)">
              <g
                 id="g182"
                 transform="translate(6.5355338,10.485281)"
                 style="fill:#000000">
                <path
                   inkscape:connector-curvature="0"
                   sodipodi:nodetypes="ccsccczsscsccccscccscssccccccscsccccscscsccccccccscscsccssccccccsccsccsccczczcccssccccsccssccccscc"
                   id="path178"
                   d="M 145.8125,0.50000432 C 123.74597,1.6523143 126.78125,69.375004 126.78125,69.375004 c 0,0 -0.93703,7.47672 -4.09375,11.78125 -3.15673,4.30452 -8.44519,7.38215 -9.78125,6.03125 l 8.21875,-36.1875 H 109 c 0,6.4e-4 -6.46018,36.223795 -13.53125,37.5625 -7.07107,1.338705 -5.063295,-6.05393 -5.063292,-13.630076 4e-6,-11.157502 1.519512,-23.391014 -6.561708,-24.401174 -8.08122,-1.01016 -16.6875,12.78125 -16.6875,12.78125 0,0 1.01872,-8.08439 -7.0625,-12.125 -8.08122,-4.04061 -28.28125,6.0625 -28.28125,6.0625 1.881521,-8.531888 -1.534797,-19.292188 -11.125,-19.1875 C 12.218554,38.573818 6.2509254,44.468939 0.5,49.156254 l 8.09375,8.09375 c 0,0 8.05314,-9.08202 12.09375,-4.03125 4.04061,5.05076 -15.5535714,98.825896 -15.5535714,98.825896 H 17.258929 L 28.78125,103.71876 c 0,0 26.26174,2.02967 31.3125,-4.031256 5.05076,-6.06091 9.09375,-22.21875 9.09375,-22.21875 0,0 11.119129,-12.143721 10.108979,-8.103111 -1.01015,4.04061 -2.034749,31.311717 3.016021,32.321867 5.05076,1.01015 15.15625,0 15.15625,0 l -12.25,39.28125 -14,1.125 -2.03125,10.125 h 23.25 L 108.75,101.43751 c 0,0 7.3219,-1.04918 11.46875,-3.312506 4.14685,-2.26332 7.38586,-6.26897 10.375,-9.25 0.65827,5.06127 0.86643,9.040319 7.0625,12.250006 8.03025,4.15982 19.17878,1.16145 23.96875,-2.500006 11.61676,7.576146 21.21875,-1.5 21.21875,-1.5 0,0 11.09533,10.101536 17.15625,0 16.66752,11.111676 25.75,-0.46875 25.75,-0.46875 0,0 0.7824,5.457376 14.8125,6.406256 14.0301,0.94888 20.71875,-12.656256 20.71875,-12.656256 2.74434,3.48423 4.13991,10.897926 10.90625,11.625006 6.76634,0.72708 13.52714,-3.605916 18.65625,-8.968756 3.81969,7.197816 7.71317,7.759426 12.59375,9.500006 4.88058,1.74058 14.30009,-3.449156 18.28125,-6.187506 5.0763,9.137536 20.01868,8.460296 24.40625,1.65625 0.0614,0.478178 1.18435,1.498951 7.09375,3.468756 2.34189,-1.709596 3.00844,-4.529786 5.8125,-8.343756 -2.52539,-1.01015 -7.625,-3.53125 -7.625,-3.53125 -1.50285,-8.41307 -6.02671,-16.21852 -10.84375,-23.96875 l 5.0625,-11.09375 -10.09375,-3.03125 c -6.22431,13.50459 -11.46678,25.47812 -15.65625,33.4375 -4.18947,7.95937 -19.68829,8.26924 -22.71875,1.375 20.29456,-15.18963 22.54306,-38.57158 5.03125,-36.337881 -16.2066,2.067214 -14.74173,30.537459 -14.74173,30.537459 0,0 -5.9583,5.790272 -14.03952,6.800422 -8.08122,1.01015 2.5625,-36 2.5625,-36 H 264.875 c 0,0 -6.67833,26.361223 -14.6875,35 -7.21864,7.786096 -10.33604,3.141199 -12.3125,2.21875 -2.04681,-0.955285 22.75428,-88.01119579 22.75428,-88.01119579 L 246.46288,0.67814417 231.65625,52.062504 c -8.08122,-0.16396 -17.16878,-1.32579 -25.25,5.875 -10.86008,10.20217 -6.66295,33.061625 -19.21875,28.948445 -4.04061,1.01015 6.84375,-30.760945 6.84375,-30.760945 -0.7389,-5.17228 -16.72934,-7.52701 -24.6875,-2.625 -15.78673,9.72419 -14.34548,29.02315 -17.3125,36.0625 -6.99635,3.234382 -8.93416,1.096535 -11.69844,-6 11.62571,-13.5981 29.7757,-82.0523497 6.54219,-83.06249968 -0.36302,-0.0157837 -0.71224,-0.0182906 -1.0625,0 z m 0.85977,16.33280468 c 0.10733,-0.01509 0.20458,-0.0088 0.3125,0 4.82812,0.392044 -9.60977,46.979695 -9.60977,46.979695 -1.49758,-0.49518 2.5355,-46.029026 9.29727,-46.979695 z m 152.85005,44.935053 c 2.30539,-1.938781 3.98307,-1.532499 4.34375,-0.200894 0.36068,1.331605 -8.70089,13.254465 -8.70089,13.254465 0.0488,-4.483809 2.05176,-11.114791 4.35714,-13.053571 z m -75.25709,2.679795 c 2.8925,-0.08146 4.03617,-0.49733 5.45352,0.583597 l -4.59375,20.34375 c -1.01015,3.07161 -14.70352,5.55644 -16.21875,-1.46875 -1.42074,-6.58708 2.45047,-11.737647 5.26523,-15.271097 2.27284,-2.853163 6.37482,-4.082772 10.09375,-4.1875 z m -45.03046,0.567572 c 0.78656,-0.01563 1.60813,0.114287 2.4375,0.406254 l -5.15625,18.521097 c -2.52538,3.53554 -9.27796,5.057614 -9.92227,-0.09883 -0.83873,-6.712304 5.03761,-18.677462 12.64102,-18.828521 z M 52.875,65.031254 c 1.336266,0.02885 2.53125,0.352677 3.46875,1.15625 5,4.28571 0.58666,19.16438 -4.5,22.5625 -6.11501,4.08512 -18.6875,1.21875 -18.6875,1.21875 l 5,-19.28125 c 0.580361,0 8.928263,-5.781289 14.71875,-5.65625 z m 283.5,9.59375 c 0,0 6.08976,12.98952 5,15 -2.72578,5.02877 -12.31902,-0.07963 -11.78125,-1.78125 z"
                   style="display:inline;fill:#000000;fill-opacity:1;stroke:none" />
                <path
                   inkscape:connector-curvature="0"
                   sodipodi:nodetypes="csz"
                   id="path180"
                   d="m 274.98435,27.189734 c 10.91038,-0.37102 10.26934,16.6584 -0.71914,15.50829 -7.8672,-0.82342 -10.19123,-15.13726 0.71914,-15.50829 z"
                   style="display:inline;fill:#000000;fill-opacity:1;stroke:none" />
              </g>
            </g>
            <g
               inkscape:label="script"
               id="g192"
               transform="translate(-264.10653,-135.75333)"
               style="display:inline;fill:#ffffff;fill-opacity:1">
              <g
                 style="display:inline;fill:#ffffff;fill-opacity:1"
                 id="g190"
                 transform="translate(263.60653,135.26612)">
                <path
                   inkscape:connector-curvature="0"
                   sodipodi:nodetypes="ccsccczsscsccccscccscssccccccscsccccscscsccccccccscscsccssccccccsccsccsccczczcccssccccsccssccccscc"
                   id="path186"
                   d="M 145.8125,0.50000432 C 123.74597,1.6523143 126.78125,69.375004 126.78125,69.375004 c 0,0 -0.93703,7.47672 -4.09375,11.78125 -3.15673,4.30452 -8.44519,7.38215 -9.78125,6.03125 l 8.21875,-36.1875 H 109 c 0,6.4e-4 -6.46018,36.223795 -13.53125,37.5625 -7.07107,1.338705 -5.063295,-6.05393 -5.063292,-13.630076 4e-6,-11.157502 1.519512,-23.391014 -6.561708,-24.401174 -8.08122,-1.01016 -16.6875,12.78125 -16.6875,12.78125 0,0 1.01872,-8.08439 -7.0625,-12.125 -8.08122,-4.04061 -28.28125,6.0625 -28.28125,6.0625 1.881521,-8.531888 -1.534797,-19.292188 -11.125,-19.1875 C 12.218554,38.573818 6.2509254,44.468939 0.5,49.156254 l 8.09375,8.09375 c 0,0 8.05314,-9.08202 12.09375,-4.03125 4.04061,5.05076 -15.5535714,98.825896 -15.5535714,98.825896 H 17.258929 L 28.78125,103.71876 c 0,0 26.26174,2.02967 31.3125,-4.031256 5.05076,-6.06091 9.09375,-22.21875 9.09375,-22.21875 0,0 11.119129,-12.143721 10.108979,-8.103111 -1.01015,4.04061 -2.034749,31.311717 3.016021,32.321867 5.05076,1.01015 15.15625,0 15.15625,0 l -12.25,39.28125 -14,1.125 -2.03125,10.125 h 23.25 L 108.75,101.43751 c 0,0 7.3219,-1.04918 11.46875,-3.312506 4.14685,-2.26332 7.38586,-6.26897 10.375,-9.25 0.65827,5.06127 0.86643,9.040319 7.0625,12.250006 8.03025,4.15982 19.17878,1.16145 23.96875,-2.500006 11.61676,7.576146 21.21875,-1.5 21.21875,-1.5 0,0 11.09533,10.101536 17.15625,0 16.66752,11.111676 25.75,-0.46875 25.75,-0.46875 0,0 0.7824,5.457376 14.8125,6.406256 14.0301,0.94888 20.71875,-12.656256 20.71875,-12.656256 2.74434,3.48423 4.13991,10.897926 10.90625,11.625006 6.76634,0.72708 13.52714,-3.605916 18.65625,-8.968756 3.81969,7.197816 7.71317,7.759426 12.59375,9.500006 4.88058,1.74058 14.30009,-3.449156 18.28125,-6.187506 5.0763,9.137536 20.01868,8.460296 24.40625,1.65625 0.0614,0.478178 1.18435,1.498951 7.09375,3.468756 2.34189,-1.709596 3.00844,-4.529786 5.8125,-8.343756 -2.52539,-1.01015 -7.625,-3.53125 -7.625,-3.53125 -1.50285,-8.41307 -6.02671,-16.21852 -10.84375,-23.96875 l 5.0625,-11.09375 -10.09375,-3.03125 c -6.22431,13.50459 -11.46678,25.47812 -15.65625,33.4375 -4.18947,7.95937 -19.68829,8.26924 -22.71875,1.375 20.29456,-15.18963 22.54306,-38.57158 5.03125,-36.337881 -16.2066,2.067214 -14.74173,30.537459 -14.74173,30.537459 0,0 -5.9583,5.790272 -14.03952,6.800422 -8.08122,1.01015 2.5625,-36 2.5625,-36 H 264.875 c 0,0 -6.67833,26.361223 -14.6875,35 -7.21864,7.786096 -10.33604,3.141199 -12.3125,2.21875 -2.04681,-0.955285 22.75428,-88.01119579 22.75428,-88.01119579 L 246.46288,0.67814417 231.65625,52.062504 c -8.08122,-0.16396 -17.16878,-1.32579 -25.25,5.875 -10.86008,10.20217 -6.66295,33.061625 -19.21875,28.948445 -4.04061,1.01015 6.84375,-30.760945 6.84375,-30.760945 -0.7389,-5.17228 -16.72934,-7.52701 -24.6875,-2.625 -15.78673,9.72419 -14.34548,29.02315 -17.3125,36.0625 -6.99635,3.234382 -8.93416,1.096535 -11.69844,-6 11.62571,-13.5981 29.7757,-82.0523497 6.54219,-83.06249968 -0.36302,-0.0157837 -0.71224,-0.0182906 -1.0625,0 z m 0.85977,16.33280468 c 0.10733,-0.01509 0.20458,-0.0088 0.3125,0 4.82812,0.392044 -9.60977,46.979695 -9.60977,46.979695 -1.49758,-0.49518 2.5355,-46.029026 9.29727,-46.979695 z m 152.85005,44.935053 c 2.30539,-1.938781 3.98307,-1.532499 4.34375,-0.200894 0.36068,1.331605 -8.70089,13.254465 -8.70089,13.254465 0.0488,-4.483809 2.05176,-11.114791 4.35714,-13.053571 z m -75.25709,2.679795 c 2.8925,-0.08146 4.03617,-0.49733 5.45352,0.583597 l -4.59375,20.34375 c -1.01015,3.07161 -14.70352,5.55644 -16.21875,-1.46875 -1.42074,-6.58708 2.45047,-11.737647 5.26523,-15.271097 2.27284,-2.853163 6.37482,-4.082772 10.09375,-4.1875 z m -45.03046,0.567572 c 0.78656,-0.01563 1.60813,0.114287 2.4375,0.406254 l -5.15625,18.521097 c -2.52538,3.53554 -9.27796,5.057614 -9.92227,-0.09883 -0.83873,-6.712304 5.03761,-18.677462 12.64102,-18.828521 z M 52.875,65.031254 c 1.336266,0.02885 2.53125,0.352677 3.46875,1.15625 5,4.28571 0.58666,19.16438 -4.5,22.5625 -6.11501,4.08512 -18.6875,1.21875 -18.6875,1.21875 l 5,-19.28125 c 0.580361,0 8.928263,-5.781289 14.71875,-5.65625 z m 283.5,9.59375 c 0,0 6.08976,12.98952 5,15 -2.72578,5.02877 -12.31902,-0.07963 -11.78125,-1.78125 z"
                   style="display:inline;fill:#ffffff;fill-opacity:1;stroke:none" />
                <path
                   inkscape:connector-curvature="0"
                   sodipodi:nodetypes="csz"
                   id="path188"
                   d="m 274.98435,27.189734 c 10.91038,-0.37102 10.26934,16.6584 -0.71914,15.50829 -7.8672,-0.82342 -10.19123,-15.13726 0.71914,-15.50829 z"
                   style="display:inline;fill:#ffffff;fill-opacity:1;stroke:none" />
              </g>
            </g>
          </g>
          <text
             inkscape:export-ydpi="96"
             inkscape:export-xdpi="96"
             transform="scale(1,-1)"
             id="text198"
             y="-15.824518"
             x="409.83228"
             style="font-style:normal;font-weight:normal;line-height:0%;font-family:sans-serif;letter-spacing:0px;word-spacing:0px;fill:#ffffff;fill-opacity:1;stroke:none;stroke-width:1px;stroke-linecap:butt;stroke-linejoin:miter;stroke-opacity:1"
             xml:space="preserve"><tspan
               style="font-style:italic;font-variant:normal;font-weight:bold;font-stretch:normal;font-size:55.20386887px;line-height:125%;font-family:verdana;-inkscape-font-specification:'verdana, Bold Italic';text-align:start;writing-mode:lr-tb;text-anchor:start;fill:#ffffff;fill-opacity:1"
               y="-15.824518"
               x="409.83228"
               id="tspan196"
               sodipodi:role="line">DF</tspan></text>
        </g>
      </g>
    </g>
  </g>
</svg>
