<?xml version="1.0" encoding="UTF-8" standalone="no"?>
<!-- Created with Inkscape (http://www.inkscape.org/) -->

<svg
   xmlns:dc="http://purl.org/dc/elements/1.1/"
   xmlns:cc="http://creativecommons.org/ns#"
   xmlns:rdf="http://www.w3.org/1999/02/22-rdf-syntax-ns#"
   xmlns:svg="http://www.w3.org/2000/svg"
   xmlns="http://www.w3.org/2000/svg"
   xmlns:sodipodi="http://sodipodi.sourceforge.net/DTD/sodipodi-0.dtd"
   xmlns:inkscape="http://www.inkscape.org/namespaces/inkscape"
   width="185.90578mm"
   height="80.294685mm"
   viewBox="0 0 185.90577 80.294686"
   version="1.1"
   id="svg5463"
   inkscape:version="0.92.1 r15371"
   sodipodi:docname="pyladies_nome_1.svg">
  <defs
     id="defs5457" />
  <sodipodi:namedview
     id="base"
     pagecolor="#ffffff"
     bordercolor="#666666"
     borderopacity="1.0"
     inkscape:pageopacity="0.0"
     inkscape:pageshadow="2"
     inkscape:zoom="1.3150479"
     inkscape:cx="351.318"
     inkscape:cy="151.73798"
     inkscape:document-units="mm"
     inkscape:current-layer="layer2"
     showgrid="false"
     inkscape:pagecheckerboard="true"
     fit-margin-top="0"
     fit-margin-left="0"
     fit-margin-right="0"
     fit-margin-bottom="0"
     inkscape:snap-global="false"
     inkscape:window-width="1366"
     inkscape:window-height="709"
     inkscape:window-x="0"
     inkscape:window-y="0"
     inkscape:window-maximized="1" />
  <metadata
     id="metadata5460">
    <rdf:RDF>
      <cc:Work
         rdf:about="">
        <dc:format>image/svg+xml</dc:format>
        <dc:type
           rdf:resource="http://purl.org/dc/dcmitype/StillImage" />
        <dc:title></dc:title>
      </cc:Work>
    </rdf:RDF>
  </metadata>
  <g
     inkscape:groupmode="layer"
     id="layer2"
     inkscape:label="branco"
     transform="translate(2.2733827,1.5310001)">
    <g
       style="display:inline"
       id="g6400"
       transform="scale(0.49955)"
       inkscape:export-xdpi="9.9932203"
       inkscape:export-ydpi="9.9932203">
      <g
         style="display:inline"
         transform="translate(-264.10653,-135.75333)"
         inkscape:label="comment"
         id="g6382" />
      <g
         transform="translate(-2.97702,-8.3648884)"
         style="display:inline"
         inkscape:label="shadow"
         id="g6390">
        <g
           style="fill:#000000"
           transform="translate(6.5355338,10.485281)"
           id="g6388">
          <path
             style="display:inline;fill:#ffffff;fill-opacity:1;stroke:none;stroke-width:1"
             d="m 146.41211,80.792969 c 0.81435,1.752836 -2.25713,6.17294 -2.52734,3.005859 0.88723,-0.313598 3.70817,-7.430524 2.52734,-3.005859 z"
             id="path6384"
             inkscape:connector-curvature="0"
             sodipodi:nodetypes="ccc" />
          <path
             style="display:inline;fill:#ffffff;fill-opacity:1;stroke:none;stroke-width:1"
             d="m 279.72585,44.843438 c 4.38046,-2.149592 7.35207,-7.248866 5.94017,-12.329766 -1.04069,-5.698995 -6.71734,-8.446739 -11.4004,-10.615234 -1.40338,-0.404344 -2.86874,-0.417265 -4.3164,-0.375 -8.11562,0.200318 -12.37409,10.576118 -7.52149,16.841796 l -3.9375,7.310527 c -4.05223,13.010694 -6.94762,28.439508 -16.83789,37.992188 6.55379,-29.223681 13.762,-56.185388 21.71746,-85.1163468 l -5.49731,-0.1345418 1.20934,-2.7956374 -17.80469,-0.3515625 C 236.31113,12.324398 230.31075,29.352918 225.25,46.275371 c -10.4828,-0.865494 -22.84723,1.512145 -28.63477,11.277343 1.82609,-5.539228 -5.28987,-7.719954 -8.74804,-10.179687 -10.82731,-4.821982 -24.91365,-2.007642 -32.03907,7.796875 3.72854,-15.960444 8.51207,-33.450057 2.66211,-49.5039064 -2.4892,-5.4258781 -8.13238,-8.7511603 -13.54296,-10.5996094 -0.89538,-0.1746094 -1.80811,-0.2646103 -2.72071,-0.25 v 2e-5 c -11.22121,0.3777142 -16.20353,12.5676795 -18.4707,21.8749998 -2.78608,9.539341 -3.20187,21.816147 -4.22266,30.050782 -3.87123,-3.546652 -10.28901,-0.302333 -14.99609,-1.410157 -4.574696,0.437948 -2.78207,8.64757 -4.66863,12.413145 -1.572303,7.251642 -3.436047,14.505425 -6.571605,21.25873 -0.320462,-9.095151 2.279389,-19.734024 -2.863281,-27.96875 -2.986127,-2.62018 -6.332212,-5.469858 -10.38086,-6.140625 C 74.501866,44.364682 69.670009,48.015724 66.154297,51.916016 60.563343,46.493722 52.692453,42.792651 44.857422,45.25 c -3.348224,0.781082 -6.64001,1.82858 -9.88086,2.955078 C 33.982399,40.31326 26.942781,35.156033 20,32.771484 8.7243009,30.697398 -0.18318794,39.876309 -8.109375,46.326172 c 4.2456852,4.241293 8.48834073,8.485618 12.7324219,12.728516 1.2692894,-1.273798 4.1111633,3.665954 6.2187501,0.492187 1.005226,-1.432598 4.155385,-4.896415 2.974609,-0.90625 -3.413799,31.778288 -10.4533131,63.201525 -16.6503904,94.615235 1.99284486,-0.31824 5.2293692,-2.52984 5.9707032,0.66602 4.5549145,2.75961 11.1901912,0.39567 16.5390622,1.18164 3.829057,-16.07282 7.663148,-32.14444 11.494141,-48.2168 10.087476,-0.003 21.700494,1.54512 30.451172,-4.50195 5.51941,-5.572282 7.47571,-15.004246 9.771484,-21.107426 0.333725,6.593542 -0.417355,14.70027 4.324219,19.888676 3.172967,1.12532 5.261378,4.4896 9.119141,3.94336 2.764978,-0.40938 4.019462,0.15929 2.595703,2.74414 -2.791215,9.22531 -5.730176,18.41241 -8.578125,27.62304 -4.718002,1.81913 -14.614765,-2.18947 -14.928659,4.58591 0.591755,3.70168 -6.042425,15.08996 0.424752,12.54105 2.946094,-1.69907 2.574552,4.26068 5.837891,2.67382 h 24.482422 c 5.499278,-17.02694 10.908098,-34.15839 16.466798,-51.11914 5.76092,-0.85479 11.54679,-3.33277 15.8457,-7.025388 6.59938,7.097988 16.89841,10.911788 26.46485,8.308598 2.99843,-0.41638 5.89157,-2.30823 8.53515,-3.02149 6.48244,3.51871 14.86964,2.82745 20.86133,-1.39648 5.09607,4.18935 13.53465,5.10579 18.12891,0.2832 7.17512,4.41976 17.18509,5.28588 24.17968,0.041 10.24974,7.24547 26.32093,6.55142 34.52735,-3.468754 4.93829,5.015164 12.18372,9.221644 19.38476,6.494144 3.89004,-0.97706 7.38279,-3.66792 10.48047,-5.644534 6.59409,5.029604 15.68919,9.774824 23.87305,5.511714 3.35988,-0.54 6.5539,-5.38349 9.52228,-1.77374 6.77683,5.10659 17.04971,5.13748 23.63592,-0.29852 3.34387,1.42251 7.65861,4.22071 10.10938,0.22851 2.77196,-3.329716 4.16571,-7.602908 7.35156,-10.636714 -4.00449,-0.718008 -6.8924,-3.513823 -10.28516,-5.177735 -1.60177,-7.639644 -6.56752,-14.862444 -10.55688,-21.493688 l 4.58563,-11.462596 -4.41841,-1.304737 0.87472,-1.988753 -13.60013,-4.344934 -19.39665,37.086896 c -2.09821,1.780824 -6.16605,2.850138 -8.06054,2.3125 8.23667,-7.781086 16.38398,-19.365326 12.95312,-31.238281 -2.47414,-5.317731 -8.29726,-8.496776 -13.76953,-9.863282 -10.16527,-1.677519 -18.35088,7.301133 -20.22266,16.589844 -1.67757,5.18554 -1.18325,11.133917 -2.38867,16.097656 -1.6225,0.975731 -4.92626,3.827778 -6.20898,3.048828 0.4184,-11.163187 3.94236,-21.769665 6.61523,-32.507812 0,0 -2.71182,-1.551629 -0.43235,-2.670214 z"
             id="path6386"
             inkscape:connector-curvature="0"
             sodipodi:nodetypes="cccccccccccccccccccccccccccccccccccccccccccccccccccccccccccccccccccccccccccccc" />
        </g>
      </g>
      <g
         style="display:inline"
         transform="translate(-264.10653,-135.75333)"
         id="g6398"
         inkscape:label="script">
        <g
           transform="translate(263.60653,135.26612)"
           id="g6396"
           style="display:inline;fill:#fa023c;fill-opacity:1" />
      </g>
    </g>
  </g>
  <g
     inkscape:label="Layer 1"
     inkscape:groupmode="layer"
     id="layer1"
     transform="translate(350.619,-161.66894)"
     sodipodi:insensitive="true"
     style="display:inline;opacity:1">
    <g
       inkscape:export-ydpi="9.9932203"
       inkscape:export-xdpi="9.9932203"
       transform="matrix(0.49955,0,0,0.49955,-348.34562,163.19994)"
       id="g6636"
       style="display:inline">
      <g
         id="g6618"
         inkscape:label="comment"
         transform="translate(-264.10653,-135.75333)"
         style="display:inline" />
      <g
         id="g6626"
         inkscape:label="shadow"
         style="display:inline"
         transform="translate(-2.97702,-8.3648884)">
        <g
           id="g6624"
           transform="translate(6.5355338,10.485281)"
           style="fill:#000000">
          <path
             inkscape:connector-curvature="0"
             sodipodi:nodetypes="ccsccczsscsccccscccscssccccccscsccccscscsccccccccscscsccssccccccsccsccsccczczcccssccccsccssccccscc"
             id="path6620"
             d="M 145.8125,0.50000432 C 123.74597,1.6523143 126.78125,69.375004 126.78125,69.375004 c 0,0 -0.93703,7.47672 -4.09375,11.78125 -3.15673,4.30452 -8.44519,7.38215 -9.78125,6.03125 l 8.21875,-36.1875 H 109 c 0,6.4e-4 -6.46018,36.223795 -13.53125,37.5625 -7.07107,1.338705 -5.063295,-6.05393 -5.063292,-13.630076 4e-6,-11.157502 1.519512,-23.391014 -6.561708,-24.401174 -8.08122,-1.01016 -16.6875,12.78125 -16.6875,12.78125 0,0 1.01872,-8.08439 -7.0625,-12.125 -8.08122,-4.04061 -28.28125,6.0625 -28.28125,6.0625 1.881521,-8.531888 -1.534797,-19.292188 -11.125,-19.1875 C 12.218554,38.573818 6.2509254,44.468939 0.5,49.156254 l 8.09375,8.09375 c 0,0 8.05314,-9.08202 12.09375,-4.03125 4.04061,5.05076 -15.5535714,98.825896 -15.5535714,98.825896 H 17.258929 L 28.78125,103.71876 c 0,0 26.26174,2.02967 31.3125,-4.031256 5.05076,-6.06091 9.09375,-22.21875 9.09375,-22.21875 0,0 11.119129,-12.143721 10.108979,-8.103111 -1.01015,4.04061 -2.034749,31.311717 3.016021,32.321867 5.05076,1.01015 15.15625,0 15.15625,0 l -12.25,39.28125 -14,1.125 -2.03125,10.125 h 23.25 L 108.75,101.43751 c 0,0 7.3219,-1.04918 11.46875,-3.312506 4.14685,-2.26332 7.38586,-6.26897 10.375,-9.25 0.65827,5.06127 0.86643,9.040319 7.0625,12.250006 8.03025,4.15982 19.17878,1.16145 23.96875,-2.500006 11.61676,7.576146 21.21875,-1.5 21.21875,-1.5 0,0 11.09533,10.101536 17.15625,0 16.66752,11.111676 25.75,-0.46875 25.75,-0.46875 0,0 0.7824,5.457376 14.8125,6.406256 14.0301,0.94888 20.71875,-12.656256 20.71875,-12.656256 2.74434,3.48423 4.13991,10.897926 10.90625,11.625006 6.76634,0.72708 13.52714,-3.605916 18.65625,-8.968756 3.81969,7.197816 7.71317,7.759426 12.59375,9.500006 4.88058,1.74058 14.30009,-3.449156 18.28125,-6.187506 5.0763,9.137536 20.01868,8.460296 24.40625,1.65625 0.0614,0.478178 1.18435,1.498951 7.09375,3.468756 2.34189,-1.709596 3.00844,-4.529786 5.8125,-8.343756 -2.52539,-1.01015 -7.625,-3.53125 -7.625,-3.53125 -1.50285,-8.41307 -6.02671,-16.21852 -10.84375,-23.96875 l 5.0625,-11.09375 -10.09375,-3.03125 c -6.22431,13.50459 -11.46678,25.47812 -15.65625,33.4375 -4.18947,7.95937 -19.68829,8.26924 -22.71875,1.375 20.29456,-15.18963 22.54306,-38.57158 5.03125,-36.337881 -16.2066,2.067214 -14.74173,30.537459 -14.74173,30.537459 0,0 -5.9583,5.790272 -14.03952,6.800422 -8.08122,1.01015 2.5625,-36 2.5625,-36 H 264.875 c 0,0 -6.67833,26.361223 -14.6875,35 -7.21864,7.786096 -10.33604,3.141199 -12.3125,2.21875 -2.04681,-0.955285 22.75428,-88.01119579 22.75428,-88.01119579 L 246.46288,0.67814417 231.65625,52.062504 c -8.08122,-0.16396 -17.16878,-1.32579 -25.25,5.875 -10.86008,10.20217 -6.66295,33.061625 -19.21875,28.948445 -4.04061,1.01015 6.84375,-30.760945 6.84375,-30.760945 -0.7389,-5.17228 -16.72934,-7.52701 -24.6875,-2.625 -15.78673,9.72419 -14.34548,29.02315 -17.3125,36.0625 -6.99635,3.234382 -8.93416,1.096535 -11.69844,-6 11.62571,-13.5981 29.7757,-82.0523497 6.54219,-83.06249968 -0.36302,-0.0157837 -0.71224,-0.0182906 -1.0625,0 z m 0.85977,16.33280468 c 0.10733,-0.01509 0.20458,-0.0088 0.3125,0 4.82812,0.392044 -9.60977,46.979695 -9.60977,46.979695 -1.49758,-0.49518 2.5355,-46.029026 9.29727,-46.979695 z m 152.85005,44.935053 c 2.30539,-1.938781 3.98307,-1.532499 4.34375,-0.200894 0.36068,1.331605 -8.70089,13.254465 -8.70089,13.254465 0.0488,-4.483809 2.05176,-11.114791 4.35714,-13.053571 z m -75.25709,2.679795 c 2.8925,-0.08146 4.03617,-0.49733 5.45352,0.583597 l -4.59375,20.34375 c -1.01015,3.07161 -14.70352,5.55644 -16.21875,-1.46875 -1.42074,-6.58708 2.45047,-11.737647 5.26523,-15.271097 2.27284,-2.853163 6.37482,-4.082772 10.09375,-4.1875 z m -45.03046,0.567572 c 0.78656,-0.01563 1.60813,0.114287 2.4375,0.406254 l -5.15625,18.521097 c -2.52538,3.53554 -9.27796,5.057614 -9.92227,-0.09883 -0.83873,-6.712304 5.03761,-18.677462 12.64102,-18.828521 z M 52.875,65.031254 c 1.336266,0.02885 2.53125,0.352677 3.46875,1.15625 5,4.28571 0.58666,19.16438 -4.5,22.5625 -6.11501,4.08512 -18.6875,1.21875 -18.6875,1.21875 l 5,-19.28125 c 0.580361,0 8.928263,-5.781289 14.71875,-5.65625 z m 283.5,9.59375 c 0,0 6.08976,12.98952 5,15 -2.72578,5.02877 -12.31902,-0.07963 -11.78125,-1.78125 z"
             style="display:inline;fill:#000000;fill-opacity:1;stroke:none" />
          <path
             inkscape:connector-curvature="0"
             sodipodi:nodetypes="csz"
             id="path6622"
             d="m 274.98435,27.189734 c 10.91038,-0.37102 10.26934,16.6584 -0.71914,15.50829 -7.8672,-0.82342 -10.19123,-15.13726 0.71914,-15.50829 z"
             style="display:inline;fill:#000000;fill-opacity:1;stroke:none" />
        </g>
      </g>
      <g
         inkscape:label="script"
         id="g6634"
         transform="translate(-264.10653,-135.75333)"
         style="display:inline">
        <g
           style="display:inline;fill:#fa023c;fill-opacity:1"
           id="g6632"
           transform="translate(263.60653,135.26612)">
          <path
             inkscape:connector-curvature="0"
             sodipodi:nodetypes="ccsccczsscsccccscccscssccccccscsccccscscsccccccccscscsccssccccccsccsccsccczczcccssccccsccssccccscc"
             id="path6628"
             d="M 145.8125,0.50000432 C 123.74597,1.6523143 126.78125,69.375004 126.78125,69.375004 c 0,0 -0.93703,7.47672 -4.09375,11.78125 -3.15673,4.30452 -8.44519,7.38215 -9.78125,6.03125 l 8.21875,-36.1875 H 109 c 0,6.4e-4 -6.46018,36.223795 -13.53125,37.5625 -7.07107,1.338705 -5.063295,-6.05393 -5.063292,-13.630076 4e-6,-11.157502 1.519512,-23.391014 -6.561708,-24.401174 -8.08122,-1.01016 -16.6875,12.78125 -16.6875,12.78125 0,0 1.01872,-8.08439 -7.0625,-12.125 -8.08122,-4.04061 -28.28125,6.0625 -28.28125,6.0625 1.881521,-8.531888 -1.534797,-19.292188 -11.125,-19.1875 C 12.218554,38.573818 6.2509254,44.468939 0.5,49.156254 l 8.09375,8.09375 c 0,0 8.05314,-9.08202 12.09375,-4.03125 4.04061,5.05076 -15.5535714,98.825896 -15.5535714,98.825896 H 17.258929 L 28.78125,103.71876 c 0,0 26.26174,2.02967 31.3125,-4.031256 5.05076,-6.06091 9.09375,-22.21875 9.09375,-22.21875 0,0 11.119129,-12.143721 10.108979,-8.103111 -1.01015,4.04061 -2.034749,31.311717 3.016021,32.321867 5.05076,1.01015 15.15625,0 15.15625,0 l -12.25,39.28125 -14,1.125 -2.03125,10.125 h 23.25 L 108.75,101.43751 c 0,0 7.3219,-1.04918 11.46875,-3.312506 4.14685,-2.26332 7.38586,-6.26897 10.375,-9.25 0.65827,5.06127 0.86643,9.040319 7.0625,12.250006 8.03025,4.15982 19.17878,1.16145 23.96875,-2.500006 11.61676,7.576146 21.21875,-1.5 21.21875,-1.5 0,0 11.09533,10.101536 17.15625,0 16.66752,11.111676 25.75,-0.46875 25.75,-0.46875 0,0 0.7824,5.457376 14.8125,6.406256 14.0301,0.94888 20.71875,-12.656256 20.71875,-12.656256 2.74434,3.48423 4.13991,10.897926 10.90625,11.625006 6.76634,0.72708 13.52714,-3.605916 18.65625,-8.968756 3.81969,7.197816 7.71317,7.759426 12.59375,9.500006 4.88058,1.74058 14.30009,-3.449156 18.28125,-6.187506 5.0763,9.137536 20.01868,8.460296 24.40625,1.65625 0.0614,0.478178 1.18435,1.498951 7.09375,3.468756 2.34189,-1.709596 3.00844,-4.529786 5.8125,-8.343756 -2.52539,-1.01015 -7.625,-3.53125 -7.625,-3.53125 -1.50285,-8.41307 -6.02671,-16.21852 -10.84375,-23.96875 l 5.0625,-11.09375 -10.09375,-3.03125 c -6.22431,13.50459 -11.46678,25.47812 -15.65625,33.4375 -4.18947,7.95937 -19.68829,8.26924 -22.71875,1.375 20.29456,-15.18963 22.54306,-38.57158 5.03125,-36.337881 -16.2066,2.067214 -14.74173,30.537459 -14.74173,30.537459 0,0 -5.9583,5.790272 -14.03952,6.800422 -8.08122,1.01015 2.5625,-36 2.5625,-36 H 264.875 c 0,0 -6.67833,26.361223 -14.6875,35 -7.21864,7.786096 -10.33604,3.141199 -12.3125,2.21875 -2.04681,-0.955285 22.75428,-88.01119579 22.75428,-88.01119579 L 246.46288,0.67814417 231.65625,52.062504 c -8.08122,-0.16396 -17.16878,-1.32579 -25.25,5.875 -10.86008,10.20217 -6.66295,33.061625 -19.21875,28.948445 -4.04061,1.01015 6.84375,-30.760945 6.84375,-30.760945 -0.7389,-5.17228 -16.72934,-7.52701 -24.6875,-2.625 -15.78673,9.72419 -14.34548,29.02315 -17.3125,36.0625 -6.99635,3.234382 -8.93416,1.096535 -11.69844,-6 11.62571,-13.5981 29.7757,-82.0523497 6.54219,-83.06249968 -0.36302,-0.0157837 -0.71224,-0.0182906 -1.0625,0 z m 0.85977,16.33280468 c 0.10733,-0.01509 0.20458,-0.0088 0.3125,0 4.82812,0.392044 -9.60977,46.979695 -9.60977,46.979695 -1.49758,-0.49518 2.5355,-46.029026 9.29727,-46.979695 z m 152.85005,44.935053 c 2.30539,-1.938781 3.98307,-1.532499 4.34375,-0.200894 0.36068,1.331605 -8.70089,13.254465 -8.70089,13.254465 0.0488,-4.483809 2.05176,-11.114791 4.35714,-13.053571 z m -75.25709,2.679795 c 2.8925,-0.08146 4.03617,-0.49733 5.45352,0.583597 l -4.59375,20.34375 c -1.01015,3.07161 -14.70352,5.55644 -16.21875,-1.46875 -1.42074,-6.58708 2.45047,-11.737647 5.26523,-15.271097 2.27284,-2.853163 6.37482,-4.082772 10.09375,-4.1875 z m -45.03046,0.567572 c 0.78656,-0.01563 1.60813,0.114287 2.4375,0.406254 l -5.15625,18.521097 c -2.52538,3.53554 -9.27796,5.057614 -9.92227,-0.09883 -0.83873,-6.712304 5.03761,-18.677462 12.64102,-18.828521 z M 52.875,65.031254 c 1.336266,0.02885 2.53125,0.352677 3.46875,1.15625 5,4.28571 0.58666,19.16438 -4.5,22.5625 -6.11501,4.08512 -18.6875,1.21875 -18.6875,1.21875 l 5,-19.28125 c 0.580361,0 8.928263,-5.781289 14.71875,-5.65625 z m 283.5,9.59375 c 0,0 6.08976,12.98952 5,15 -2.72578,5.02877 -12.31902,-0.07963 -11.78125,-1.78125 z"
             style="display:inline;fill:#fa023c;fill-opacity:1;stroke:none" />
          <path
             inkscape:connector-curvature="0"
             sodipodi:nodetypes="csz"
             id="path6630"
             d="m 274.98435,27.189734 c 10.91038,-0.37102 10.26934,16.6584 -0.71914,15.50829 -7.8672,-0.82342 -10.19123,-15.13726 0.71914,-15.50829 z"
             style="display:inline;fill:#fa023c;fill-opacity:1;stroke:none" />
        </g>
      </g>
    </g>
  </g>
</svg>
